<?xml version="1.0" encoding="UTF-8"?>
<svg width="95px" height="100px" viewBox="0 0 95 100" version="1.1" xmlns="http://www.w3.org/2000/svg" xmlns:xlink="http://www.w3.org/1999/xlink">
    <title>1</title>
    <g id="数据大屏" stroke="none" stroke-width="1" fill="none" fill-rule="evenodd">
        <g id="安监主屏2" transform="translate(-897.000000, -29.000000)" fill="#FF2516">
            <g id="1" transform="translate(897.000000, 29.000000)">
                <path d="M89,1.5 C90.2426407,1.5 91.3676407,2.00367966 92.1819805,2.81801948 C92.9963203,3.63235931 93.5,4.75735931 93.5,6 L93.5,6 L93.5,67.558867 C93.5,68.7566902 93.0224425,69.9050846 92.173095,70.7497083 L92.173095,70.7497083 L65.5840836,97.1908413 C64.7409028,98.0293327 63.6001151,98.5 62.4109886,98.5 L62.4109886,98.5 L6,98.5 C4.75735931,98.5 3.63235931,97.9963203 2.81801948,97.1819805 C2.00367966,96.3676407 1.5,95.2426407 1.5,94 L1.5,94 L1.5,6 C1.5,4.75735931 2.00367966,3.63235931 2.81801948,2.81801948 C3.63235931,2.00367966 4.75735931,1.5 6,1.5 L6,1.5 Z" id="矩形" stroke="#FF2516" stroke-width="3" fill-opacity="0.1"></path>
                <text id="一级" font-family="PingFangSC-Semibold, PingFang SC" font-size="24" font-weight="500" letter-spacing="1">
                    <tspan x="36" y="31">一级</tspan>
                </text>
                <text id="报警" opacity="0.600000024" font-family="PingFangSC-Regular, PingFang SC" font-size="12" font-weight="normal" letter-spacing="0.5">
                    <tspan x="60" y="50">报警</tspan>
                </text>
            </g>
        </g>
    </g>
</svg>