<?xml version="1.0" encoding="UTF-8"?>
<svg width="37px" height="45px" viewBox="0 0 37 45" version="1.1" xmlns="http://www.w3.org/2000/svg" xmlns:xlink="http://www.w3.org/1999/xlink">
    <title>黄</title>
    <g id="数据大屏" stroke="none" stroke-width="1" fill="none" fill-rule="evenodd" opacity="0.600000024">
        <g id="安监主屏2" transform="translate(-1532.000000, -499.000000)" fill="#EDB517">
            <g id="告警消息" transform="translate(1532.000000, 433.000000)">
                <g id="22" transform="translate(0.000000, 58.000000)">
                    <g id="编组-27" transform="translate(0.000000, 5.000000)">
                        <g id="黄" transform="translate(0.000000, 3.000000)">
                            <path d="M2,0 L35,0 C36.1045695,-2.02906125e-16 37,0.8954305 37,2 L37,35 C37,36.1045695 36.1045695,37 35,37 L28.8067333,37 C28.2820642,37 27.778406,36.7938285 27.404335,36.4259309 L25.583458,34.6351043 C25.209387,34.2672067 24.7057288,34.0610352 24.1810596,34.0610352 L12.8153889,34.0610352 C12.2928271,34.0610352 11.7910191,34.2655582 11.4173371,34.6308425 L9.57662043,36.4301926 C9.20293838,36.7954769 8.70113042,37 8.17856858,37 L2,37 C0.8954305,37 -5.30863065e-16,36.1045695 0,35 L0,2 C-1.3527075e-16,0.8954305 0.8954305,2.02906125e-16 2,0 Z" id="矩形"></path>
                            <path d="M2,38 L35,38 C36.1045695,38 37,38.8954305 37,40 L37,43 C37,44.1045695 36.1045695,45 35,45 L28.8067333,45 C28.2820642,45 27.778406,44.7938285 27.404335,44.4259309 L25.583458,42.6351043 C25.209387,42.2672067 24.7057288,42.0610352 24.1810596,42.0610352 L12.8153889,42.0610352 C12.2928271,42.0610352 11.7910191,42.2655582 11.4173371,42.6308425 L9.57662043,44.4301926 C9.20293838,44.7954769 8.70113042,45 8.17856858,45 L2,45 C0.8954305,45 -3.0881846e-16,44.1045695 0,43 L0,40 C-1.3527075e-16,38.8954305 0.8954305,38 2,38 Z" id="矩形" transform="translate(18.500000, 41.500000) scale(1, -1) translate(-18.500000, -41.500000) "></path>
                        </g>
                    </g>
                </g>
            </g>
        </g>
    </g>
</svg>