<?xml version="1.0" encoding="UTF-8"?>
<svg width="54px" height="54px" viewBox="0 0 54 54" version="1.1" xmlns="http://www.w3.org/2000/svg" xmlns:xlink="http://www.w3.org/1999/xlink">
    <title>空气</title>
    <g id="安监平台大屏" stroke="none" stroke-width="1" fill="none" fill-rule="evenodd">
        <g id="综合图表" transform="translate(-431.000000, -367.000000)">
            <g id="设备" transform="translate(431.000000, 168.000000)">
                <g id="编组-9" transform="translate(0.000000, 184.000000)">
                    <g id="空气" transform="translate(0.000000, 15.000000)">
                        <path d="M14,8 L40,8 C43.3137085,8 46,10.6862915 46,14 L46,40 C46,43.3137085 43.3137085,46 40,46 L14,46 C10.6862915,46 8,43.3137085 8,40 L8,14 C8,10.6862915 10.6862915,8 14,8 Z" id="矩形" fill="#62FFCB" opacity="0.200000003" transform="translate(27.000000, 27.000000) rotate(45.000000) translate(-27.000000, -27.000000) "></path>
                        <g id="空气质量1" transform="translate(17.000000, 18.000000)" fill-rule="nonzero">
                            <rect id="矩形" fill="#000000" opacity="0" x="0" y="0" width="18" height="18"></rect>
                            <path d="M2.46857143,17.0502857 C6.21,15.036 9.58800001,12.0042857 13.4228572,6.50142858 C13.5994286,6.24857143 12.9608571,7.434 12.8245714,7.70914285 C10.9611429,11.4754286 8.56628571,13.8805714 7.03200001,15.3291429 C6.79200001,15.552 6.85114286,15.9377143 7.14342857,16.092 C8.532,16.8265714 11.8191428,17.9905714 14.3022857,13.6722857 C16.5008572,9.84771429 16.8497143,4.00542857 16.9602857,1.20257142 C16.98,0.708857139 16.6662857,1.03885713 16.332,1.42628572 C15.1157143,2.83457145 11.6485714,3.13714287 9.20142858,4.47257143 C4.13571429,7.23685714 3.70542858,10.7674286 4.91742858,14.0125714 C5.00527097,14.2460567 4.91319261,14.5089314 4.69885714,14.6365714 C4.00971429,15.0582857 3.22285714,16.008 2.06314286,16.0748571 C0.17485715,16.1837143 1.27028572,17.6931429 2.46942858,17.0502857 L2.46857143,17.0502857 Z" id="路径" fill="#62FFCA"></path>
                        </g>
                    </g>
                </g>
            </g>
        </g>
    </g>
</svg>