<?xml version="1.0" encoding="UTF-8"?>
<svg width="22px" height="22px" viewBox="0 0 22 22" version="1.1" xmlns="http://www.w3.org/2000/svg" xmlns:xlink="http://www.w3.org/1999/xlink">
    <title>报警</title>
    <g id="安监平台大屏" stroke="none" stroke-width="1" fill="none" fill-rule="evenodd">
        <g id="实时视频2" transform="translate(-195.000000, -115.000000)" fill="#FFFFFF" fill-rule="nonzero">
            <g id="视频图片" transform="translate(190.000000, 110.000000)">
                <g id="报警" transform="translate(5.000000, 5.000000)">
                    <rect id="矩形" opacity="0" x="0" y="0" width="22" height="22"></rect>
                    <path d="M4.14648438,17.1015625 C4.14648438,17.4818359 4.45371094,17.7890625 4.83398438,17.7890625 L17.1660156,17.7890625 C17.5462891,17.7890625 17.8535156,17.4818359 17.8535156,17.1015625 L17.8535156,12.0957031 C17.8535156,8.31015625 14.7855469,5.2421875 11,5.2421875 C7.21445312,5.2421875 4.14648438,8.31015625 4.14648438,12.0957031 L4.14648438,17.1015625 Z M5.69335938,12.0957031 C5.69335938,9.16523438 8.06953125,6.7890625 11,6.7890625 C13.9304687,6.7890625 16.3066406,9.16523438 16.3066406,12.0957031 L16.3066406,16.2421875 L8.6796875,16.2421875 L8.6796875,12.5683594 C8.6796875,12.4501953 8.58300781,12.3535156 8.46484375,12.3535156 L7.51953125,12.3535156 C7.40136719,12.3535156 7.3046875,12.4501953 7.3046875,12.5683594 L7.3046875,16.2421875 L5.69335938,16.2421875 L5.69335938,12.0957031 Z M4.65996094,6.67089844 L5.51074219,5.82011719 C5.57734375,5.75351562 5.57734375,5.64394531 5.51074219,5.57734375 L4.05195312,4.11855469 C3.98535156,4.05195312 3.87578125,4.05195312 3.80917969,4.11855469 L2.95839844,4.96933594 C2.89179687,5.0359375 2.89179687,5.14550781 2.95839844,5.21210937 L4.4171875,6.67089844 C4.48378906,6.7375 4.59121094,6.7375 4.65996094,6.67089844 Z M19.0458984,4.96933594 L18.1951172,4.11855469 C18.1285156,4.05195312 18.0189453,4.05195312 17.9523438,4.11855469 L16.4935547,5.57734375 C16.4269531,5.64394531 16.4269531,5.75351562 16.4935547,5.82011719 L17.3443359,6.67089844 C17.4109375,6.7375 17.5205078,6.7375 17.5871094,6.67089844 L19.0458984,5.21210938 C19.1125,5.14335938 19.1125,5.0359375 19.0458984,4.96933594 L19.0458984,4.96933594 Z M17.875,19.1640625 L4.125,19.1640625 C3.74472656,19.1640625 3.4375,19.4712891 3.4375,19.8515625 L3.4375,20.3671875 C3.4375,20.4617187 3.51484375,20.5390625 3.609375,20.5390625 L18.390625,20.5390625 C18.4851562,20.5390625 18.5625,20.4617187 18.5625,20.3671875 L18.5625,19.8515625 C18.5625,19.4712891 18.2552734,19.1640625 17.875,19.1640625 Z M10.3984375,3.8671875 L11.6015625,3.8671875 C11.6960937,3.8671875 11.7734375,3.78984375 11.7734375,3.6953125 L11.7734375,1.6328125 C11.7734375,1.53828125 11.6960937,1.4609375 11.6015625,1.4609375 L10.3984375,1.4609375 C10.3039063,1.4609375 10.2265625,1.53828125 10.2265625,1.6328125 L10.2265625,3.6953125 C10.2265625,3.78984375 10.3039063,3.8671875 10.3984375,3.8671875 Z" id="形状"></path>
                </g>
            </g>
        </g>
    </g>
</svg>