<?xml version="1.0" encoding="UTF-8"?>
<svg width="14px" height="14px" viewBox="0 0 14 14" version="1.1" xmlns="http://www.w3.org/2000/svg"
     xmlns:xlink="http://www.w3.org/1999/xlink">
    <title>报警管理icon-灰</title>
    <g id="功能界面" stroke="none" stroke-width="1" fill="none" fill-rule="evenodd" opacity="0.649999976">
        <g id="通用控件-切图" transform="translate(-16.000000, -520.000000)" fill="#FFFFFF" fill-rule="nonzero">
            <g id="C-分析-关" transform="translate(0.000000, 471.000000)">
                <g id="1警告管理" transform="translate(0.000000, 36.000000)">
                    <g id="报警管理icon-灰" transform="translate(16.000000, 13.000000)">
                        <path d="M6.99975298,4.29166667 C9.1825888,4.29166667 10.9959106,5.93328925 10.9959106,7.95833333 L10.9959106,12.0032648 L13,12.0037231 L13,13 L1,13 L1,12.0041815 L3.01574707,12.0037231 L3.01574707,7.95833333 C3.01574707,5.93328925 4.81691715,4.29166667 6.99975298,4.29166667 Z M6.99975298,5.49832153 C5.50750156,5.49832153 4.30447388,6.62088013 4.30447388,7.95833333 L4.30447388,11.7311401 L9.69744873,11.7311401 L9.69744873,7.95833333 C9.69744873,6.62088013 8.49200439,5.49832153 6.99975298,5.49832153 Z M7.1785979,8.55325 L8.63010721,8.55325 L6.17518897,11.042 L6.79126525,9.16695833 L5.38076182,9.16695833 L7.77194803,6.69379167 L7.1785979,8.55325 Z M12.0263062,2.83520508 L12.9600304,3.72379183 L11.5628662,5.0199585 L10.629142,4.13137174 L12.0263062,2.83520508 Z M3.29443359,4.01293945 L2.39667012,4.94425 L1,3.64808333 L1.89776347,2.71677279 L3.29443359,4.01293945 Z M7.57275391,0.997599284 L7.57275391,2.83093262 L6.38269043,2.83093262 L6.38269043,0.997599284 L7.57275391,0.997599284 Z"
                              id="形状"></path>
                        <rect id="矩形" opacity="0" x="0" y="0" width="14" height="14"></rect>
                    </g>
                </g>
            </g>
        </g>
    </g>
</svg>
