<?xml version="1.0" encoding="UTF-8"?>
<svg width="18px" height="20px" viewBox="0 0 18 20" version="1.1" xmlns="http://www.w3.org/2000/svg" xmlns:xlink="http://www.w3.org/1999/xlink">
    <title>铃铛</title>
    <g id="功能界面" stroke="none" stroke-width="1" fill="none" fill-rule="evenodd" opacity="0.649999976">
        <g id="数据看板/实时视频/镶嵌模式" transform="translate(-1193.000000, -19.000000)" fill="#FFFFFF" fill-rule="nonzero">
            <g id="铃铛" transform="translate(1193.000000, 19.807018)">
                <path d="M14.2703125,7.07557018 C14.2703125,4.48035088 12.3628125,2.3160307 9.853125,1.8610307 L9.853125,1 L7.89,1 L7.89,1.8610307 C5.3803125,2.3160307 3.4728125,4.48035088 3.4728125,7.07557018 L3.4728125,12.1867982 L2.6875,12.1867982 L2.6875,14.1154825 L15.055625,14.1154825 L15.055625,12.1867982 L14.2703125,12.1867982 L14.2703125,7.07557018 Z M5.4359375,7.07557018 C5.4359375,5.21442982 6.97703125,3.7002193 8.8715625,3.7002193 C10.7660937,3.7002193 12.3071875,5.21427632 12.3071875,7.07557018 L12.3071875,12.1867982 L5.4359375,12.1867982 L5.4359375,7.07557018 Z M6.22125,14.790614 L11.521875,14.790614 L11.521875,16.7192982 L6.22125,16.7192982 L6.22125,14.790614 Z" id="形状"></path>
                <rect id="矩形" opacity="0" x="0" y="0.192982456" width="18" height="18"></rect>
            </g>
        </g>
    </g>
</svg>