<?xml version="1.0" encoding="UTF-8"?>
<svg width="93px" height="93px" viewBox="0 0 93 93" version="1.1" xmlns="http://www.w3.org/2000/svg" xmlns:xlink="http://www.w3.org/1999/xlink">
    <title>饼底</title>
    <g id="数据大屏" stroke="none" stroke-width="1" fill="none" fill-rule="evenodd">
        <g id="安监主屏2" transform="translate(-154.000000, -496.000000)">
            <g id="下井人员统计" transform="translate(13.000000, 135.000000)">
                <g id="5" transform="translate(0.000000, 362.000000)">
                    <g id="饼底" transform="translate(142.000000, 0.000000)">
                        <path d="M45.5,91 C70.6289561,91 91,70.6289561 91,45.5 C91,20.3710439 70.6289561,0 45.5,0 C20.3710439,0 0,20.3710439 0,45.5 C0,70.6289561 20.3710439,91 45.5,91 Z" id="椭圆形" stroke="#28DAF6" opacity="0.600000024" stroke-linecap="round" stroke-linejoin="round" stroke-dasharray="1,3"></path>
                        <path d="M45.5,6.4084507 C67.0896665,6.4084507 84.5915493,23.9103335 84.5915493,45.5 C84.5915493,67.0896665 67.0896665,84.5915493 45.5,84.5915493 C23.9103335,84.5915493 6.4084507,67.0896665 6.4084507,45.5 C6.4084507,23.9103335 23.9103335,6.4084507 45.5,6.4084507 Z M45.5,21.7887324 C32.4046285,21.7887324 21.7887324,32.4046285 21.7887324,45.5 C21.7887324,58.5953715 32.4046285,69.2112676 45.5,69.2112676 C58.5953715,69.2112676 69.2112676,58.5953715 69.2112676,45.5 C69.2112676,32.4046285 58.5953715,21.7887324 45.5,21.7887324 Z" id="形状结合" fill="#28DAF6" opacity="0.100000001"></path>
                    </g>
                </g>
            </g>
        </g>
    </g>
</svg>