<?xml version="1.0" encoding="UTF-8"?>
<svg width="502px" height="504px" viewBox="0 0 502 504" version="1.1" xmlns="http://www.w3.org/2000/svg" xmlns:xlink="http://www.w3.org/1999/xlink">
    <title>编组 15</title>
    <defs>
        <filter x="-9.2%" y="-9.2%" width="118.4%" height="118.4%" filterUnits="objectBoundingBox" id="filter-1">
            <feGaussianBlur stdDeviation="13" in="SourceGraphic"></feGaussianBlur>
        </filter>
    </defs>
    <g id="安监平台大屏" stroke="none" stroke-width="1" fill="none" fill-rule="evenodd">
        <g id="综合图表" transform="translate(-709.000000, -330.000000)">
            <g id="产量监测" transform="translate(541.000000, 366.000000)">
                <g id="编组-15" transform="translate(207.000000, 0.993452)">
                    <circle id="椭圆形" fill="#000000" opacity="0.5" filter="url(#filter-1)" cx="212" cy="215.006548" r="212"></circle>
                    <path id="形状" d="M111.096241,417.677349 C111.327065,418.123794 111.556451,418.57099 111.784397,419.01893 C113.910806,418.239077 116.329275,419.171012 117.358687,421.2483 C118.462214,423.475148 117.551582,426.174951 115.324734,427.278477 C113.097886,428.382004 110.398084,427.471373 109.294557,425.244525 C108.266998,423.170974 108.98583,420.687345 110.887558,419.464269 L111.115613,419.910757 C110.815584,419.318072 110.513025,418.726688 110.207945,418.13662 C110.081121,417.891324 110.177161,417.589661 110.422457,417.462836 C110.667754,417.336012 110.969417,417.432053 111.096241,417.677349 Z M312.757229,419.116842 C315.000303,420.187003 315.951137,422.87291 314.880976,425.115984 C313.810815,427.359058 311.124908,428.309891 308.881834,427.23973 C306.63876,426.16957 305.687927,423.483662 306.758088,421.240589 C307.828248,418.997515 310.514156,418.046681 312.757229,419.116842 Z M111.952953,420.027138 L111.900551,420.052787 C111.867448,420.083247 111.82965,420.109712 111.787535,420.131032 C111.743608,420.153268 111.69795,420.168405 111.651868,420.176871 L111.772535,420.110362 C110.040542,420.968661 109.332273,423.068507 110.190571,424.8005 C111.04887,426.532492 113.148716,427.240762 114.880709,426.382463 C116.612702,425.524164 117.320971,423.424318 116.462672,421.692325 C115.63397,420.020056 113.647868,419.302127 111.952953,420.027138 Z M307.660631,421.671188 C306.828283,423.415801 307.567821,425.50484 309.312433,426.337187 C311.057046,427.169535 313.146085,426.429997 313.978433,424.685385 C314.81078,422.940772 314.071243,420.851733 312.32663,420.019385 C310.582017,419.187038 308.492978,419.926575 307.660631,421.671188 Z M315.268705,414.156646 C315.513941,414.283587 315.609838,414.585296 315.482897,414.830532 C315.177093,415.421311 314.873816,416.013412 314.573076,416.606819 C314.448243,416.853134 314.147367,416.951615 313.901052,416.826781 C313.654736,416.701948 313.556256,416.401073 313.681089,416.154757 C313.983122,415.5588 314.287702,414.964155 314.59482,414.370838 C314.721761,414.125602 315.02347,414.029705 315.268705,414.156646 Z M106.300765,408.87026 C106.632977,409.450432 106.962707,410.032031 107.289945,410.61504 C107.425106,410.855843 107.339466,411.160622 107.098662,411.295782 C106.857859,411.430943 106.55308,411.345303 106.417919,411.1045 C106.092079,410.523981 105.763757,409.944866 105.432963,409.367171 C105.295745,409.127534 105.378772,408.822033 105.618408,408.684815 C105.858045,408.547596 106.163546,408.630623 106.300765,408.87026 Z M320.077697,405.379572 C320.317268,405.516906 320.400147,405.822447 320.262813,406.062018 C319.931972,406.639151 319.603598,407.217704 319.277702,407.797659 C319.142424,408.038396 318.837604,408.123888 318.596866,407.98861 C318.356129,407.853331 318.270638,407.548511 318.405916,407.307773 C318.733209,406.725331 319.062991,406.144297 319.395251,405.564689 C319.532585,405.325118 319.838126,405.242239 320.077697,405.379572 Z M101.134466,400.279355 C101.491443,400.845215 101.845999,401.412599 102.198123,401.981493 C102.343457,402.216297 102.270928,402.524459 102.036125,402.669793 C101.801322,402.815127 101.493159,402.742599 101.347825,402.507795 C100.997202,401.941326 100.644158,401.37636 100.288702,400.812912 C100.141365,400.579361 100.211255,400.270589 100.444806,400.123251 C100.678357,399.975914 100.987129,400.045804 101.134466,400.279355 Z M325.255933,396.819687 C325.489413,396.967138 325.559153,397.275943 325.411703,397.509423 C325.056427,398.071982 324.703555,398.636056 324.353097,399.201631 C324.207647,399.436362 323.899449,399.508739 323.664717,399.363288 C323.429986,399.217837 323.35761,398.909639 323.503061,398.674908 C323.855018,398.106912 324.209401,397.540423 324.566197,396.975456 C324.713648,396.741976 325.022453,396.672236 325.255933,396.819687 Z M95.6050068,391.915588 C95.9848302,392.464282 96.3623142,393.014589 96.7374473,393.566494 C96.8926789,393.794875 96.8333799,394.105854 96.6049992,394.261086 C96.3766185,394.416317 96.0656393,394.357018 95.9104076,394.128638 C95.5368708,393.579081 95.1609929,393.031115 94.7827854,392.484756 C94.625614,392.257706 94.682262,391.946232 94.9093122,391.789061 C95.1363623,391.63189 95.4478354,391.688538 95.6050068,391.915588 Z M330.757239,388.543106 C330.984258,388.700322 331.040844,389.011807 330.883628,389.238826 C330.504692,389.786004 330.128094,390.334794 329.753844,390.885181 C329.598571,391.113533 329.28758,391.172775 329.059228,391.017501 C328.830876,390.862227 328.771635,390.551237 328.926909,390.322885 C329.302758,389.770146 329.680965,389.219011 330.061519,388.669494 C330.218736,388.442475 330.53022,388.385889 330.757239,388.543106 Z M89.7269495,383.799235 C90.1309024,384.332716 90.5325769,384.867914 90.9319607,385.404814 C91.0967756,385.626378 91.0507713,385.9396 90.8292071,386.104415 C90.607643,386.26923 90.2944209,386.223226 90.129606,386.001662 C89.731919,385.467043 89.331951,384.934118 88.929714,384.402903 C88.7630156,384.182753 88.806347,383.86915 89.0264976,383.702452 C89.2466481,383.535753 89.5602511,383.579085 89.7269495,383.799235 Z M336.652715,380.443134 C336.87282,380.609893 336.916065,380.923508 336.749305,381.143613 C336.347801,381.673557 335.948554,382.205203 335.551578,382.738538 C335.386698,382.960053 335.073462,383.005965 334.851947,382.841085 C334.630431,382.676205 334.584519,382.362969 334.7494,382.141454 C335.148069,381.605844 335.549019,381.071929 335.952237,380.539724 C336.118996,380.31962 336.432611,380.276375 336.652715,380.443134 Z M83.5060059,375.937015 C83.9309938,376.451254 84.3537945,376.967292 84.7743953,377.485115 C84.9484961,377.699459 84.9158723,378.014356 84.7015279,378.188457 C84.4871835,378.362558 84.1722864,378.329934 83.9981856,378.11559 C83.5793695,377.599964 83.1583628,377.086115 82.735178,376.574058 C82.5592633,376.3612 82.589212,376.046037 82.8020702,375.870122 C83.0149285,375.694208 83.3300912,375.724156 83.5060059,375.937015 Z M342.887093,372.603144 C343.099893,372.779128 343.129739,373.094301 342.953754,373.307101 C342.530083,373.819406 342.108592,374.333505 341.689294,374.849385 C341.515124,375.063674 341.200217,375.096196 340.985928,374.922027 C340.77164,374.747857 340.739117,374.432949 340.913287,374.218661 C341.334371,373.700583 341.757658,373.184292 342.183135,372.669805 C342.35912,372.457005 342.674292,372.427159 342.887093,372.603144 Z M76.9420547,368.330611 C77.3896707,368.82751 77.8351703,369.326309 78.2785401,369.826994 C78.4616105,370.03373 78.4424257,370.34973 78.2356896,370.532801 C78.0289535,370.715871 77.7129529,370.696687 77.5298824,370.48995 C77.0883923,369.991389 76.6447815,369.494704 76.1990631,368.999912 C76.0142408,368.79474 76.030737,368.478588 76.2359085,368.293766 C76.44108,368.108943 76.7572324,368.12544 76.9420547,368.330611 Z M349.444535,365.04131 C349.649659,365.226185 349.666074,365.542341 349.481199,365.747465 C349.035862,366.24158 348.592627,366.737583 348.151508,367.235459 C347.968382,367.442146 347.652376,367.461247 347.445689,367.278122 C347.239002,367.094996 347.219901,366.77899 347.403026,366.572303 C347.846024,366.072307 348.291146,365.574192 348.73838,365.077974 C348.923254,364.87285 349.239411,364.856435 349.444535,365.04131 Z M70.101089,361.052372 C70.5688158,361.52935 71.0345151,362.008312 71.498173,362.489244 C71.6898323,362.688043 71.6840439,363.004573 71.4852442,363.196232 C71.2864445,363.387891 70.9699149,363.382103 70.7782556,363.183303 C70.3165626,362.70441 69.852837,362.227478 69.3870924,361.752522 C69.1937515,361.555357 69.1968514,361.23879 69.3940161,361.045449 C69.5911809,360.852108 69.9077482,360.855208 70.101089,361.052372 Z M356.321273,357.761274 C356.51835,357.954705 356.521305,358.271273 356.327874,358.46835 C355.862411,358.942586 355.398962,359.418795 354.93754,359.896962 C354.745788,360.095673 354.429256,360.101314 354.230545,359.909562 C354.031835,359.717811 354.026194,359.401278 354.217945,359.202568 C354.681331,358.722365 355.146753,358.24413 355.614197,357.767875 C355.807628,357.570799 356.124196,357.567843 356.321273,357.761274 Z M62.9288912,354.042708 C63.4170136,354.499895 63.9031914,354.959158 64.3874105,355.420481 C64.5873422,355.610959 64.5950057,355.927449 64.4045275,356.127381 C64.2140493,356.327312 63.8975596,356.334976 63.6976279,356.144498 C63.2154611,355.685129 62.7313438,355.227813 62.2452902,354.772564 C62.0437461,354.583793 62.0333916,354.267379 62.2221628,354.065835 C62.410934,353.864291 62.7273471,353.853937 62.9288912,354.042708 Z M363.493884,350.78719 C363.682566,350.988818 363.672072,351.305226 363.470444,351.493908 C362.985302,351.947902 362.502087,352.403953 362.020812,352.862048 C361.820793,353.052434 361.504307,353.044624 361.313921,352.844605 C361.123535,352.644585 361.131344,352.328099 361.331364,352.137713 C361.814687,351.677668 362.299959,351.219676 362.787166,350.76375 C362.988793,350.575068 363.305202,350.585562 363.493884,350.78719 Z M55.4595754,347.339278 C55.9663424,347.774976 56.4712577,348.21283 56.9743068,348.652825 C57.1821605,348.834625 57.2032807,349.150503 57.0214801,349.358356 C56.8396795,349.56621 56.5238023,349.58733 56.3159486,349.40553 C55.8150326,348.9674 55.3122584,348.531403 54.8076405,348.097553 C54.5982487,347.917526 54.5744436,347.60184 54.7544705,347.392448 C54.9344973,347.183056 55.2501836,347.159251 55.4595754,347.339278 Z M370.936717,344.140893 C371.116684,344.350336 371.092788,344.666015 370.883345,344.845982 C370.378991,345.279354 369.876478,345.71487 369.375819,346.152515 C369.167912,346.334255 368.852041,346.313042 368.670301,346.105135 C368.488562,345.897228 368.509774,345.581357 368.717681,345.399618 C369.220472,344.960108 369.725126,344.522738 370.231627,344.08752 C370.441071,343.907554 370.75675,343.931449 370.936717,344.140893 Z M47.7143672,340.961823 C48.2390087,341.375395 48.7618924,341.791199 49.2830032,342.209223 C49.498405,342.382014 49.5329478,342.696707 49.3601569,342.912108 C49.187366,343.12751 48.8726737,343.162053 48.6572719,342.989262 C48.1383729,342.573012 47.6177087,342.158972 47.0952941,341.747157 C46.8784303,341.576204 46.8412116,341.261817 47.0121639,341.044953 C47.1831162,340.82809 47.4975033,340.790871 47.7143672,340.961823 Z M378.68175,337.794908 C378.852639,338.011822 378.815329,338.326198 378.598415,338.497087 C378.076306,338.908415 377.555944,339.321963 377.037343,339.737719 C376.82189,339.910446 376.507208,339.875809 376.334482,339.660356 C376.161755,339.444902 376.196392,339.13022 376.411845,338.957494 C376.932656,338.539965 377.455236,338.124654 377.979571,337.711573 C378.196485,337.540684 378.510861,337.577994 378.68175,337.794908 Z M39.7043458,334.919772 C40.2461309,335.310611 40.7862522,335.703758 41.3246946,336.099202 C41.5472616,336.26266 41.5951789,336.575595 41.4317209,336.798162 C41.2682628,337.020729 40.9553277,337.068646 40.7327607,336.905188 C40.1966067,336.511425 39.6587811,336.119949 39.1192989,335.730772 C38.8953476,335.569216 38.8447664,335.2567 39.0063226,335.032749 C39.1678788,334.808797 39.4803945,334.758216 39.7043458,334.919772 Z M386.690081,331.784515 C386.851571,332.008514 386.800897,332.321015 386.576898,332.482505 C386.037307,332.871517 385.499372,333.262829 384.963108,333.656429 C384.740493,333.819821 384.427572,333.771811 384.26418,333.549195 C384.100788,333.32658 384.148798,333.013659 384.371413,332.850267 C384.909966,332.454987 385.450197,332.062005 385.992091,331.671332 C386.216091,331.509842 386.528591,331.560516 386.690081,331.784515 Z M31.4403807,329.222427 C31.9986681,329.589981 32.5553855,329.959919 33.1105176,330.332228 C33.3398575,330.486039 33.4010858,330.796644 33.2472749,331.025984 C33.093464,331.255324 32.7828588,331.316553 32.5535189,331.162742 C32.00075,330.792017 31.4464027,330.423655 30.8904923,330.057665 C30.6598477,329.905817 30.5959699,329.595746 30.7478174,329.365101 C30.8996649,329.134457 31.2097361,329.070579 31.4403807,329.222427 Z M394.926718,326.134738 C395.078525,326.36541 395.014593,326.675469 394.783921,326.827276 C394.228435,327.192846 393.674509,327.560785 393.122158,327.931082 C392.89279,328.084851 392.582196,328.023565 392.428427,327.794197 C392.274659,327.564829 392.335944,327.254235 392.565312,327.100466 C393.120025,326.728586 393.676319,326.359074 394.23418,325.991941 C394.464852,325.840134 394.774912,325.904067 394.926718,326.134738 Z M23.0002071,323.919168 C23.5733793,324.262545 24.1450786,324.60837 24.7152898,324.956633 C24.9509539,325.100567 25.0253156,325.408292 24.8813814,325.643956 C24.7374472,325.87962 24.429722,325.953982 24.194058,325.810048 C23.6262785,325.463271 23.0570176,325.118921 22.4862903,324.777008 C22.2494043,324.635094 22.1724145,324.328016 22.3143287,324.09113 C22.4562429,323.854244 22.7633211,323.777254 23.0002071,323.919168 Z M403.419398,320.827548 C403.561202,321.064501 403.484069,321.371543 403.247116,321.513346 C402.677339,321.854328 402.109022,322.197739 401.542179,322.543568 C401.306446,322.687388 400.998757,322.612878 400.854936,322.377144 C400.711116,322.141411 400.785626,321.833722 401.02136,321.689901 C401.59063,321.342591 402.161382,320.997709 402.7336,320.655267 C402.970552,320.513463 403.277594,320.590596 403.419398,320.827548 Z M14.2911944,318.951851 C14.8784674,319.270343 15.4643652,319.591343 16.0488724,319.914844 C16.2904791,320.048563 16.3779392,320.352825 16.24422,320.594431 C16.1105007,320.836038 15.806239,320.923498 15.5646323,320.789779 C14.9826226,320.467661 14.3992286,320.148032 13.8144654,319.830901 C13.5717224,319.699256 13.4816597,319.395755 13.6133047,319.153012 C13.7449498,318.910269 14.0484513,318.820206 14.2911944,318.951851 Z M412.124905,315.892323 C412.256434,316.135129 412.166226,316.438588 411.92342,316.570117 C411.339632,316.886357 410.757206,317.205087 410.176159,317.526298 C409.934486,317.659897 409.630268,317.572287 409.496668,317.330614 C409.363068,317.088941 409.450679,316.784723 409.692351,316.651123 C410.275892,316.328534 410.860817,316.008436 411.447111,315.690838 C411.689917,315.559309 411.993376,315.649517 412.124905,315.892323 Z M3.26659808,308.92427 C5.35934457,309.920669 6.32922421,312.32333 5.58374713,314.462811 L5.38018543,314.363589 C5.98061478,314.656632 6.57976631,314.952242 7.17762478,315.25041 C7.42473983,315.373653 7.52515821,315.673887 7.40191551,315.921002 C7.27867281,316.168117 6.97843853,316.268535 6.73132348,316.145293 C6.20578604,315.883193 5.67924534,315.623079 5.15171182,315.364956 C3.95968808,317.287101 1.48734692,318.045178 -0.602338847,317.050236 C-2.84626246,315.981859 -3.79923093,313.296708 -2.73085349,311.052785 C-1.66247606,308.808861 1.02267447,307.855893 3.26659808,308.92427 Z M-1.82796836,311.482667 C-2.65892858,313.22794 -1.91773089,315.316391 -0.172456966,316.147351 C1.57281695,316.978311 3.66126737,316.237114 4.49222759,314.49184 C5.32318782,312.746566 4.58199012,310.658115 2.8367162,309.827155 C1.09144228,308.996195 -0.997008134,309.737393 -1.82796836,311.482667 Z M428.223301,307.910399 C429.293233,310.153582 428.342124,312.839392 426.098941,313.909323 C424.009945,314.905712 421.537079,314.149348 420.342879,312.228973 L420.796378,312.006762 C420.197153,312.29887 419.599204,312.593544 419.002546,312.890777 C418.755376,313.013908 418.455187,312.913354 418.332056,312.666183 C418.208924,312.419013 418.309478,312.118824 418.556649,311.995693 C419.007727,311.770982 419.45954,311.547728 419.912081,311.325933 C419.163891,309.187751 420.13209,306.783997 422.224377,305.786038 C424.46756,304.716107 427.15337,305.667216 428.223301,307.910399 Z M422.654884,306.688626 C420.955473,307.499194 420.209515,309.502159 420.94097,311.217927 C420.975974,311.251522 421.00439,311.292402 421.026728,311.338227 C421.050491,311.386973 421.06561,311.43769 421.072683,311.48864 L421.002604,311.354456 C421.834773,313.099154 423.923736,313.838905 425.668434,313.006736 C427.413132,312.174567 428.152883,310.085604 427.320714,308.340906 C426.488546,306.596208 424.399582,305.856457 422.654884,306.688626 Z M426.452168,108.757993 C428.678298,109.862966 429.587176,112.56336 428.482203,114.78949 C427.377229,117.015621 424.676836,117.924498 422.450705,116.819525 C420.369221,115.786349 419.43937,113.358348 420.230594,111.227407 C420.190513,111.219904 420.150033,111.20559 420.110947,111.185641 C419.515847,110.881912 418.922067,110.575639 418.32962,110.266832 C418.084746,110.139194 417.989708,109.837214 418.117346,109.59234 C418.244984,109.347466 418.546964,109.252428 418.791838,109.380066 C419.38175,109.687552 419.972991,109.992514 420.565544,110.294944 C420.601702,110.313398 420.634654,110.335648 420.664163,110.36096 C421.883058,108.449818 424.374224,107.726575 426.452168,108.757993 Z M421.316396,111.232635 C420.456973,112.96407 421.163877,115.064376 422.895312,115.923799 C424.626747,116.783223 426.727053,116.076318 427.586477,114.344883 C428.4459,112.613448 427.738996,110.513142 426.007561,109.653719 C424.276126,108.794295 422.17582,109.5012 421.316396,111.232635 Z M5.82622018,105.160823 L5.3781873,105.38777 C5.97351802,105.088898 6.5675478,104.787479 7.16026136,104.48352 C7.40597713,104.35751 7.70731993,104.454552 7.83332933,104.700267 C7.95933873,104.945983 7.86229754,105.247326 7.61658177,105.373335 C7.16781105,105.603476 6.71828889,105.832168 6.26802184,106.059407 C7.0410034,108.188905 6.1009569,110.60365 4.02056331,111.625951 C1.79003823,112.722027 -0.906704318,111.802374 -2.00277976,109.571849 C-3.0988552,107.341323 -2.17920206,104.644581 0.0513230258,103.548506 C2.12829747,102.527885 4.60950943,103.255017 5.82622018,105.160823 Z M0.492349724,104.445999 C-1.24250312,105.298503 -1.95778889,107.395969 -1.10528577,109.130822 C-0.252782654,110.865675 1.84468377,111.58096 3.57953661,110.728457 C5.27208403,109.896743 5.9941836,107.880043 5.23674956,106.171175 C5.20371205,106.139781 5.17705754,106.10156 5.15566721,106.058952 C5.13288202,106.013565 5.11765677,105.966362 5.10951649,105.918775 L5.17717211,106.043635 C4.32466899,104.308782 2.22720257,103.593496 0.492349724,104.445999 Z M410.040425,104.577262 C410.616535,104.90968 411.19407,105.239635 411.773014,105.567117 C412.013368,105.703075 412.097998,106.008135 411.962041,106.24849 C411.826084,106.488844 411.521023,106.573474 411.280668,106.437517 C410.699241,106.10863 410.11923,105.77726 409.540649,105.443417 C409.301467,105.305408 409.21945,104.999634 409.357459,104.760452 C409.495469,104.52127 409.801242,104.439253 410.040425,104.577262 Z M16.6192284,99.9299191 C16.7556426,100.170014 16.6715925,100.475236 16.4314971,100.61165 C15.851129,100.941396 15.2693474,101.268662 14.6861674,101.593439 C14.4449141,101.727795 14.1404228,101.641137 14.0060671,101.399884 C13.8717115,101.158631 13.9583691,100.854139 14.1996224,100.719784 C14.7803113,100.396394 15.3596081,100.070525 15.9374976,99.7421877 C16.1775929,99.6057735 16.4828142,99.6898237 16.6192284,99.9299191 Z M401.497966,99.4014806 C402.05926,99.7581906 402.622075,100.112503 403.186395,100.464408 C403.420712,100.610525 403.492211,100.918928 403.346094,101.153245 C403.199976,101.387561 402.891574,101.459061 402.657257,101.312943 C402.090521,100.959533 401.525298,100.603703 400.961602,100.245467 C400.728541,100.097354 400.659678,99.7883518 400.807791,99.5552914 C400.955904,99.322231 401.264906,99.2533676 401.497966,99.4014806 Z M25.1956062,94.7865638 C25.3421588,95.0206086 25.2712323,95.3291437 25.0371875,95.4756962 C24.4714088,95.8299716 23.9041195,96.1818314 23.3353348,96.531265 C23.1000474,96.6758142 22.792129,96.6022562 22.6475799,96.3669688 C22.5030308,96.1316814 22.5765887,95.8237631 22.8118761,95.679214 C23.3782358,95.3312701 23.9431068,94.9809102 24.5064738,94.628145 C24.7405186,94.4815925 25.0490537,94.552519 25.1956062,94.7865638 Z M393.237689,93.9024764 C393.783401,94.2827104 394.330728,94.6606155 394.879657,95.0361802 C395.107562,95.1921082 395.165912,95.5032671 395.009984,95.7311728 C394.854056,95.9590786 394.542897,96.0174281 394.314991,95.8615 C393.763717,95.4843306 393.214051,95.1048109 392.666008,94.7229526 C392.43944,94.5650873 392.383745,94.2534424 392.54161,94.0268741 C392.699476,93.8003059 393.011121,93.7446111 393.237689,93.9024764 Z M33.5567812,89.2732193 C33.7132005,89.5007882 33.6555224,89.8120722 33.4279534,89.9684915 C32.8781639,90.346389 32.3267695,90.7219428 31.7737855,91.0951416 C31.5448927,91.2496171 31.2341113,91.18929 31.0796357,90.9603972 C30.9251602,90.7315044 30.9854873,90.4207229 31.2143801,90.2662474 C31.7650108,89.8946368 32.3140587,89.5206811 32.861509,89.1443916 C33.0890779,88.9879723 33.4003618,89.0456504 33.5567812,89.2732193 Z M385.162833,88.0163923 C385.691686,88.4194376 386.222248,88.820229 386.754505,89.2187545 C386.975552,89.3842626 387.020575,89.6976272 386.855067,89.918674 C386.689559,90.1397208 386.376194,90.1847438 386.155147,90.0192357 C385.62062,89.6190101 385.087794,89.216509 384.556686,88.8117444 C384.337055,88.6443613 384.2947,88.3306249 384.462083,88.1109945 C384.629466,87.8913641 384.943203,87.8490092 385.162833,88.0163923 Z M41.6606386,83.4187941 C41.8266063,83.639496 41.7822355,83.9529537 41.5615337,84.1189214 C41.0267935,84.5210458 40.4903442,84.9208866 39.9522007,85.3184315 C39.7300916,85.4825111 39.4170237,85.4354688 39.2529441,85.2133596 C39.0888644,84.9912504 39.1359067,84.6781826 39.3580159,84.5141029 C39.8938728,84.1182472 40.4280429,83.7201053 40.9605113,83.3196892 C41.1812131,83.1537215 41.4946708,83.1980922 41.6606386,83.4187941 Z M377.347331,81.7925607 C377.859134,82.2182503 378.372744,82.6417585 378.888145,83.0630727 C379.101944,83.2378426 379.133584,83.5528401 378.958814,83.7666393 C378.784044,83.9804384 378.469046,84.0120779 378.255247,83.8373079 C377.73765,83.4141986 377.221852,82.9888859 376.707868,82.5613826 C376.495564,82.3847998 376.466606,82.0695445 376.643188,81.8572402 C376.819771,81.6449359 377.135026,81.6159779 377.347331,81.7925607 Z M49.5127169,77.2210271 C49.6879249,77.4344674 49.6569316,77.7495291 49.4434913,77.9247371 C48.9271451,78.3485933 48.4090017,78.7702501 47.8890759,79.189695 C47.6741533,79.3630816 47.3593666,79.32941 47.18598,79.1144875 C47.0125934,78.8995649 47.046265,78.5847782 47.2611875,78.4113916 C47.778907,77.9937267 48.2948517,77.5738591 48.8090069,77.1518014 C49.0224472,76.9765934 49.3375089,77.0075868 49.5127169,77.2210271 Z M369.802313,75.2404397 C370.29559,75.6875623 370.790763,76.1325846 371.28782,76.5754933 C371.493989,76.7592026 371.512195,77.0752611 371.328486,77.2814297 C371.144777,77.4875984 370.828718,77.5058054 370.62255,77.3220961 C370.123377,76.8773018 369.626095,76.4303848 369.130719,75.9813586 C368.92612,75.7959029 368.910601,75.479701 369.096056,75.2751019 C369.281512,75.0705028 369.597714,75.054984 369.802313,75.2404397 Z M57.1050658,70.6851533 C57.2892007,70.8909419 57.2716468,71.2070373 57.0658582,71.3911722 C56.5674887,71.8371017 56.0672265,72.2809084 55.5650861,72.722579 C55.3577387,72.9049568 55.041804,72.8847149 54.8594262,72.6773675 C54.6770484,72.4700201 54.6972902,72.1540854 54.9046377,71.9717076 C55.404649,71.5319096 55.9027902,71.0899846 56.3990468,70.6459457 C56.6048355,70.4618108 56.9209309,70.4793646 57.1050658,70.6851533 Z M362.545565,68.3760549 C363.018913,68.84327 363.494241,69.3084735 363.971538,69.7716515 C364.169709,69.9639606 364.174461,70.2805074 363.982152,70.4786786 C363.789843,70.6768497 363.473296,70.6816018 363.275125,70.4892927 C362.795797,70.0241434 362.318445,69.5569601 361.843084,69.0877565 C361.646553,68.8937715 361.644489,68.5771958 361.838474,68.3806648 C362.032459,68.1841338 362.349034,68.1820699 362.545565,68.3760549 Z M64.3806028,63.8632611 C64.5732883,64.0610663 64.569138,64.3776216 64.3713328,64.5703071 C63.8926085,65.0366408 63.4119053,65.5009386 62.9292372,65.9631866 C62.7298019,66.1541845 62.4132933,66.1473446 62.2222955,65.9479093 C62.0312976,65.748474 62.0381375,65.4319654 62.2375728,65.2409676 C62.7181953,64.7806785 63.1968613,64.3183485 63.6735568,63.8539911 C63.871362,63.6613055 64.1879173,63.6654559 64.3806028,63.8632611 Z M355.58749,61.2098076 C356.040549,61.6967157 356.495675,62.1816994 356.952855,62.6647446 C357.142673,62.8653025 357.133968,63.1817652 356.93341,63.371584 C356.732852,63.5614027 356.416389,63.5526969 356.22657,63.352139 C355.767445,62.8670378 355.310381,62.3799898 354.855394,61.8910092 C354.667285,61.6888465 354.678678,61.3724691 354.880841,61.1843605 C355.083004,60.9962518 355.399381,61.0076449 355.58749,61.2098076 Z M71.3834511,56.7151675 C71.584367,56.9046072 71.5936704,57.221053 71.4042307,57.4219689 C70.9462941,57.9076475 70.486297,58.3913819 70.0242531,58.8731582 C69.833115,59.0724591 69.5166017,59.0790764 69.3173008,58.8879384 C69.1179999,58.6968003 69.1113825,58.380287 69.3025206,58.1809861 C69.7626063,57.7012516 70.2206539,57.2195673 70.6766497,56.7359472 C70.8660894,56.5350312 71.1825351,56.5257279 71.3834511,56.7151675 Z M348.962575,53.7802982 C349.394668,54.2860512 349.828911,54.7899687 350.265291,55.2920363 C350.446442,55.5004561 350.424337,55.8162659 350.215917,55.9974172 C350.007497,56.1785685 349.691687,56.1564631 349.510536,55.9480433 C349.072298,55.4438376 348.636206,54.937774 348.202273,54.4298669 C348.022899,54.2199151 348.047688,53.9043046 348.25764,53.7249311 C348.467591,53.5455577 348.783202,53.5703464 348.962575,53.7802982 Z M78.0810383,49.2703602 C78.28983,49.4510828 78.3125844,49.7668465 78.1318618,49.9756381 C77.6942615,50.4812045 77.2545105,50.9849102 76.8126218,51.4867408 C76.6301297,51.6939877 76.3141839,51.7140555 76.106937,51.5315635 C75.8996901,51.3490715 75.8796223,51.0331257 76.0621143,50.8258788 C76.5021293,50.3261761 76.9400157,49.8246062 77.3757604,49.3211836 C77.556483,49.112392 77.8722467,49.0896376 78.0810383,49.2703602 Z M342.637564,46.0498612 C343.047579,46.5733323 343.459822,47.0950614 343.874279,47.6150335 C344.046398,47.8309722 344.010876,48.1455554 343.794937,48.3176749 C343.578999,48.4897944 343.264415,48.4542719 343.092296,48.2383333 C342.676072,47.7161446 342.262072,47.1921914 341.850309,46.6664885 C341.680032,46.449094 341.718228,46.1348242 341.935623,45.9645472 C342.153017,45.7942703 342.467287,45.8324667 342.637564,46.0498612 Z M84.4561304,41.5468791 C84.6724258,41.71855 84.7086011,42.0330589 84.5369302,42.2493543 C84.1214813,42.7727957 83.7038043,43.2944707 83.2839114,43.8143646 C83.1104063,44.0291914 82.795601,44.0626893 82.5807742,43.8891842 C82.3659473,43.715679 82.3324494,43.4008737 82.5059546,43.1860469 C82.9240654,42.6683595 83.3399697,42.1488986 83.7536552,41.6276789 C83.9253261,41.4113835 84.239835,41.3752082 84.4561304,41.5468791 Z M336.647177,38.0567735 C337.034161,38.5967429 337.423443,39.135067 337.815012,39.6717307 C337.977775,39.8948061 337.928883,40.2075904 337.705807,40.3703539 C337.482732,40.5331175 337.169948,40.4842251 337.007184,40.2611497 C336.613944,39.7221951 336.223,39.181573 335.834364,38.6392983 C335.673504,38.4148462 335.725056,38.1024892 335.949508,37.9416294 C336.17396,37.7807697 336.486317,37.8323214 336.647177,38.0567735 Z M90.4962647,33.5591375 C90.7196796,33.7214348 90.7692253,34.0341162 90.6069281,34.2575311 C90.2143566,34.7979368 89.8194829,35.3366717 89.422319,35.8737209 C89.2581251,36.0957456 88.9450331,36.1426267 88.7230084,35.9784328 C88.5009836,35.8142389 88.4541025,35.5011469 88.6182964,35.2791222 C89.0137725,34.7443552 89.4069681,34.2079098 89.7978711,33.6698009 C89.9601683,33.446386 90.2728498,33.3968403 90.4962647,33.5591375 Z M331.011007,29.8276898 C331.374709,30.3837774 331.74078,30.9383139 332.10921,31.491284 C332.262324,31.7210899 332.200153,32.0315077 331.970347,32.1846216 C331.740541,32.3377355 331.430123,32.2755644 331.277009,32.0457585 C330.907004,31.4904241 330.539367,30.9335164 330.17411,30.3750506 C330.022961,30.143948 330.087776,29.8340714 330.318878,29.6829219 C330.549981,29.5317723 330.859858,29.5965871 331.011007,29.8276898 Z M96.1925909,25.317456 C96.422732,25.4700656 96.4855837,25.7803463 96.3329741,26.0104874 C95.9637982,26.5672189 95.5922476,27.1223748 95.2183337,27.6759399 C95.0637665,27.9047708 94.7529609,27.9649734 94.52413,27.8104061 C94.2952991,27.6558388 94.2350965,27.3450332 94.3896638,27.1162023 C94.7619862,26.5649934 95.1319551,26.0122006 95.4995595,25.4578392 C95.6521691,25.2276981 95.9624498,25.1648464 96.1925909,25.317456 Z M325.722142,21.3509514 C326.062471,21.9233259 326.405248,22.4942388 326.75046,23.063675 C326.893615,23.2998131 326.818238,23.6072911 326.5821,23.7504464 C326.345962,23.8936016 326.038484,23.8182242 325.895329,23.5820862 C325.548637,23.0102107 325.204393,22.436852 324.862605,21.8620252 C324.721476,21.6246707 324.799482,21.317849 325.036837,21.1767199 C325.274191,21.0355908 325.581013,21.1135969 325.722142,21.3509514 Z M101.493131,16.903685 C101.729544,17.046386 101.805512,17.3537185 101.662811,17.5901313 C101.317572,18.1620895 100.96989,18.7325677 100.619777,19.3015506 C100.475061,19.5367352 100.16709,19.6100741 99.9319058,19.4653576 C99.6967213,19.3206412 99.6233824,19.0126706 99.7680988,18.7774861 C100.116719,18.2109294 100.462918,17.642884 100.806685,17.0733651 C100.949386,16.8369523 101.256718,16.7609839 101.493131,16.903685 Z M320.804111,12.6614989 C321.119276,13.2472744 321.436943,13.8316885 321.757104,14.4147259 C321.89002,14.6567756 321.801549,14.9607451 321.559499,15.0936607 C321.31745,15.2265764 321.01348,15.1381058 320.880565,14.8960561 C320.55903,14.3105163 320.239999,13.7235937 319.923481,13.1353036 C319.792644,12.8921244 319.883715,12.5889239 320.126894,12.4580863 C320.370073,12.3272487 320.673274,12.4183196 320.804111,12.6614989 Z M106.45794,8.22326967 C106.70024,8.35572754 106.789285,8.65952921 106.656827,8.90182969 C106.336362,9.48804444 106.013393,10.0728763 105.687929,10.6563099 C105.553401,10.8974673 105.248848,10.9839074 105.00769,10.8493795 C104.766533,10.7148516 104.680093,10.4102985 104.814621,10.1691412 C105.138695,9.58820016 105.460284,9.00586711 105.779379,8.42215732 C105.911837,8.17985684 106.215639,8.0908118 106.45794,8.22326967 Z M318.183997,-1.52093858 C319.174428,0.57088891 318.411019,3.04158877 316.487249,4.23031086 L316.266084,3.7756591 C316.556479,4.37570664 316.849444,4.9744844 317.14497,5.57197711 C317.267397,5.81949758 317.165988,6.11939879 316.918467,6.2418252 C316.670947,6.36425161 316.371046,6.26284283 316.248619,6.01532235 C316.025282,5.56378074 315.803401,5.11150821 315.58298,4.65851131 C313.442146,5.40041006 311.041584,4.42534894 310.049702,2.33045759 C308.986169,0.0842341818 309.944928,-2.59885407 312.191151,-3.66238776 C314.437375,-4.72592144 317.120463,-3.76716199 318.183997,-1.52093858 Z M112.746396,-4.01823439 C114.965605,-2.89942593 115.857657,-0.19342766 114.738848,2.02578192 C113.62004,4.24499149 110.914041,5.13704285 108.694832,4.01823439 C106.475622,2.89942593 105.583571,0.19342766 106.702379,-2.02578192 C107.821188,-4.24499149 110.527186,-5.13704285 112.746396,-4.01823439 Z M312.619084,-2.75857726 C310.872022,-1.93138439 310.12632,0.155462032 310.953513,1.90252468 C311.758764,3.60324615 313.75773,4.35502482 315.474904,3.6306113 C315.509614,3.59512118 315.551341,3.56608562 315.598209,3.54340406 C315.648307,3.51915891 315.700455,3.50402448 315.752776,3.49734825 L315.614615,3.56809627 C317.361677,2.7409034 318.107379,0.654056982 317.280186,-1.09300567 C316.452993,-2.84006832 314.366147,-3.58577012 312.619084,-2.75857726 Z M107.59532,-1.57560816 C106.725136,0.150443735 107.418954,2.25510906 109.145006,3.12529342 C110.871058,3.99547777 112.975723,3.30166005 113.845907,1.57560816 C114.716092,-0.150443735 114.022274,-2.25510906 112.296222,-3.12529342 C110.57017,-3.99547777 108.465505,-3.30166005 107.59532,-1.57560816 Z" fill="#28DAF6" fill-rule="nonzero"></path>
                </g>
            </g>
        </g>
    </g>
</svg>