<?xml version="1.0" encoding="UTF-8"?>
<svg width="224px" height="109px" viewBox="0 0 224 109" version="1.1" xmlns="http://www.w3.org/2000/svg" xmlns:xlink="http://www.w3.org/1999/xlink">
    <title>底</title>
    <g id="数据大屏" stroke="none" stroke-width="1" fill="none" fill-rule="evenodd">
        <g id="安监主屏2" transform="translate(-88.000000, -355.000000)">
            <g id="下井人员统计" transform="translate(13.000000, 135.000000)">
                <g id="4" transform="translate(10.000000, 220.000000)">
                    <g id="底" transform="translate(65.000000, 0.000000)">
                        <g id="编组-7" transform="translate(18.000000, 0.000000)">
                            <rect id="矩形" fill="#525252" transform="translate(3.000000, 94.000000) scale(1, -1) translate(-3.000000, -94.000000) " x="2" y="93" width="2" height="2"></rect>
                            <rect id="矩形" fill="#525252" transform="translate(16.000000, 94.000000) scale(1, -1) translate(-16.000000, -94.000000) " x="14" y="92" width="4" height="4"></rect>
                            <rect id="矩形" fill="#525252" transform="translate(29.000000, 94.000000) scale(1, -1) translate(-29.000000, -94.000000) " x="28" y="93" width="2" height="2"></rect>
                            <rect id="矩形" fill="#525252" transform="translate(42.000000, 94.000000) scale(1, -1) translate(-42.000000, -94.000000) " x="40" y="92" width="4" height="4"></rect>
                            <rect id="矩形" fill="#525252" transform="translate(55.000000, 94.000000) scale(1, -1) translate(-55.000000, -94.000000) " x="54" y="93" width="2" height="2"></rect>
                            <rect id="矩形" fill="#525252" transform="translate(68.000000, 94.000000) scale(1, -1) translate(-68.000000, -94.000000) " x="66" y="92" width="4" height="4"></rect>
                            <rect id="矩形" fill="#525252" transform="translate(81.000000, 94.000000) scale(1, -1) translate(-81.000000, -94.000000) " x="80" y="93" width="2" height="2"></rect>
                            <rect id="矩形" fill="#525252" transform="translate(94.000000, 94.000000) scale(1, -1) translate(-94.000000, -94.000000) " x="92" y="92" width="4" height="4"></rect>
                            <rect id="矩形" fill="#525252" transform="translate(107.000000, 94.000000) scale(1, -1) translate(-107.000000, -94.000000) " x="106" y="93" width="2" height="2"></rect>
                            <rect id="矩形" fill="#525252" transform="translate(120.000000, 94.000000) scale(1, -1) translate(-120.000000, -94.000000) " x="118" y="92" width="4" height="4"></rect>
                            <rect id="矩形" fill="#525252" transform="translate(133.000000, 94.000000) scale(1, -1) translate(-133.000000, -94.000000) " x="132" y="93" width="2" height="2"></rect>
                            <rect id="矩形" fill="#525252" transform="translate(146.000000, 94.000000) scale(1, -1) translate(-146.000000, -94.000000) " x="144" y="92" width="4" height="4"></rect>
                            <rect id="矩形" fill="#525252" transform="translate(159.000000, 94.000000) scale(1, -1) translate(-159.000000, -94.000000) " x="158" y="93" width="2" height="2"></rect>
                            <rect id="矩形" fill="#525252" transform="translate(172.000000, 94.000000) scale(1, -1) translate(-172.000000, -94.000000) " x="170" y="92" width="4" height="4"></rect>
                            <rect id="矩形" fill="#525252" transform="translate(185.000000, 94.000000) scale(1, -1) translate(-185.000000, -94.000000) " x="184" y="93" width="2" height="2"></rect>
                            <rect id="矩形" fill="#FFFFFF" transform="translate(3.000000, 81.000000) scale(1, -1) translate(-3.000000, -81.000000) " x="2" y="80" width="2" height="2"></rect>
                            <rect id="矩形" fill="#FFFFFF" transform="translate(29.000000, 81.000000) scale(1, -1) translate(-29.000000, -81.000000) " x="28" y="80" width="2" height="2"></rect>
                            <rect id="矩形" fill="#FFFFFF" transform="translate(55.000000, 81.000000) scale(1, -1) translate(-55.000000, -81.000000) " x="54" y="80" width="2" height="2"></rect>
                            <rect id="矩形" fill="#FFFFFF" transform="translate(81.000000, 81.000000) scale(1, -1) translate(-81.000000, -81.000000) " x="80" y="80" width="2" height="2"></rect>
                            <rect id="矩形" fill="#FFFFFF" transform="translate(107.000000, 81.000000) scale(1, -1) translate(-107.000000, -81.000000) " x="106" y="80" width="2" height="2"></rect>
                            <rect id="矩形" fill="#FFFFFF" transform="translate(133.000000, 81.000000) scale(1, -1) translate(-133.000000, -81.000000) " x="132" y="80" width="2" height="2"></rect>
                            <rect id="矩形" fill="#FFFFFF" transform="translate(159.000000, 81.000000) scale(1, -1) translate(-159.000000, -81.000000) " x="158" y="80" width="2" height="2"></rect>
                            <rect id="矩形" fill="#FFFFFF" transform="translate(185.000000, 81.000000) scale(1, -1) translate(-185.000000, -81.000000) " x="184" y="80" width="2" height="2"></rect>
                            <rect id="矩形" fill="#FFFFFF" transform="translate(16.000000, 81.000000) scale(1, -1) translate(-16.000000, -81.000000) " x="15" y="80" width="2" height="2"></rect>
                            <rect id="矩形" fill="#FFFFFF" transform="translate(42.000000, 81.000000) scale(1, -1) translate(-42.000000, -81.000000) " x="41" y="80" width="2" height="2"></rect>
                            <rect id="矩形" fill="#FFFFFF" transform="translate(68.000000, 81.000000) scale(1, -1) translate(-68.000000, -81.000000) " x="67" y="80" width="2" height="2"></rect>
                            <rect id="矩形" fill="#FFFFFF" transform="translate(94.000000, 81.000000) scale(1, -1) translate(-94.000000, -81.000000) " x="93" y="80" width="2" height="2"></rect>
                            <rect id="矩形" fill="#FFFFFF" transform="translate(120.000000, 81.000000) scale(1, -1) translate(-120.000000, -81.000000) " x="119" y="80" width="2" height="2"></rect>
                            <rect id="矩形" fill="#FFFFFF" transform="translate(146.000000, 81.000000) scale(1, -1) translate(-146.000000, -81.000000) " x="145" y="80" width="2" height="2"></rect>
                            <rect id="矩形" fill="#FFFFFF" transform="translate(172.000000, 81.000000) scale(1, -1) translate(-172.000000, -81.000000) " x="171" y="80" width="2" height="2"></rect>
                            <rect id="矩形" fill="#525252" transform="translate(3.000000, 68.000000) scale(1, -1) translate(-3.000000, -68.000000) " x="2" y="67" width="2" height="2"></rect>
                            <rect id="矩形" fill="#525252" transform="translate(16.000000, 68.000000) scale(1, -1) translate(-16.000000, -68.000000) " x="14" y="66" width="4" height="4"></rect>
                            <rect id="矩形" fill="#525252" transform="translate(29.000000, 68.000000) scale(1, -1) translate(-29.000000, -68.000000) " x="28" y="67" width="2" height="2"></rect>
                            <rect id="矩形" fill="#525252" transform="translate(42.000000, 68.000000) scale(1, -1) translate(-42.000000, -68.000000) " x="40" y="66" width="4" height="4"></rect>
                            <rect id="矩形" fill="#525252" transform="translate(55.000000, 68.000000) scale(1, -1) translate(-55.000000, -68.000000) " x="54" y="67" width="2" height="2"></rect>
                            <rect id="矩形" fill="#525252" transform="translate(68.000000, 68.000000) scale(1, -1) translate(-68.000000, -68.000000) " x="66" y="66" width="4" height="4"></rect>
                            <rect id="矩形" fill="#525252" transform="translate(81.000000, 68.000000) scale(1, -1) translate(-81.000000, -68.000000) " x="80" y="67" width="2" height="2"></rect>
                            <rect id="矩形" fill="#525252" transform="translate(94.000000, 68.000000) scale(1, -1) translate(-94.000000, -68.000000) " x="92" y="66" width="4" height="4"></rect>
                            <rect id="矩形" fill="#525252" transform="translate(107.000000, 68.000000) scale(1, -1) translate(-107.000000, -68.000000) " x="106" y="67" width="2" height="2"></rect>
                            <rect id="矩形" fill="#525252" transform="translate(120.000000, 68.000000) scale(1, -1) translate(-120.000000, -68.000000) " x="118" y="66" width="4" height="4"></rect>
                            <rect id="矩形" fill="#525252" transform="translate(133.000000, 68.000000) scale(1, -1) translate(-133.000000, -68.000000) " x="132" y="67" width="2" height="2"></rect>
                            <rect id="矩形" fill="#525252" transform="translate(146.000000, 68.000000) scale(1, -1) translate(-146.000000, -68.000000) " x="144" y="66" width="4" height="4"></rect>
                            <rect id="矩形" fill="#525252" transform="translate(159.000000, 68.000000) scale(1, -1) translate(-159.000000, -68.000000) " x="158" y="67" width="2" height="2"></rect>
                            <rect id="矩形" fill="#525252" transform="translate(172.000000, 68.000000) scale(1, -1) translate(-172.000000, -68.000000) " x="170" y="66" width="4" height="4"></rect>
                            <rect id="矩形" fill="#525252" transform="translate(185.000000, 68.000000) scale(1, -1) translate(-185.000000, -68.000000) " x="184" y="67" width="2" height="2"></rect>
                            <rect id="矩形" fill="#525252" transform="translate(3.000000, 55.000000) scale(1, -1) translate(-3.000000, -55.000000) " x="2" y="54" width="2" height="2"></rect>
                            <rect id="矩形" fill="#525252" transform="translate(29.000000, 55.000000) scale(1, -1) translate(-29.000000, -55.000000) " x="28" y="54" width="2" height="2"></rect>
                            <rect id="矩形" fill="#525252" transform="translate(55.000000, 55.000000) scale(1, -1) translate(-55.000000, -55.000000) " x="54" y="54" width="2" height="2"></rect>
                            <rect id="矩形" fill="#525252" transform="translate(81.000000, 55.000000) scale(1, -1) translate(-81.000000, -55.000000) " x="80" y="54" width="2" height="2"></rect>
                            <rect id="矩形" fill="#525252" transform="translate(107.000000, 55.000000) scale(1, -1) translate(-107.000000, -55.000000) " x="106" y="54" width="2" height="2"></rect>
                            <rect id="矩形" fill="#525252" transform="translate(133.000000, 55.000000) scale(1, -1) translate(-133.000000, -55.000000) " x="132" y="54" width="2" height="2"></rect>
                            <rect id="矩形" fill="#525252" transform="translate(159.000000, 55.000000) scale(1, -1) translate(-159.000000, -55.000000) " x="158" y="54" width="2" height="2"></rect>
                            <rect id="矩形" fill="#525252" transform="translate(185.000000, 55.000000) scale(1, -1) translate(-185.000000, -55.000000) " x="184" y="54" width="2" height="2"></rect>
                            <rect id="矩形" fill="#525252" transform="translate(16.000000, 55.000000) scale(1, -1) translate(-16.000000, -55.000000) " x="15" y="54" width="2" height="2"></rect>
                            <rect id="矩形" fill="#525252" transform="translate(42.000000, 55.000000) scale(1, -1) translate(-42.000000, -55.000000) " x="41" y="54" width="2" height="2"></rect>
                            <rect id="矩形" fill="#525252" transform="translate(68.000000, 55.000000) scale(1, -1) translate(-68.000000, -55.000000) " x="67" y="54" width="2" height="2"></rect>
                            <rect id="矩形" fill="#525252" transform="translate(94.000000, 55.000000) scale(1, -1) translate(-94.000000, -55.000000) " x="93" y="54" width="2" height="2"></rect>
                            <rect id="矩形" fill="#525252" transform="translate(120.000000, 55.000000) scale(1, -1) translate(-120.000000, -55.000000) " x="119" y="54" width="2" height="2"></rect>
                            <rect id="矩形" fill="#525252" transform="translate(146.000000, 55.000000) scale(1, -1) translate(-146.000000, -55.000000) " x="145" y="54" width="2" height="2"></rect>
                            <rect id="矩形" fill="#525252" transform="translate(172.000000, 55.000000) scale(1, -1) translate(-172.000000, -55.000000) " x="171" y="54" width="2" height="2"></rect>
                            <rect id="矩形" fill="#525252" transform="translate(3.000000, 43.000000) scale(1, -1) translate(-3.000000, -43.000000) " x="2" y="42" width="2" height="2"></rect>
                            <rect id="矩形" fill="#525252" transform="translate(16.000000, 43.000000) scale(1, -1) translate(-16.000000, -43.000000) " x="14" y="41" width="4" height="4"></rect>
                            <rect id="矩形" fill="#525252" transform="translate(29.000000, 43.000000) scale(1, -1) translate(-29.000000, -43.000000) " x="28" y="42" width="2" height="2"></rect>
                            <rect id="矩形" fill="#525252" transform="translate(42.000000, 43.000000) scale(1, -1) translate(-42.000000, -43.000000) " x="40" y="41" width="4" height="4"></rect>
                            <rect id="矩形" fill="#525252" transform="translate(55.000000, 43.000000) scale(1, -1) translate(-55.000000, -43.000000) " x="54" y="42" width="2" height="2"></rect>
                            <rect id="矩形" fill="#525252" transform="translate(68.000000, 43.000000) scale(1, -1) translate(-68.000000, -43.000000) " x="66" y="41" width="4" height="4"></rect>
                            <rect id="矩形" fill="#525252" transform="translate(81.000000, 43.000000) scale(1, -1) translate(-81.000000, -43.000000) " x="80" y="42" width="2" height="2"></rect>
                            <rect id="矩形" fill="#525252" transform="translate(94.000000, 43.000000) scale(1, -1) translate(-94.000000, -43.000000) " x="92" y="41" width="4" height="4"></rect>
                            <rect id="矩形" fill="#525252" transform="translate(107.000000, 43.000000) scale(1, -1) translate(-107.000000, -43.000000) " x="106" y="42" width="2" height="2"></rect>
                            <rect id="矩形" fill="#525252" transform="translate(120.000000, 43.000000) scale(1, -1) translate(-120.000000, -43.000000) " x="118" y="41" width="4" height="4"></rect>
                            <rect id="矩形" fill="#525252" transform="translate(133.000000, 43.000000) scale(1, -1) translate(-133.000000, -43.000000) " x="132" y="42" width="2" height="2"></rect>
                            <rect id="矩形" fill="#525252" transform="translate(146.000000, 43.000000) scale(1, -1) translate(-146.000000, -43.000000) " x="144" y="41" width="4" height="4"></rect>
                            <rect id="矩形" fill="#525252" transform="translate(159.000000, 43.000000) scale(1, -1) translate(-159.000000, -43.000000) " x="158" y="42" width="2" height="2"></rect>
                            <rect id="矩形" fill="#525252" transform="translate(172.000000, 43.000000) scale(1, -1) translate(-172.000000, -43.000000) " x="170" y="41" width="4" height="4"></rect>
                            <rect id="矩形" fill="#525252" transform="translate(185.000000, 43.000000) scale(1, -1) translate(-185.000000, -43.000000) " x="184" y="42" width="2" height="2"></rect>
                            <rect id="矩形" fill="#FFFFFF" transform="translate(3.000000, 30.000000) scale(1, -1) translate(-3.000000, -30.000000) " x="2" y="29" width="2" height="2"></rect>
                            <rect id="矩形" fill="#FFFFFF" transform="translate(29.000000, 30.000000) scale(1, -1) translate(-29.000000, -30.000000) " x="28" y="29" width="2" height="2"></rect>
                            <rect id="矩形" fill="#FFFFFF" transform="translate(55.000000, 30.000000) scale(1, -1) translate(-55.000000, -30.000000) " x="54" y="29" width="2" height="2"></rect>
                            <rect id="矩形" fill="#FFFFFF" transform="translate(81.000000, 30.000000) scale(1, -1) translate(-81.000000, -30.000000) " x="80" y="29" width="2" height="2"></rect>
                            <rect id="矩形" fill="#FFFFFF" transform="translate(107.000000, 30.000000) scale(1, -1) translate(-107.000000, -30.000000) " x="106" y="29" width="2" height="2"></rect>
                            <rect id="矩形" fill="#FFFFFF" transform="translate(133.000000, 30.000000) scale(1, -1) translate(-133.000000, -30.000000) " x="132" y="29" width="2" height="2"></rect>
                            <rect id="矩形" fill="#FFFFFF" transform="translate(159.000000, 30.000000) scale(1, -1) translate(-159.000000, -30.000000) " x="158" y="29" width="2" height="2"></rect>
                            <rect id="矩形" fill="#FFFFFF" transform="translate(185.000000, 30.000000) scale(1, -1) translate(-185.000000, -30.000000) " x="184" y="29" width="2" height="2"></rect>
                            <rect id="矩形" fill="#FFFFFF" transform="translate(16.000000, 30.000000) scale(1, -1) translate(-16.000000, -30.000000) " x="15" y="29" width="2" height="2"></rect>
                            <rect id="矩形" fill="#FFFFFF" transform="translate(42.000000, 30.000000) scale(1, -1) translate(-42.000000, -30.000000) " x="41" y="29" width="2" height="2"></rect>
                            <rect id="矩形" fill="#FFFFFF" transform="translate(68.000000, 30.000000) scale(1, -1) translate(-68.000000, -30.000000) " x="67" y="29" width="2" height="2"></rect>
                            <rect id="矩形" fill="#FFFFFF" transform="translate(94.000000, 30.000000) scale(1, -1) translate(-94.000000, -30.000000) " x="93" y="29" width="2" height="2"></rect>
                            <rect id="矩形" fill="#FFFFFF" transform="translate(120.000000, 30.000000) scale(1, -1) translate(-120.000000, -30.000000) " x="119" y="29" width="2" height="2"></rect>
                            <rect id="矩形" fill="#FFFFFF" transform="translate(146.000000, 30.000000) scale(1, -1) translate(-146.000000, -30.000000) " x="145" y="29" width="2" height="2"></rect>
                            <rect id="矩形" fill="#FFFFFF" transform="translate(172.000000, 30.000000) scale(1, -1) translate(-172.000000, -30.000000) " x="171" y="29" width="2" height="2"></rect>
                            <rect id="矩形" fill="#525252" transform="translate(3.000000, 17.000000) scale(1, -1) translate(-3.000000, -17.000000) " x="2" y="16" width="2" height="2"></rect>
                            <rect id="矩形" fill="#525252" transform="translate(16.000000, 17.000000) scale(1, -1) translate(-16.000000, -17.000000) " x="14" y="15" width="4" height="4"></rect>
                            <rect id="矩形" fill="#525252" transform="translate(29.000000, 17.000000) scale(1, -1) translate(-29.000000, -17.000000) " x="28" y="16" width="2" height="2"></rect>
                            <rect id="矩形" fill="#525252" transform="translate(42.000000, 17.000000) scale(1, -1) translate(-42.000000, -17.000000) " x="40" y="15" width="4" height="4"></rect>
                            <rect id="矩形" fill="#525252" transform="translate(55.000000, 17.000000) scale(1, -1) translate(-55.000000, -17.000000) " x="54" y="16" width="2" height="2"></rect>
                            <rect id="矩形" fill="#525252" transform="translate(68.000000, 17.000000) scale(1, -1) translate(-68.000000, -17.000000) " x="66" y="15" width="4" height="4"></rect>
                            <rect id="矩形" fill="#525252" transform="translate(81.000000, 17.000000) scale(1, -1) translate(-81.000000, -17.000000) " x="80" y="16" width="2" height="2"></rect>
                            <rect id="矩形" fill="#525252" transform="translate(94.000000, 17.000000) scale(1, -1) translate(-94.000000, -17.000000) " x="92" y="15" width="4" height="4"></rect>
                            <rect id="矩形" fill="#525252" transform="translate(107.000000, 17.000000) scale(1, -1) translate(-107.000000, -17.000000) " x="106" y="16" width="2" height="2"></rect>
                            <rect id="矩形" fill="#525252" transform="translate(120.000000, 17.000000) scale(1, -1) translate(-120.000000, -17.000000) " x="118" y="15" width="4" height="4"></rect>
                            <rect id="矩形" fill="#525252" transform="translate(133.000000, 17.000000) scale(1, -1) translate(-133.000000, -17.000000) " x="132" y="16" width="2" height="2"></rect>
                            <rect id="矩形" fill="#525252" transform="translate(146.000000, 17.000000) scale(1, -1) translate(-146.000000, -17.000000) " x="144" y="15" width="4" height="4"></rect>
                            <rect id="矩形" fill="#525252" transform="translate(159.000000, 17.000000) scale(1, -1) translate(-159.000000, -17.000000) " x="158" y="16" width="2" height="2"></rect>
                            <rect id="矩形" fill="#525252" transform="translate(172.000000, 17.000000) scale(1, -1) translate(-172.000000, -17.000000) " x="170" y="15" width="4" height="4"></rect>
                            <rect id="矩形" fill="#525252" transform="translate(185.000000, 17.000000) scale(1, -1) translate(-185.000000, -17.000000) " x="184" y="16" width="2" height="2"></rect>
                            <text id="1" font-family="PingFangSC-Regular, PingFang SC" font-size="6" font-weight="normal" letter-spacing="-0.2" fill="#FFFFFF">
                                <tspan x="0" y="6">31</tspan>
                            </text>
                            <text id="32" font-family="PingFangSC-Regular, PingFang SC" font-size="6" font-weight="normal" letter-spacing="-0.2" fill="#FFFFFF">
                                <tspan x="12" y="6">32</tspan>
                            </text>
                            <text id="33" font-family="PingFangSC-Regular, PingFang SC" font-size="6" font-weight="normal" letter-spacing="-0.2" fill="#FFFFFF">
                                <tspan x="25" y="6">33</tspan>
                            </text>
                            <text id="34" font-family="PingFangSC-Regular, PingFang SC" font-size="6" font-weight="normal" letter-spacing="-0.2" fill="#FFFFFF">
                                <tspan x="38" y="6">34</tspan>
                            </text>
                            <text id="35" font-family="PingFangSC-Regular, PingFang SC" font-size="6" font-weight="normal" letter-spacing="-0.2" fill="#FFFFFF">
                                <tspan x="52" y="6">35</tspan>
                            </text>
                            <text id="36" font-family="PingFangSC-Regular, PingFang SC" font-size="6" font-weight="normal" letter-spacing="-0.2" fill="#FFFFFF">
                                <tspan x="65" y="6">36</tspan>
                            </text>
                            <text id="37" font-family="PingFangSC-Regular, PingFang SC" font-size="6" font-weight="normal" letter-spacing="-0.2" fill="#FFFFFF">
                                <tspan x="78" y="6">37</tspan>
                            </text>
                            <text id="38" font-family="PingFangSC-Regular, PingFang SC" font-size="6" font-weight="normal" letter-spacing="-0.2" fill="#FFFFFF">
                                <tspan x="91" y="6">38</tspan>
                            </text>
                            <text id="39" font-family="PingFangSC-Regular, PingFang SC" font-size="6" font-weight="normal" letter-spacing="-0.2" fill="#FFFFFF">
                                <tspan x="104" y="6">39</tspan>
                            </text>
                            <text id="40" font-family="PingFangSC-Regular, PingFang SC" font-size="6" font-weight="normal" letter-spacing="-0.2" fill="#FFFFFF">
                                <tspan x="117" y="6">40</tspan>
                            </text>
                            <text id="41" font-family="PingFangSC-Regular, PingFang SC" font-size="6" font-weight="normal" letter-spacing="-0.2" fill="#FFFFFF">
                                <tspan x="130" y="6">41</tspan>
                            </text>
                            <text id="42" font-family="PingFangSC-Regular, PingFang SC" font-size="6" font-weight="normal" letter-spacing="-0.2" fill="#FFFFFF">
                                <tspan x="143" y="6">42</tspan>
                            </text>
                            <text id="43" font-family="PingFangSC-Regular, PingFang SC" font-size="6" font-weight="normal" letter-spacing="-0.2" fill="#FFFFFF">
                                <tspan x="156" y="6">43</tspan>
                            </text>
                            <text id="44" font-family="PingFangSC-Regular, PingFang SC" font-size="6" font-weight="normal" letter-spacing="-0.2" fill="#FFFFFF">
                                <tspan x="169" y="6">44</tspan>
                            </text>
                            <text id="45" font-family="PingFangSC-Regular, PingFang SC" font-size="6" font-weight="normal" letter-spacing="-0.2" fill="#FFFFFF">
                                <tspan x="182" y="6">45</tspan>
                            </text>
                        </g>
                        <g id="三角形" transform="translate(162.000000, 18.000000)" fill="#AA0951" fill-rule="nonzero">
                            <g id="编组-6">
                                <path d="M14.5944923,0.713678193 C15.6990554,0.709927738 16.5975211,1.60231273 16.6012716,2.70687587 C16.6024313,3.04841723 16.516106,3.38456537 16.3505225,3.6832859 L10.4443256,14.3383473 C9.90881966,15.3044255 8.69154518,15.6534733 7.72546692,15.1179674 C7.4266855,14.9523502 7.17530563,14.7129626 6.99529288,14.4226269 L0.415271678,3.80996145 C-0.166780584,2.87119154 0.122396206,1.63832158 1.06116612,1.05626932 C1.37570454,0.861250493 1.73818609,0.757330735 2.10827417,0.756074131 L14.5944923,0.713678193 Z M8.75,8.712 C8.002,8.712 7.452,9.24 7.452,9.922 C7.452,10.626 8.002,11.132 8.75,11.132 C9.498,11.132 10.048,10.626 10.048,9.922 C10.048,9.24 9.498,8.712 8.75,8.712 Z M9.96,2.772 L7.551,2.772 L7.617,4.598 L8.068,8.074 L9.443,8.074 L9.894,4.598 L9.96,2.772 Z" id="形状结合"></path>
                            </g>
                        </g>
                        <g id="编组-8" transform="translate(0.000000, 35.000000)">
                            <line x1="167.5" y1="15.5" x2="217.5" y2="15.5" id="直线-3" stroke="#3A3A3A" stroke-linecap="square"></line>
                            <line x1="6.5" y1="15.5" x2="56.5" y2="15.5" id="直线-3" stroke="#3A3A3A" stroke-linecap="square"></line>
                            <polygon id="矩形" fill="#64E1F2" points="56.9716797 14 104.97168 14 106.987671 15.5 104.97168 17 56.9716797 17 55 15.5"></polygon>
                            <polygon id="矩形" fill="#64E1F2" points="118.943359 14 166.943359 14 168.959351 15.5 166.943359 17 118.943359 17 116.97168 15.5"></polygon>
                            <polygon id="矩形" fill="#64E1F2" transform="translate(111.965515, 47.500000) rotate(90.000000) translate(-111.965515, -47.500000) " points="87.9433594 46 135.943359 46 137.959351 47.5 135.943359 49 87.9433594 49 85.9716797 47.5"></polygon>
                            <g id="编组-9" transform="translate(218.000000, 0.000000)" fill="#22A7BD">
                                <rect id="矩形" x="0" y="0" width="3" height="31"></rect>
                                <rect id="矩形" x="0" y="0" width="6" height="1"></rect>
                                <rect id="矩形" x="0" y="30" width="6" height="1"></rect>
                            </g>
                            <g id="编组-9" transform="translate(3.000000, 15.500000) scale(-1, 1) translate(-3.000000, -15.500000) " fill="#22A7BD">
                                <rect id="矩形" x="0" y="0" width="3" height="31"></rect>
                                <rect id="矩形" x="0" y="0" width="6" height="1"></rect>
                                <rect id="矩形" x="0" y="30" width="6" height="1"></rect>
                            </g>
                        </g>
                    </g>
                </g>
            </g>
        </g>
    </g>
</svg>