<?xml version="1.0" encoding="UTF-8"?>
<svg width="277px" height="26px" viewBox="0 0 277 26" version="1.1" xmlns="http://www.w3.org/2000/svg" xmlns:xlink="http://www.w3.org/1999/xlink">
    <title>清空</title>
    <g id="安监平台大屏" stroke="none" stroke-width="1" fill="none" fill-rule="evenodd">
        <g id="实时视频2" transform="translate(-40.000000, -42.000000)" fill-rule="nonzero">
            <g id="搜索" transform="translate(30.000000, 30.000000)">
                <g id="清空" transform="translate(10.000000, 12.000000)">
                    <rect id="矩形" fill="#000000" opacity="0" x="255" y="4" width="22" height="22"></rect>
                    <path d="M265.936018,13.234541 L263.140729,10.439252 C262.87226,10.1707832 262.436943,10.1707832 262.168475,10.439252 L260.953125,11.6546016 L264.234541,14.9360176 L261.439252,17.7313066 C261.170783,17.9997754 261.170783,18.4350918 261.439252,18.703582 L262.654602,19.9189102 L265.936018,16.6374941 L268.731307,19.4327832 C268.999775,19.701252 269.435092,19.701252 269.703582,19.4327832 L270.91891,18.2174336 L267.637494,14.9360176 L270.432783,12.1407285 C270.701252,11.8722598 270.701252,11.4369434 270.432783,11.1684746 L269.217434,9.953125 L265.936018,13.234541 Z M265.9375,23.875 C261.001465,23.875 257,19.8735352 257,14.9375 C257,10.0014648 261.001465,6 265.9375,6 C270.873535,6 274.875,10.0014648 274.875,14.9375 C274.875,19.8735352 270.873535,23.875 265.9375,23.875 Z" id="形状" fill="#62FFCB"></path>
                </g>
            </g>
        </g>
    </g>
</svg>