<?xml version="1.0" encoding="UTF-8"?>
<svg width="30px" height="30px" viewBox="0 0 30 30" version="1.1" xmlns="http://www.w3.org/2000/svg" xmlns:xlink="http://www.w3.org/1999/xlink">
    <title>关  闭</title>
    <g id="安监平台大屏" stroke="none" stroke-width="1" fill="none" fill-rule="evenodd">
        <g id="实时视频2" transform="translate(-1425.000000, -127.000000)" fill-rule="nonzero">
            <g id="下拉框" transform="translate(377.000000, 102.000000)">
                <g id="关--闭" transform="translate(1048.000000, 25.000000)">
                    <rect id="矩形" fill="#FFFFFF" opacity="0" x="0" y="0" width="30" height="30"></rect>
                    <path d="M16.6106129,15.2665043 L25.1039886,6.77312851 C25.5327129,6.34440422 25.5327129,5.6375885 25.1039886,5.20886421 L25.0576401,5.16251564 C24.6289158,4.73379135 23.9221001,4.73379135 23.4933758,5.16251564 L15,13.6674786 L6.50662422,5.16251564 C6.07789993,4.73379135 5.37108421,4.73379135 4.94235992,5.16251564 L4.89601135,5.20886421 C4.45569992,5.6375885 4.45569992,6.34440422 4.89601135,6.77312851 L13.3893871,15.2665043 L4.89601135,23.7598801 C4.46728706,24.1886044 4.46728706,24.8954201 4.89601135,25.3241444 L4.94235992,25.3704929 C5.37108421,25.7992172 6.07789993,25.7992172 6.50662422,25.3704929 L15,16.8771172 L23.4933758,25.3704929 C23.9221001,25.7992172 24.6289158,25.7992172 25.0576401,25.3704929 L25.1039886,25.3241444 C25.5327129,24.8954201 25.5327129,24.1886044 25.1039886,23.7598801 L16.6106129,15.2665043 Z" id="路径" fill="#C4C4C4"></path>
                </g>
            </g>
        </g>
    </g>
</svg>