<?xml version="1.0" encoding="UTF-8"?>
<svg width="1600px" height="799px" viewBox="0 0 1600 799" version="1.1" xmlns="http://www.w3.org/2000/svg" xmlns:xlink="http://www.w3.org/1999/xlink">
    <title>分割线</title>
    <g id="安监平台大屏" stroke="none" stroke-width="1" fill="none" fill-rule="evenodd" opacity="0.5">
        <g id="实时视频2" transform="translate(-240.000000, -181.000000)" fill="#28DAF6">
            <g id="分割线" transform="translate(245.000000, 185.000000)">
                <path d="M796,389 L796,394 L801,394 L801,396 L796,396 L796,401 L794,401 L794,396 L789,396 L789,394 L794,394 L794,389 L796,389 Z" id="形状结合"></path>
                <path d="M1226,389 L1226,394 L1231,394 L1231,396 L1226,396 L1226,401 L1224,401 L1224,396 L1219,396 L1219,394 L1224,394 L1224,389 L1226,389 Z" id="形状结合"></path>
                <path d="M366,389 L366,394 L371,394 L371,396 L366,396 L366,401 L364,401 L364,396 L359,396 L359,394 L364,394 L364,389 L366,389 Z" id="形状结合"></path>
                <path id="直线" d="M4.5,391 L4.5,395 L5.5,395 L5.5,396 L4.5,396 L4.5,400 L-4.5,400 L-4.5,391 L4.5,391 Z M304.5,391 L304.5,400 L295.5,400 L295.5,396 L294.5,396 L294.5,395 L295.5,395 L295.5,391 L304.5,391 Z M3.5,392 L-3.5,392 L-3.5,399 L3.5,399 L3.5,392 Z M296.5,399 L303.5,399 L303.5,392 L296.5,392 L296.5,399 Z M8.5,395 L8.5,396 L6.5,396 L6.5,395 L8.5,395 Z M11.5,395 L11.5,396 L9.5,396 L9.5,395 L11.5,395 Z M14.5,395 L14.5,396 L12.5,396 L12.5,395 L14.5,395 Z M17.5,395 L17.5,396 L15.5,396 L15.5,395 L17.5,395 Z M20.5,395 L20.5,396 L18.5,396 L18.5,395 L20.5,395 Z M23.5,395 L23.5,396 L21.5,396 L21.5,395 L23.5,395 Z M26.5,395 L26.5,396 L24.5,396 L24.5,395 L26.5,395 Z M29.5,395 L29.5,396 L27.5,396 L27.5,395 L29.5,395 Z M32.5,395 L32.5,396 L30.5,396 L30.5,395 L32.5,395 Z M35.5,395 L35.5,396 L33.5,396 L33.5,395 L35.5,395 Z M38.5,395 L38.5,396 L36.5,396 L36.5,395 L38.5,395 Z M41.5,395 L41.5,396 L39.5,396 L39.5,395 L41.5,395 Z M44.5,395 L44.5,396 L42.5,396 L42.5,395 L44.5,395 Z M47.5,395 L47.5,396 L45.5,396 L45.5,395 L47.5,395 Z M50.5,395 L50.5,396 L48.5,396 L48.5,395 L50.5,395 Z M53.5,395 L53.5,396 L51.5,396 L51.5,395 L53.5,395 Z M56.5,395 L56.5,396 L54.5,396 L54.5,395 L56.5,395 Z M59.5,395 L59.5,396 L57.5,396 L57.5,395 L59.5,395 Z M62.5,395 L62.5,396 L60.5,396 L60.5,395 L62.5,395 Z M65.5,395 L65.5,396 L63.5,396 L63.5,395 L65.5,395 Z M68.5,395 L68.5,396 L66.5,396 L66.5,395 L68.5,395 Z M71.5,395 L71.5,396 L69.5,396 L69.5,395 L71.5,395 Z M74.5,395 L74.5,396 L72.5,396 L72.5,395 L74.5,395 Z M77.5,395 L77.5,396 L75.5,396 L75.5,395 L77.5,395 Z M80.5,395 L80.5,396 L78.5,396 L78.5,395 L80.5,395 Z M83.5,395 L83.5,396 L81.5,396 L81.5,395 L83.5,395 Z M86.5,395 L86.5,396 L84.5,396 L84.5,395 L86.5,395 Z M89.5,395 L89.5,396 L87.5,396 L87.5,395 L89.5,395 Z M92.5,395 L92.5,396 L90.5,396 L90.5,395 L92.5,395 Z M95.5,395 L95.5,396 L93.5,396 L93.5,395 L95.5,395 Z M98.5,395 L98.5,396 L96.5,396 L96.5,395 L98.5,395 Z M101.5,395 L101.5,396 L99.5,396 L99.5,395 L101.5,395 Z M104.5,395 L104.5,396 L102.5,396 L102.5,395 L104.5,395 Z M107.5,395 L107.5,396 L105.5,396 L105.5,395 L107.5,395 Z M110.5,395 L110.5,396 L108.5,396 L108.5,395 L110.5,395 Z M113.5,395 L113.5,396 L111.5,396 L111.5,395 L113.5,395 Z M116.5,395 L116.5,396 L114.5,396 L114.5,395 L116.5,395 Z M119.5,395 L119.5,396 L117.5,396 L117.5,395 L119.5,395 Z M122.5,395 L122.5,396 L120.5,396 L120.5,395 L122.5,395 Z M125.5,395 L125.5,396 L123.5,396 L123.5,395 L125.5,395 Z M128.5,395 L128.5,396 L126.5,396 L126.5,395 L128.5,395 Z M131.5,395 L131.5,396 L129.5,396 L129.5,395 L131.5,395 Z M134.5,395 L134.5,396 L132.5,396 L132.5,395 L134.5,395 Z M137.5,395 L137.5,396 L135.5,396 L135.5,395 L137.5,395 Z M140.5,395 L140.5,396 L138.5,396 L138.5,395 L140.5,395 Z M143.5,395 L143.5,396 L141.5,396 L141.5,395 L143.5,395 Z M146.5,395 L146.5,396 L144.5,396 L144.5,395 L146.5,395 Z M149.5,395 L149.5,396 L147.5,396 L147.5,395 L149.5,395 Z M152.5,395 L152.5,396 L150.5,396 L150.5,395 L152.5,395 Z M155.5,395 L155.5,396 L153.5,396 L153.5,395 L155.5,395 Z M158.5,395 L158.5,396 L156.5,396 L156.5,395 L158.5,395 Z M161.5,395 L161.5,396 L159.5,396 L159.5,395 L161.5,395 Z M164.5,395 L164.5,396 L162.5,396 L162.5,395 L164.5,395 Z M167.5,395 L167.5,396 L165.5,396 L165.5,395 L167.5,395 Z M170.5,395 L170.5,396 L168.5,396 L168.5,395 L170.5,395 Z M173.5,395 L173.5,396 L171.5,396 L171.5,395 L173.5,395 Z M176.5,395 L176.5,396 L174.5,396 L174.5,395 L176.5,395 Z M179.5,395 L179.5,396 L177.5,396 L177.5,395 L179.5,395 Z M182.5,395 L182.5,396 L180.5,396 L180.5,395 L182.5,395 Z M185.5,395 L185.5,396 L183.5,396 L183.5,395 L185.5,395 Z M188.5,395 L188.5,396 L186.5,396 L186.5,395 L188.5,395 Z M191.5,395 L191.5,396 L189.5,396 L189.5,395 L191.5,395 Z M194.5,395 L194.5,396 L192.5,396 L192.5,395 L194.5,395 Z M197.5,395 L197.5,396 L195.5,396 L195.5,395 L197.5,395 Z M200.5,395 L200.5,396 L198.5,396 L198.5,395 L200.5,395 Z M203.5,395 L203.5,396 L201.5,396 L201.5,395 L203.5,395 Z M206.5,395 L206.5,396 L204.5,396 L204.5,395 L206.5,395 Z M209.5,395 L209.5,396 L207.5,396 L207.5,395 L209.5,395 Z M212.5,395 L212.5,396 L210.5,396 L210.5,395 L212.5,395 Z M215.5,395 L215.5,396 L213.5,396 L213.5,395 L215.5,395 Z M218.5,395 L218.5,396 L216.5,396 L216.5,395 L218.5,395 Z M221.5,395 L221.5,396 L219.5,396 L219.5,395 L221.5,395 Z M224.5,395 L224.5,396 L222.5,396 L222.5,395 L224.5,395 Z M227.5,395 L227.5,396 L225.5,396 L225.5,395 L227.5,395 Z M230.5,395 L230.5,396 L228.5,396 L228.5,395 L230.5,395 Z M233.5,395 L233.5,396 L231.5,396 L231.5,395 L233.5,395 Z M236.5,395 L236.5,396 L234.5,396 L234.5,395 L236.5,395 Z M239.5,395 L239.5,396 L237.5,396 L237.5,395 L239.5,395 Z M242.5,395 L242.5,396 L240.5,396 L240.5,395 L242.5,395 Z M245.5,395 L245.5,396 L243.5,396 L243.5,395 L245.5,395 Z M248.5,395 L248.5,396 L246.5,396 L246.5,395 L248.5,395 Z M251.5,395 L251.5,396 L249.5,396 L249.5,395 L251.5,395 Z M254.5,395 L254.5,396 L252.5,396 L252.5,395 L254.5,395 Z M257.5,395 L257.5,396 L255.5,396 L255.5,395 L257.5,395 Z M260.5,395 L260.5,396 L258.5,396 L258.5,395 L260.5,395 Z M263.5,395 L263.5,396 L261.5,396 L261.5,395 L263.5,395 Z M266.5,395 L266.5,396 L264.5,396 L264.5,395 L266.5,395 Z M269.5,395 L269.5,396 L267.5,396 L267.5,395 L269.5,395 Z M272.5,395 L272.5,396 L270.5,396 L270.5,395 L272.5,395 Z M275.5,395 L275.5,396 L273.5,396 L273.5,395 L275.5,395 Z M278.5,395 L278.5,396 L276.5,396 L276.5,395 L278.5,395 Z M281.5,395 L281.5,396 L279.5,396 L279.5,395 L281.5,395 Z M284.5,395 L284.5,396 L282.5,396 L282.5,395 L284.5,395 Z M287.5,395 L287.5,396 L285.5,396 L285.5,395 L287.5,395 Z M290.5,395 L290.5,396 L288.5,396 L288.5,395 L290.5,395 Z M293.5,395 L293.5,396 L291.5,396 L291.5,395 L293.5,395 Z" fill-rule="nonzero"></path>
                <path id="直线" d="M434.5,391 L434.5,395 L435.5,395 L435.5,396 L434.5,396 L434.5,400 L425.5,400 L425.5,391 L434.5,391 Z M734.5,391 L734.5,400 L725.5,400 L725.5,396 L724.5,396 L724.5,395 L725.5,395 L725.5,391 L734.5,391 Z M433.5,392 L426.5,392 L426.5,399 L433.5,399 L433.5,392 Z M726.5,399 L733.5,399 L733.5,392 L726.5,392 L726.5,399 Z M438.5,395 L438.5,396 L436.5,396 L436.5,395 L438.5,395 Z M441.5,395 L441.5,396 L439.5,396 L439.5,395 L441.5,395 Z M444.5,395 L444.5,396 L442.5,396 L442.5,395 L444.5,395 Z M447.5,395 L447.5,396 L445.5,396 L445.5,395 L447.5,395 Z M450.5,395 L450.5,396 L448.5,396 L448.5,395 L450.5,395 Z M453.5,395 L453.5,396 L451.5,396 L451.5,395 L453.5,395 Z M456.5,395 L456.5,396 L454.5,396 L454.5,395 L456.5,395 Z M459.5,395 L459.5,396 L457.5,396 L457.5,395 L459.5,395 Z M462.5,395 L462.5,396 L460.5,396 L460.5,395 L462.5,395 Z M465.5,395 L465.5,396 L463.5,396 L463.5,395 L465.5,395 Z M468.5,395 L468.5,396 L466.5,396 L466.5,395 L468.5,395 Z M471.5,395 L471.5,396 L469.5,396 L469.5,395 L471.5,395 Z M474.5,395 L474.5,396 L472.5,396 L472.5,395 L474.5,395 Z M477.5,395 L477.5,396 L475.5,396 L475.5,395 L477.5,395 Z M480.5,395 L480.5,396 L478.5,396 L478.5,395 L480.5,395 Z M483.5,395 L483.5,396 L481.5,396 L481.5,395 L483.5,395 Z M486.5,395 L486.5,396 L484.5,396 L484.5,395 L486.5,395 Z M489.5,395 L489.5,396 L487.5,396 L487.5,395 L489.5,395 Z M492.5,395 L492.5,396 L490.5,396 L490.5,395 L492.5,395 Z M495.5,395 L495.5,396 L493.5,396 L493.5,395 L495.5,395 Z M498.5,395 L498.5,396 L496.5,396 L496.5,395 L498.5,395 Z M501.5,395 L501.5,396 L499.5,396 L499.5,395 L501.5,395 Z M504.5,395 L504.5,396 L502.5,396 L502.5,395 L504.5,395 Z M507.5,395 L507.5,396 L505.5,396 L505.5,395 L507.5,395 Z M510.5,395 L510.5,396 L508.5,396 L508.5,395 L510.5,395 Z M513.5,395 L513.5,396 L511.5,396 L511.5,395 L513.5,395 Z M516.5,395 L516.5,396 L514.5,396 L514.5,395 L516.5,395 Z M519.5,395 L519.5,396 L517.5,396 L517.5,395 L519.5,395 Z M522.5,395 L522.5,396 L520.5,396 L520.5,395 L522.5,395 Z M525.5,395 L525.5,396 L523.5,396 L523.5,395 L525.5,395 Z M528.5,395 L528.5,396 L526.5,396 L526.5,395 L528.5,395 Z M531.5,395 L531.5,396 L529.5,396 L529.5,395 L531.5,395 Z M534.5,395 L534.5,396 L532.5,396 L532.5,395 L534.5,395 Z M537.5,395 L537.5,396 L535.5,396 L535.5,395 L537.5,395 Z M540.5,395 L540.5,396 L538.5,396 L538.5,395 L540.5,395 Z M543.5,395 L543.5,396 L541.5,396 L541.5,395 L543.5,395 Z M546.5,395 L546.5,396 L544.5,396 L544.5,395 L546.5,395 Z M549.5,395 L549.5,396 L547.5,396 L547.5,395 L549.5,395 Z M552.5,395 L552.5,396 L550.5,396 L550.5,395 L552.5,395 Z M555.5,395 L555.5,396 L553.5,396 L553.5,395 L555.5,395 Z M558.5,395 L558.5,396 L556.5,396 L556.5,395 L558.5,395 Z M561.5,395 L561.5,396 L559.5,396 L559.5,395 L561.5,395 Z M564.5,395 L564.5,396 L562.5,396 L562.5,395 L564.5,395 Z M567.5,395 L567.5,396 L565.5,396 L565.5,395 L567.5,395 Z M570.5,395 L570.5,396 L568.5,396 L568.5,395 L570.5,395 Z M573.5,395 L573.5,396 L571.5,396 L571.5,395 L573.5,395 Z M576.5,395 L576.5,396 L574.5,396 L574.5,395 L576.5,395 Z M579.5,395 L579.5,396 L577.5,396 L577.5,395 L579.5,395 Z M582.5,395 L582.5,396 L580.5,396 L580.5,395 L582.5,395 Z M585.5,395 L585.5,396 L583.5,396 L583.5,395 L585.5,395 Z M588.5,395 L588.5,396 L586.5,396 L586.5,395 L588.5,395 Z M591.5,395 L591.5,396 L589.5,396 L589.5,395 L591.5,395 Z M594.5,395 L594.5,396 L592.5,396 L592.5,395 L594.5,395 Z M597.5,395 L597.5,396 L595.5,396 L595.5,395 L597.5,395 Z M600.5,395 L600.5,396 L598.5,396 L598.5,395 L600.5,395 Z M603.5,395 L603.5,396 L601.5,396 L601.5,395 L603.5,395 Z M606.5,395 L606.5,396 L604.5,396 L604.5,395 L606.5,395 Z M609.5,395 L609.5,396 L607.5,396 L607.5,395 L609.5,395 Z M612.5,395 L612.5,396 L610.5,396 L610.5,395 L612.5,395 Z M615.5,395 L615.5,396 L613.5,396 L613.5,395 L615.5,395 Z M618.5,395 L618.5,396 L616.5,396 L616.5,395 L618.5,395 Z M621.5,395 L621.5,396 L619.5,396 L619.5,395 L621.5,395 Z M624.5,395 L624.5,396 L622.5,396 L622.5,395 L624.5,395 Z M627.5,395 L627.5,396 L625.5,396 L625.5,395 L627.5,395 Z M630.5,395 L630.5,396 L628.5,396 L628.5,395 L630.5,395 Z M633.5,395 L633.5,396 L631.5,396 L631.5,395 L633.5,395 Z M636.5,395 L636.5,396 L634.5,396 L634.5,395 L636.5,395 Z M639.5,395 L639.5,396 L637.5,396 L637.5,395 L639.5,395 Z M642.5,395 L642.5,396 L640.5,396 L640.5,395 L642.5,395 Z M645.5,395 L645.5,396 L643.5,396 L643.5,395 L645.5,395 Z M648.5,395 L648.5,396 L646.5,396 L646.5,395 L648.5,395 Z M651.5,395 L651.5,396 L649.5,396 L649.5,395 L651.5,395 Z M654.5,395 L654.5,396 L652.5,396 L652.5,395 L654.5,395 Z M657.5,395 L657.5,396 L655.5,396 L655.5,395 L657.5,395 Z M660.5,395 L660.5,396 L658.5,396 L658.5,395 L660.5,395 Z M663.5,395 L663.5,396 L661.5,396 L661.5,395 L663.5,395 Z M666.5,395 L666.5,396 L664.5,396 L664.5,395 L666.5,395 Z M669.5,395 L669.5,396 L667.5,396 L667.5,395 L669.5,395 Z M672.5,395 L672.5,396 L670.5,396 L670.5,395 L672.5,395 Z M675.5,395 L675.5,396 L673.5,396 L673.5,395 L675.5,395 Z M678.5,395 L678.5,396 L676.5,396 L676.5,395 L678.5,395 Z M681.5,395 L681.5,396 L679.5,396 L679.5,395 L681.5,395 Z M684.5,395 L684.5,396 L682.5,396 L682.5,395 L684.5,395 Z M687.5,395 L687.5,396 L685.5,396 L685.5,395 L687.5,395 Z M690.5,395 L690.5,396 L688.5,396 L688.5,395 L690.5,395 Z M693.5,395 L693.5,396 L691.5,396 L691.5,395 L693.5,395 Z M696.5,395 L696.5,396 L694.5,396 L694.5,395 L696.5,395 Z M699.5,395 L699.5,396 L697.5,396 L697.5,395 L699.5,395 Z M702.5,395 L702.5,396 L700.5,396 L700.5,395 L702.5,395 Z M705.5,395 L705.5,396 L703.5,396 L703.5,395 L705.5,395 Z M708.5,395 L708.5,396 L706.5,396 L706.5,395 L708.5,395 Z M711.5,395 L711.5,396 L709.5,396 L709.5,395 L711.5,395 Z M714.5,395 L714.5,396 L712.5,396 L712.5,395 L714.5,395 Z M717.5,395 L717.5,396 L715.5,396 L715.5,395 L717.5,395 Z M720.5,395 L720.5,396 L718.5,396 L718.5,395 L720.5,395 Z M723.5,395 L723.5,396 L721.5,396 L721.5,395 L723.5,395 Z" fill-rule="nonzero"></path>
                <path id="直线" d="M864.5,391 L864.5,395 L865.5,395 L865.5,396 L864.5,396 L864.5,400 L855.5,400 L855.5,391 L864.5,391 Z M1164.5,391 L1164.5,400 L1155.5,400 L1155.5,396 L1154.5,396 L1154.5,395 L1155.5,395 L1155.5,391 L1164.5,391 Z M863.5,392 L856.5,392 L856.5,399 L863.5,399 L863.5,392 Z M1156.5,399 L1163.5,399 L1163.5,392 L1156.5,392 L1156.5,399 Z M868.5,395 L868.5,396 L866.5,396 L866.5,395 L868.5,395 Z M871.5,395 L871.5,396 L869.5,396 L869.5,395 L871.5,395 Z M874.5,395 L874.5,396 L872.5,396 L872.5,395 L874.5,395 Z M877.5,395 L877.5,396 L875.5,396 L875.5,395 L877.5,395 Z M880.5,395 L880.5,396 L878.5,396 L878.5,395 L880.5,395 Z M883.5,395 L883.5,396 L881.5,396 L881.5,395 L883.5,395 Z M886.5,395 L886.5,396 L884.5,396 L884.5,395 L886.5,395 Z M889.5,395 L889.5,396 L887.5,396 L887.5,395 L889.5,395 Z M892.5,395 L892.5,396 L890.5,396 L890.5,395 L892.5,395 Z M895.5,395 L895.5,396 L893.5,396 L893.5,395 L895.5,395 Z M898.5,395 L898.5,396 L896.5,396 L896.5,395 L898.5,395 Z M901.5,395 L901.5,396 L899.5,396 L899.5,395 L901.5,395 Z M904.5,395 L904.5,396 L902.5,396 L902.5,395 L904.5,395 Z M907.5,395 L907.5,396 L905.5,396 L905.5,395 L907.5,395 Z M910.5,395 L910.5,396 L908.5,396 L908.5,395 L910.5,395 Z M913.5,395 L913.5,396 L911.5,396 L911.5,395 L913.5,395 Z M916.5,395 L916.5,396 L914.5,396 L914.5,395 L916.5,395 Z M919.5,395 L919.5,396 L917.5,396 L917.5,395 L919.5,395 Z M922.5,395 L922.5,396 L920.5,396 L920.5,395 L922.5,395 Z M925.5,395 L925.5,396 L923.5,396 L923.5,395 L925.5,395 Z M928.5,395 L928.5,396 L926.5,396 L926.5,395 L928.5,395 Z M931.5,395 L931.5,396 L929.5,396 L929.5,395 L931.5,395 Z M934.5,395 L934.5,396 L932.5,396 L932.5,395 L934.5,395 Z M937.5,395 L937.5,396 L935.5,396 L935.5,395 L937.5,395 Z M940.5,395 L940.5,396 L938.5,396 L938.5,395 L940.5,395 Z M943.5,395 L943.5,396 L941.5,396 L941.5,395 L943.5,395 Z M946.5,395 L946.5,396 L944.5,396 L944.5,395 L946.5,395 Z M949.5,395 L949.5,396 L947.5,396 L947.5,395 L949.5,395 Z M952.5,395 L952.5,396 L950.5,396 L950.5,395 L952.5,395 Z M955.5,395 L955.5,396 L953.5,396 L953.5,395 L955.5,395 Z M958.5,395 L958.5,396 L956.5,396 L956.5,395 L958.5,395 Z M961.5,395 L961.5,396 L959.5,396 L959.5,395 L961.5,395 Z M964.5,395 L964.5,396 L962.5,396 L962.5,395 L964.5,395 Z M967.5,395 L967.5,396 L965.5,396 L965.5,395 L967.5,395 Z M970.5,395 L970.5,396 L968.5,396 L968.5,395 L970.5,395 Z M973.5,395 L973.5,396 L971.5,396 L971.5,395 L973.5,395 Z M976.5,395 L976.5,396 L974.5,396 L974.5,395 L976.5,395 Z M979.5,395 L979.5,396 L977.5,396 L977.5,395 L979.5,395 Z M982.5,395 L982.5,396 L980.5,396 L980.5,395 L982.5,395 Z M985.5,395 L985.5,396 L983.5,396 L983.5,395 L985.5,395 Z M988.5,395 L988.5,396 L986.5,396 L986.5,395 L988.5,395 Z M991.5,395 L991.5,396 L989.5,396 L989.5,395 L991.5,395 Z M994.5,395 L994.5,396 L992.5,396 L992.5,395 L994.5,395 Z M997.5,395 L997.5,396 L995.5,396 L995.5,395 L997.5,395 Z M1000.5,395 L1000.5,396 L998.5,396 L998.5,395 L1000.5,395 Z M1003.5,395 L1003.5,396 L1001.5,396 L1001.5,395 L1003.5,395 Z M1006.5,395 L1006.5,396 L1004.5,396 L1004.5,395 L1006.5,395 Z M1009.5,395 L1009.5,396 L1007.5,396 L1007.5,395 L1009.5,395 Z M1012.5,395 L1012.5,396 L1010.5,396 L1010.5,395 L1012.5,395 Z M1015.5,395 L1015.5,396 L1013.5,396 L1013.5,395 L1015.5,395 Z M1018.5,395 L1018.5,396 L1016.5,396 L1016.5,395 L1018.5,395 Z M1021.5,395 L1021.5,396 L1019.5,396 L1019.5,395 L1021.5,395 Z M1024.5,395 L1024.5,396 L1022.5,396 L1022.5,395 L1024.5,395 Z M1027.5,395 L1027.5,396 L1025.5,396 L1025.5,395 L1027.5,395 Z M1030.5,395 L1030.5,396 L1028.5,396 L1028.5,395 L1030.5,395 Z M1033.5,395 L1033.5,396 L1031.5,396 L1031.5,395 L1033.5,395 Z M1036.5,395 L1036.5,396 L1034.5,396 L1034.5,395 L1036.5,395 Z M1039.5,395 L1039.5,396 L1037.5,396 L1037.5,395 L1039.5,395 Z M1042.5,395 L1042.5,396 L1040.5,396 L1040.5,395 L1042.5,395 Z M1045.5,395 L1045.5,396 L1043.5,396 L1043.5,395 L1045.5,395 Z M1048.5,395 L1048.5,396 L1046.5,396 L1046.5,395 L1048.5,395 Z M1051.5,395 L1051.5,396 L1049.5,396 L1049.5,395 L1051.5,395 Z M1054.5,395 L1054.5,396 L1052.5,396 L1052.5,395 L1054.5,395 Z M1057.5,395 L1057.5,396 L1055.5,396 L1055.5,395 L1057.5,395 Z M1060.5,395 L1060.5,396 L1058.5,396 L1058.5,395 L1060.5,395 Z M1063.5,395 L1063.5,396 L1061.5,396 L1061.5,395 L1063.5,395 Z M1066.5,395 L1066.5,396 L1064.5,396 L1064.5,395 L1066.5,395 Z M1069.5,395 L1069.5,396 L1067.5,396 L1067.5,395 L1069.5,395 Z M1072.5,395 L1072.5,396 L1070.5,396 L1070.5,395 L1072.5,395 Z M1075.5,395 L1075.5,396 L1073.5,396 L1073.5,395 L1075.5,395 Z M1078.5,395 L1078.5,396 L1076.5,396 L1076.5,395 L1078.5,395 Z M1081.5,395 L1081.5,396 L1079.5,396 L1079.5,395 L1081.5,395 Z M1084.5,395 L1084.5,396 L1082.5,396 L1082.5,395 L1084.5,395 Z M1087.5,395 L1087.5,396 L1085.5,396 L1085.5,395 L1087.5,395 Z M1090.5,395 L1090.5,396 L1088.5,396 L1088.5,395 L1090.5,395 Z M1093.5,395 L1093.5,396 L1091.5,396 L1091.5,395 L1093.5,395 Z M1096.5,395 L1096.5,396 L1094.5,396 L1094.5,395 L1096.5,395 Z M1099.5,395 L1099.5,396 L1097.5,396 L1097.5,395 L1099.5,395 Z M1102.5,395 L1102.5,396 L1100.5,396 L1100.5,395 L1102.5,395 Z M1105.5,395 L1105.5,396 L1103.5,396 L1103.5,395 L1105.5,395 Z M1108.5,395 L1108.5,396 L1106.5,396 L1106.5,395 L1108.5,395 Z M1111.5,395 L1111.5,396 L1109.5,396 L1109.5,395 L1111.5,395 Z M1114.5,395 L1114.5,396 L1112.5,396 L1112.5,395 L1114.5,395 Z M1117.5,395 L1117.5,396 L1115.5,396 L1115.5,395 L1117.5,395 Z M1120.5,395 L1120.5,396 L1118.5,396 L1118.5,395 L1120.5,395 Z M1123.5,395 L1123.5,396 L1121.5,396 L1121.5,395 L1123.5,395 Z M1126.5,395 L1126.5,396 L1124.5,396 L1124.5,395 L1126.5,395 Z M1129.5,395 L1129.5,396 L1127.5,396 L1127.5,395 L1129.5,395 Z M1132.5,395 L1132.5,396 L1130.5,396 L1130.5,395 L1132.5,395 Z M1135.5,395 L1135.5,396 L1133.5,396 L1133.5,395 L1135.5,395 Z M1138.5,395 L1138.5,396 L1136.5,396 L1136.5,395 L1138.5,395 Z M1141.5,395 L1141.5,396 L1139.5,396 L1139.5,395 L1141.5,395 Z M1144.5,395 L1144.5,396 L1142.5,396 L1142.5,395 L1144.5,395 Z M1147.5,395 L1147.5,396 L1145.5,396 L1145.5,395 L1147.5,395 Z M1150.5,395 L1150.5,396 L1148.5,396 L1148.5,395 L1150.5,395 Z M1153.5,395 L1153.5,396 L1151.5,396 L1151.5,395 L1153.5,395 Z" fill-rule="nonzero"></path>
                <path id="直线" d="M1294.5,391 L1294.5,395 L1295.5,395 L1295.5,396 L1294.5,396 L1294.5,400 L1285.5,400 L1285.5,391 L1294.5,391 Z M1594.5,391 L1594.5,400 L1585.5,400 L1585.5,396 L1584.5,396 L1584.5,395 L1585.5,395 L1585.5,391 L1594.5,391 Z M1293.5,392 L1286.5,392 L1286.5,399 L1293.5,399 L1293.5,396 L1293.5,396 L1293.5,395 L1293.5,395 L1293.5,392 Z M1593.5,392 L1586.5,392 L1586.5,399 L1593.5,399 L1593.5,392 Z M1298.5,395 L1298.5,396 L1296.5,396 L1296.5,395 L1298.5,395 Z M1301.5,395 L1301.5,396 L1299.5,396 L1299.5,395 L1301.5,395 Z M1304.5,395 L1304.5,396 L1302.5,396 L1302.5,395 L1304.5,395 Z M1307.5,395 L1307.5,396 L1305.5,396 L1305.5,395 L1307.5,395 Z M1310.5,395 L1310.5,396 L1308.5,396 L1308.5,395 L1310.5,395 Z M1313.5,395 L1313.5,396 L1311.5,396 L1311.5,395 L1313.5,395 Z M1316.5,395 L1316.5,396 L1314.5,396 L1314.5,395 L1316.5,395 Z M1319.5,395 L1319.5,396 L1317.5,396 L1317.5,395 L1319.5,395 Z M1322.5,395 L1322.5,396 L1320.5,396 L1320.5,395 L1322.5,395 Z M1325.5,395 L1325.5,396 L1323.5,396 L1323.5,395 L1325.5,395 Z M1328.5,395 L1328.5,396 L1326.5,396 L1326.5,395 L1328.5,395 Z M1331.5,395 L1331.5,396 L1329.5,396 L1329.5,395 L1331.5,395 Z M1334.5,395 L1334.5,396 L1332.5,396 L1332.5,395 L1334.5,395 Z M1337.5,395 L1337.5,396 L1335.5,396 L1335.5,395 L1337.5,395 Z M1340.5,395 L1340.5,396 L1338.5,396 L1338.5,395 L1340.5,395 Z M1343.5,395 L1343.5,396 L1341.5,396 L1341.5,395 L1343.5,395 Z M1346.5,395 L1346.5,396 L1344.5,396 L1344.5,395 L1346.5,395 Z M1349.5,395 L1349.5,396 L1347.5,396 L1347.5,395 L1349.5,395 Z M1352.5,395 L1352.5,396 L1350.5,396 L1350.5,395 L1352.5,395 Z M1355.5,395 L1355.5,396 L1353.5,396 L1353.5,395 L1355.5,395 Z M1358.5,395 L1358.5,396 L1356.5,396 L1356.5,395 L1358.5,395 Z M1361.5,395 L1361.5,396 L1359.5,396 L1359.5,395 L1361.5,395 Z M1364.5,395 L1364.5,396 L1362.5,396 L1362.5,395 L1364.5,395 Z M1367.5,395 L1367.5,396 L1365.5,396 L1365.5,395 L1367.5,395 Z M1370.5,395 L1370.5,396 L1368.5,396 L1368.5,395 L1370.5,395 Z M1373.5,395 L1373.5,396 L1371.5,396 L1371.5,395 L1373.5,395 Z M1376.5,395 L1376.5,396 L1374.5,396 L1374.5,395 L1376.5,395 Z M1379.5,395 L1379.5,396 L1377.5,396 L1377.5,395 L1379.5,395 Z M1382.5,395 L1382.5,396 L1380.5,396 L1380.5,395 L1382.5,395 Z M1385.5,395 L1385.5,396 L1383.5,396 L1383.5,395 L1385.5,395 Z M1388.5,395 L1388.5,396 L1386.5,396 L1386.5,395 L1388.5,395 Z M1391.5,395 L1391.5,396 L1389.5,396 L1389.5,395 L1391.5,395 Z M1394.5,395 L1394.5,396 L1392.5,396 L1392.5,395 L1394.5,395 Z M1397.5,395 L1397.5,396 L1395.5,396 L1395.5,395 L1397.5,395 Z M1400.5,395 L1400.5,396 L1398.5,396 L1398.5,395 L1400.5,395 Z M1403.5,395 L1403.5,396 L1401.5,396 L1401.5,395 L1403.5,395 Z M1406.5,395 L1406.5,396 L1404.5,396 L1404.5,395 L1406.5,395 Z M1409.5,395 L1409.5,396 L1407.5,396 L1407.5,395 L1409.5,395 Z M1412.5,395 L1412.5,396 L1410.5,396 L1410.5,395 L1412.5,395 Z M1415.5,395 L1415.5,396 L1413.5,396 L1413.5,395 L1415.5,395 Z M1418.5,395 L1418.5,396 L1416.5,396 L1416.5,395 L1418.5,395 Z M1421.5,395 L1421.5,396 L1419.5,396 L1419.5,395 L1421.5,395 Z M1424.5,395 L1424.5,396 L1422.5,396 L1422.5,395 L1424.5,395 Z M1427.5,395 L1427.5,396 L1425.5,396 L1425.5,395 L1427.5,395 Z M1430.5,395 L1430.5,396 L1428.5,396 L1428.5,395 L1430.5,395 Z M1433.5,395 L1433.5,396 L1431.5,396 L1431.5,395 L1433.5,395 Z M1436.5,395 L1436.5,396 L1434.5,396 L1434.5,395 L1436.5,395 Z M1439.5,395 L1439.5,396 L1437.5,396 L1437.5,395 L1439.5,395 Z M1442.5,395 L1442.5,396 L1440.5,396 L1440.5,395 L1442.5,395 Z M1445.5,395 L1445.5,396 L1443.5,396 L1443.5,395 L1445.5,395 Z M1448.5,395 L1448.5,396 L1446.5,396 L1446.5,395 L1448.5,395 Z M1451.5,395 L1451.5,396 L1449.5,396 L1449.5,395 L1451.5,395 Z M1454.5,395 L1454.5,396 L1452.5,396 L1452.5,395 L1454.5,395 Z M1457.5,395 L1457.5,396 L1455.5,396 L1455.5,395 L1457.5,395 Z M1460.5,395 L1460.5,396 L1458.5,396 L1458.5,395 L1460.5,395 Z M1463.5,395 L1463.5,396 L1461.5,396 L1461.5,395 L1463.5,395 Z M1466.5,395 L1466.5,396 L1464.5,396 L1464.5,395 L1466.5,395 Z M1469.5,395 L1469.5,396 L1467.5,396 L1467.5,395 L1469.5,395 Z M1472.5,395 L1472.5,396 L1470.5,396 L1470.5,395 L1472.5,395 Z M1475.5,395 L1475.5,396 L1473.5,396 L1473.5,395 L1475.5,395 Z M1478.5,395 L1478.5,396 L1476.5,396 L1476.5,395 L1478.5,395 Z M1481.5,395 L1481.5,396 L1479.5,396 L1479.5,395 L1481.5,395 Z M1484.5,395 L1484.5,396 L1482.5,396 L1482.5,395 L1484.5,395 Z M1487.5,395 L1487.5,396 L1485.5,396 L1485.5,395 L1487.5,395 Z M1490.5,395 L1490.5,396 L1488.5,396 L1488.5,395 L1490.5,395 Z M1493.5,395 L1493.5,396 L1491.5,396 L1491.5,395 L1493.5,395 Z M1496.5,395 L1496.5,396 L1494.5,396 L1494.5,395 L1496.5,395 Z M1499.5,395 L1499.5,396 L1497.5,396 L1497.5,395 L1499.5,395 Z M1502.5,395 L1502.5,396 L1500.5,396 L1500.5,395 L1502.5,395 Z M1505.5,395 L1505.5,396 L1503.5,396 L1503.5,395 L1505.5,395 Z M1508.5,395 L1508.5,396 L1506.5,396 L1506.5,395 L1508.5,395 Z M1511.5,395 L1511.5,396 L1509.5,396 L1509.5,395 L1511.5,395 Z M1514.5,395 L1514.5,396 L1512.5,396 L1512.5,395 L1514.5,395 Z M1517.5,395 L1517.5,396 L1515.5,396 L1515.5,395 L1517.5,395 Z M1520.5,395 L1520.5,396 L1518.5,396 L1518.5,395 L1520.5,395 Z M1523.5,395 L1523.5,396 L1521.5,396 L1521.5,395 L1523.5,395 Z M1526.5,395 L1526.5,396 L1524.5,396 L1524.5,395 L1526.5,395 Z M1529.5,395 L1529.5,396 L1527.5,396 L1527.5,395 L1529.5,395 Z M1532.5,395 L1532.5,396 L1530.5,396 L1530.5,395 L1532.5,395 Z M1535.5,395 L1535.5,396 L1533.5,396 L1533.5,395 L1535.5,395 Z M1538.5,395 L1538.5,396 L1536.5,396 L1536.5,395 L1538.5,395 Z M1541.5,395 L1541.5,396 L1539.5,396 L1539.5,395 L1541.5,395 Z M1544.5,395 L1544.5,396 L1542.5,396 L1542.5,395 L1544.5,395 Z M1547.5,395 L1547.5,396 L1545.5,396 L1545.5,395 L1547.5,395 Z M1550.5,395 L1550.5,396 L1548.5,396 L1548.5,395 L1550.5,395 Z M1553.5,395 L1553.5,396 L1551.5,396 L1551.5,395 L1553.5,395 Z M1556.5,395 L1556.5,396 L1554.5,396 L1554.5,395 L1556.5,395 Z M1559.5,395 L1559.5,396 L1557.5,396 L1557.5,395 L1559.5,395 Z M1562.5,395 L1562.5,396 L1560.5,396 L1560.5,395 L1562.5,395 Z M1565.5,395 L1565.5,396 L1563.5,396 L1563.5,395 L1565.5,395 Z M1568.5,395 L1568.5,396 L1566.5,396 L1566.5,395 L1568.5,395 Z M1571.5,395 L1571.5,396 L1569.5,396 L1569.5,395 L1571.5,395 Z M1574.5,395 L1574.5,396 L1572.5,396 L1572.5,395 L1574.5,395 Z M1577.5,395 L1577.5,396 L1575.5,396 L1575.5,395 L1577.5,395 Z M1580.5,395 L1580.5,396 L1578.5,396 L1578.5,395 L1580.5,395 Z M1583.5,395 L1583.5,396 L1581.5,396 L1581.5,395 L1583.5,395 Z" fill-rule="nonzero"></path>
                <path id="直线" d="M649.5,146 L649.5,150 L650.5,150 L650.5,151 L649.5,151 L649.5,155 L640.5,155 L640.5,146 L649.5,146 Z M949.5,146 L949.5,155 L940.5,155 L940.5,151 L939.5,151 L939.5,150 L940.5,150 L940.5,146 L949.5,146 Z M648.5,147 L641.5,147 L641.5,154 L648.5,154 L648.5,147 Z M941.5,154 L948.5,154 L948.5,147 L941.5,147 L941.5,154 Z M653.5,150 L653.5,151 L651.5,151 L651.5,150 L653.5,150 Z M656.5,150 L656.5,151 L654.5,151 L654.5,150 L656.5,150 Z M659.5,150 L659.5,151 L657.5,151 L657.5,150 L659.5,150 Z M662.5,150 L662.5,151 L660.5,151 L660.5,150 L662.5,150 Z M665.5,150 L665.5,151 L663.5,151 L663.5,150 L665.5,150 Z M668.5,150 L668.5,151 L666.5,151 L666.5,150 L668.5,150 Z M671.5,150 L671.5,151 L669.5,151 L669.5,150 L671.5,150 Z M674.5,150 L674.5,151 L672.5,151 L672.5,150 L674.5,150 Z M677.5,150 L677.5,151 L675.5,151 L675.5,150 L677.5,150 Z M680.5,150 L680.5,151 L678.5,151 L678.5,150 L680.5,150 Z M683.5,150 L683.5,151 L681.5,151 L681.5,150 L683.5,150 Z M686.5,150 L686.5,151 L684.5,151 L684.5,150 L686.5,150 Z M689.5,150 L689.5,151 L687.5,151 L687.5,150 L689.5,150 Z M692.5,150 L692.5,151 L690.5,151 L690.5,150 L692.5,150 Z M695.5,150 L695.5,151 L693.5,151 L693.5,150 L695.5,150 Z M698.5,150 L698.5,151 L696.5,151 L696.5,150 L698.5,150 Z M701.5,150 L701.5,151 L699.5,151 L699.5,150 L701.5,150 Z M704.5,150 L704.5,151 L702.5,151 L702.5,150 L704.5,150 Z M707.5,150 L707.5,151 L705.5,151 L705.5,150 L707.5,150 Z M710.5,150 L710.5,151 L708.5,151 L708.5,150 L710.5,150 Z M713.5,150 L713.5,151 L711.5,151 L711.5,150 L713.5,150 Z M716.5,150 L716.5,151 L714.5,151 L714.5,150 L716.5,150 Z M719.5,150 L719.5,151 L717.5,151 L717.5,150 L719.5,150 Z M722.5,150 L722.5,151 L720.5,151 L720.5,150 L722.5,150 Z M725.5,150 L725.5,151 L723.5,151 L723.5,150 L725.5,150 Z M728.5,150 L728.5,151 L726.5,151 L726.5,150 L728.5,150 Z M731.5,150 L731.5,151 L729.5,151 L729.5,150 L731.5,150 Z M734.5,150 L734.5,151 L732.5,151 L732.5,150 L734.5,150 Z M737.5,150 L737.5,151 L735.5,151 L735.5,150 L737.5,150 Z M740.5,150 L740.5,151 L738.5,151 L738.5,150 L740.5,150 Z M743.5,150 L743.5,151 L741.5,151 L741.5,150 L743.5,150 Z M746.5,150 L746.5,151 L744.5,151 L744.5,150 L746.5,150 Z M749.5,150 L749.5,151 L747.5,151 L747.5,150 L749.5,150 Z M752.5,150 L752.5,151 L750.5,151 L750.5,150 L752.5,150 Z M755.5,150 L755.5,151 L753.5,151 L753.5,150 L755.5,150 Z M758.5,150 L758.5,151 L756.5,151 L756.5,150 L758.5,150 Z M761.5,150 L761.5,151 L759.5,151 L759.5,150 L761.5,150 Z M764.5,150 L764.5,151 L762.5,151 L762.5,150 L764.5,150 Z M767.5,150 L767.5,151 L765.5,151 L765.5,150 L767.5,150 Z M770.5,150 L770.5,151 L768.5,151 L768.5,150 L770.5,150 Z M773.5,150 L773.5,151 L771.5,151 L771.5,150 L773.5,150 Z M776.5,150 L776.5,151 L774.5,151 L774.5,150 L776.5,150 Z M779.5,150 L779.5,151 L777.5,151 L777.5,150 L779.5,150 Z M782.5,150 L782.5,151 L780.5,151 L780.5,150 L782.5,150 Z M785.5,150 L785.5,151 L783.5,151 L783.5,150 L785.5,150 Z M788.5,150 L788.5,151 L786.5,151 L786.5,150 L788.5,150 Z M791.5,150 L791.5,151 L789.5,151 L789.5,150 L791.5,150 Z M794.5,150 L794.5,151 L792.5,151 L792.5,150 L794.5,150 Z M797.5,150 L797.5,151 L795.5,151 L795.5,150 L797.5,150 Z M800.5,150 L800.5,151 L798.5,151 L798.5,150 L800.5,150 Z M803.5,150 L803.5,151 L801.5,151 L801.5,150 L803.5,150 Z M806.5,150 L806.5,151 L804.5,151 L804.5,150 L806.5,150 Z M809.5,150 L809.5,151 L807.5,151 L807.5,150 L809.5,150 Z M812.5,150 L812.5,151 L810.5,151 L810.5,150 L812.5,150 Z M815.5,150 L815.5,151 L813.5,151 L813.5,150 L815.5,150 Z M818.5,150 L818.5,151 L816.5,151 L816.5,150 L818.5,150 Z M821.5,150 L821.5,151 L819.5,151 L819.5,150 L821.5,150 Z M824.5,150 L824.5,151 L822.5,151 L822.5,150 L824.5,150 Z M827.5,150 L827.5,151 L825.5,151 L825.5,150 L827.5,150 Z M830.5,150 L830.5,151 L828.5,151 L828.5,150 L830.5,150 Z M833.5,150 L833.5,151 L831.5,151 L831.5,150 L833.5,150 Z M836.5,150 L836.5,151 L834.5,151 L834.5,150 L836.5,150 Z M839.5,150 L839.5,151 L837.5,151 L837.5,150 L839.5,150 Z M842.5,150 L842.5,151 L840.5,151 L840.5,150 L842.5,150 Z M845.5,150 L845.5,151 L843.5,151 L843.5,150 L845.5,150 Z M848.5,150 L848.5,151 L846.5,151 L846.5,150 L848.5,150 Z M851.5,150 L851.5,151 L849.5,151 L849.5,150 L851.5,150 Z M854.5,150 L854.5,151 L852.5,151 L852.5,150 L854.5,150 Z M857.5,150 L857.5,151 L855.5,151 L855.5,150 L857.5,150 Z M860.5,150 L860.5,151 L858.5,151 L858.5,150 L860.5,150 Z M863.5,150 L863.5,151 L861.5,151 L861.5,150 L863.5,150 Z M866.5,150 L866.5,151 L864.5,151 L864.5,150 L866.5,150 Z M869.5,150 L869.5,151 L867.5,151 L867.5,150 L869.5,150 Z M872.5,150 L872.5,151 L870.5,151 L870.5,150 L872.5,150 Z M875.5,150 L875.5,151 L873.5,151 L873.5,150 L875.5,150 Z M878.5,150 L878.5,151 L876.5,151 L876.5,150 L878.5,150 Z M881.5,150 L881.5,151 L879.5,151 L879.5,150 L881.5,150 Z M884.5,150 L884.5,151 L882.5,151 L882.5,150 L884.5,150 Z M887.5,150 L887.5,151 L885.5,151 L885.5,150 L887.5,150 Z M890.5,150 L890.5,151 L888.5,151 L888.5,150 L890.5,150 Z M893.5,150 L893.5,151 L891.5,151 L891.5,150 L893.5,150 Z M896.5,150 L896.5,151 L894.5,151 L894.5,150 L896.5,150 Z M899.5,150 L899.5,151 L897.5,151 L897.5,150 L899.5,150 Z M902.5,150 L902.5,151 L900.5,151 L900.5,150 L902.5,150 Z M905.5,150 L905.5,151 L903.5,151 L903.5,150 L905.5,150 Z M908.5,150 L908.5,151 L906.5,151 L906.5,150 L908.5,150 Z M911.5,150 L911.5,151 L909.5,151 L909.5,150 L911.5,150 Z M914.5,150 L914.5,151 L912.5,151 L912.5,150 L914.5,150 Z M917.5,150 L917.5,151 L915.5,151 L915.5,150 L917.5,150 Z M920.5,150 L920.5,151 L918.5,151 L918.5,150 L920.5,150 Z M923.5,150 L923.5,151 L921.5,151 L921.5,150 L923.5,150 Z M926.5,150 L926.5,151 L924.5,151 L924.5,150 L926.5,150 Z M929.5,150 L929.5,151 L927.5,151 L927.5,150 L929.5,150 Z M932.5,150 L932.5,151 L930.5,151 L930.5,150 L932.5,150 Z M935.5,150 L935.5,151 L933.5,151 L933.5,150 L935.5,150 Z M938.5,150 L938.5,151 L936.5,151 L936.5,150 L938.5,150 Z" fill-rule="nonzero"></path>
                <path id="直线" d="M649.5,636 L649.5,640 L650.5,640 L650.5,641 L649.5,641 L649.5,645 L640.5,645 L640.5,636 L649.5,636 Z M949.5,636 L949.5,645 L940.5,645 L940.5,641 L939.5,641 L939.5,640 L940.5,640 L940.5,636 L949.5,636 Z M648.5,637 L641.5,637 L641.5,644 L648.5,644 L648.5,637 Z M941.5,644 L948.5,644 L948.5,637 L941.5,637 L941.5,644 Z M653.5,640 L653.5,641 L651.5,641 L651.5,640 L653.5,640 Z M656.5,640 L656.5,641 L654.5,641 L654.5,640 L656.5,640 Z M659.5,640 L659.5,641 L657.5,641 L657.5,640 L659.5,640 Z M662.5,640 L662.5,641 L660.5,641 L660.5,640 L662.5,640 Z M665.5,640 L665.5,641 L663.5,641 L663.5,640 L665.5,640 Z M668.5,640 L668.5,641 L666.5,641 L666.5,640 L668.5,640 Z M671.5,640 L671.5,641 L669.5,641 L669.5,640 L671.5,640 Z M674.5,640 L674.5,641 L672.5,641 L672.5,640 L674.5,640 Z M677.5,640 L677.5,641 L675.5,641 L675.5,640 L677.5,640 Z M680.5,640 L680.5,641 L678.5,641 L678.5,640 L680.5,640 Z M683.5,640 L683.5,641 L681.5,641 L681.5,640 L683.5,640 Z M686.5,640 L686.5,641 L684.5,641 L684.5,640 L686.5,640 Z M689.5,640 L689.5,641 L687.5,641 L687.5,640 L689.5,640 Z M692.5,640 L692.5,641 L690.5,641 L690.5,640 L692.5,640 Z M695.5,640 L695.5,641 L693.5,641 L693.5,640 L695.5,640 Z M698.5,640 L698.5,641 L696.5,641 L696.5,640 L698.5,640 Z M701.5,640 L701.5,641 L699.5,641 L699.5,640 L701.5,640 Z M704.5,640 L704.5,641 L702.5,641 L702.5,640 L704.5,640 Z M707.5,640 L707.5,641 L705.5,641 L705.5,640 L707.5,640 Z M710.5,640 L710.5,641 L708.5,641 L708.5,640 L710.5,640 Z M713.5,640 L713.5,641 L711.5,641 L711.5,640 L713.5,640 Z M716.5,640 L716.5,641 L714.5,641 L714.5,640 L716.5,640 Z M719.5,640 L719.5,641 L717.5,641 L717.5,640 L719.5,640 Z M722.5,640 L722.5,641 L720.5,641 L720.5,640 L722.5,640 Z M725.5,640 L725.5,641 L723.5,641 L723.5,640 L725.5,640 Z M728.5,640 L728.5,641 L726.5,641 L726.5,640 L728.5,640 Z M731.5,640 L731.5,641 L729.5,641 L729.5,640 L731.5,640 Z M734.5,640 L734.5,641 L732.5,641 L732.5,640 L734.5,640 Z M737.5,640 L737.5,641 L735.5,641 L735.5,640 L737.5,640 Z M740.5,640 L740.5,641 L738.5,641 L738.5,640 L740.5,640 Z M743.5,640 L743.5,641 L741.5,641 L741.5,640 L743.5,640 Z M746.5,640 L746.5,641 L744.5,641 L744.5,640 L746.5,640 Z M749.5,640 L749.5,641 L747.5,641 L747.5,640 L749.5,640 Z M752.5,640 L752.5,641 L750.5,641 L750.5,640 L752.5,640 Z M755.5,640 L755.5,641 L753.5,641 L753.5,640 L755.5,640 Z M758.5,640 L758.5,641 L756.5,641 L756.5,640 L758.5,640 Z M761.5,640 L761.5,641 L759.5,641 L759.5,640 L761.5,640 Z M764.5,640 L764.5,641 L762.5,641 L762.5,640 L764.5,640 Z M767.5,640 L767.5,641 L765.5,641 L765.5,640 L767.5,640 Z M770.5,640 L770.5,641 L768.5,641 L768.5,640 L770.5,640 Z M773.5,640 L773.5,641 L771.5,641 L771.5,640 L773.5,640 Z M776.5,640 L776.5,641 L774.5,641 L774.5,640 L776.5,640 Z M779.5,640 L779.5,641 L777.5,641 L777.5,640 L779.5,640 Z M782.5,640 L782.5,641 L780.5,641 L780.5,640 L782.5,640 Z M785.5,640 L785.5,641 L783.5,641 L783.5,640 L785.5,640 Z M788.5,640 L788.5,641 L786.5,641 L786.5,640 L788.5,640 Z M791.5,640 L791.5,641 L789.5,641 L789.5,640 L791.5,640 Z M794.5,640 L794.5,641 L792.5,641 L792.5,640 L794.5,640 Z M797.5,640 L797.5,641 L795.5,641 L795.5,640 L797.5,640 Z M800.5,640 L800.5,641 L798.5,641 L798.5,640 L800.5,640 Z M803.5,640 L803.5,641 L801.5,641 L801.5,640 L803.5,640 Z M806.5,640 L806.5,641 L804.5,641 L804.5,640 L806.5,640 Z M809.5,640 L809.5,641 L807.5,641 L807.5,640 L809.5,640 Z M812.5,640 L812.5,641 L810.5,641 L810.5,640 L812.5,640 Z M815.5,640 L815.5,641 L813.5,641 L813.5,640 L815.5,640 Z M818.5,640 L818.5,641 L816.5,641 L816.5,640 L818.5,640 Z M821.5,640 L821.5,641 L819.5,641 L819.5,640 L821.5,640 Z M824.5,640 L824.5,641 L822.5,641 L822.5,640 L824.5,640 Z M827.5,640 L827.5,641 L825.5,641 L825.5,640 L827.5,640 Z M830.5,640 L830.5,641 L828.5,641 L828.5,640 L830.5,640 Z M833.5,640 L833.5,641 L831.5,641 L831.5,640 L833.5,640 Z M836.5,640 L836.5,641 L834.5,641 L834.5,640 L836.5,640 Z M839.5,640 L839.5,641 L837.5,641 L837.5,640 L839.5,640 Z M842.5,640 L842.5,641 L840.5,641 L840.5,640 L842.5,640 Z M845.5,640 L845.5,641 L843.5,641 L843.5,640 L845.5,640 Z M848.5,640 L848.5,641 L846.5,641 L846.5,640 L848.5,640 Z M851.5,640 L851.5,641 L849.5,641 L849.5,640 L851.5,640 Z M854.5,640 L854.5,641 L852.5,641 L852.5,640 L854.5,640 Z M857.5,640 L857.5,641 L855.5,641 L855.5,640 L857.5,640 Z M860.5,640 L860.5,641 L858.5,641 L858.5,640 L860.5,640 Z M863.5,640 L863.5,641 L861.5,641 L861.5,640 L863.5,640 Z M866.5,640 L866.5,641 L864.5,641 L864.5,640 L866.5,640 Z M869.5,640 L869.5,641 L867.5,641 L867.5,640 L869.5,640 Z M872.5,640 L872.5,641 L870.5,641 L870.5,640 L872.5,640 Z M875.5,640 L875.5,641 L873.5,641 L873.5,640 L875.5,640 Z M878.5,640 L878.5,641 L876.5,641 L876.5,640 L878.5,640 Z M881.5,640 L881.5,641 L879.5,641 L879.5,640 L881.5,640 Z M884.5,640 L884.5,641 L882.5,641 L882.5,640 L884.5,640 Z M887.5,640 L887.5,641 L885.5,641 L885.5,640 L887.5,640 Z M890.5,640 L890.5,641 L888.5,641 L888.5,640 L890.5,640 Z M893.5,640 L893.5,641 L891.5,641 L891.5,640 L893.5,640 Z M896.5,640 L896.5,641 L894.5,641 L894.5,640 L896.5,640 Z M899.5,640 L899.5,641 L897.5,641 L897.5,640 L899.5,640 Z M902.5,640 L902.5,641 L900.5,641 L900.5,640 L902.5,640 Z M905.5,640 L905.5,641 L903.5,641 L903.5,640 L905.5,640 Z M908.5,640 L908.5,641 L906.5,641 L906.5,640 L908.5,640 Z M911.5,640 L911.5,641 L909.5,641 L909.5,640 L911.5,640 Z M914.5,640 L914.5,641 L912.5,641 L912.5,640 L914.5,640 Z M917.5,640 L917.5,641 L915.5,641 L915.5,640 L917.5,640 Z M920.5,640 L920.5,641 L918.5,641 L918.5,640 L920.5,640 Z M923.5,640 L923.5,641 L921.5,641 L921.5,640 L923.5,640 Z M926.5,640 L926.5,641 L924.5,641 L924.5,640 L926.5,640 Z M929.5,640 L929.5,641 L927.5,641 L927.5,640 L929.5,640 Z M932.5,640 L932.5,641 L930.5,641 L930.5,640 L932.5,640 Z M935.5,640 L935.5,641 L933.5,641 L933.5,640 L935.5,640 Z M938.5,640 L938.5,641 L936.5,641 L936.5,640 L938.5,640 Z" fill-rule="nonzero"></path>
            </g>
        </g>
    </g>
</svg>