<?xml version="1.0" encoding="UTF-8"?>
<svg width="54px" height="54px" viewBox="0 0 54 54" version="1.1" xmlns="http://www.w3.org/2000/svg" xmlns:xlink="http://www.w3.org/1999/xlink">
    <title>排水</title>
    <g id="安监平台大屏" stroke="none" stroke-width="1" fill="none" fill-rule="evenodd">
        <g id="综合图表" transform="translate(-608.000000, -183.000000)">
            <g id="设备" transform="translate(431.000000, 168.000000)">
                <g id="编组-9" transform="translate(177.000000, 0.000000)">
                    <g id="排水" transform="translate(0.000000, 15.000000)">
                        <path d="M14,8 L40,8 C43.3137085,8 46,10.6862915 46,14 L46,40 C46,43.3137085 43.3137085,46 40,46 L14,46 C10.6862915,46 8,43.3137085 8,40 L8,14 C8,10.6862915 10.6862915,8 14,8 Z" id="矩形" fill="#62FFCB" opacity="0.200000003" transform="translate(27.000000, 27.000000) rotate(45.000000) translate(-27.000000, -27.000000) "></path>
                        <g id="消防水" transform="translate(11.000000, 12.000000)" fill-rule="nonzero">
                            <rect id="矩形" fill="#000000" opacity="0" x="0" y="0" width="32" height="32"></rect>
                            <path d="M16.3352381,18.2247619 C14.2323809,17.0209524 11.9619047,15.8019047 11.9619047,18.2247619 C11.9619047,20.6476191 13.927619,22.6285714 16.3352381,22.6285714 C18.7580952,22.6285714 20.7238095,20.6628572 20.7085714,18.2247619 C20.7085714,15.8019047 18.4380952,19.4285714 16.3352381,18.2247619 Z M9.28,12.7695238 C9.28,12.4647619 9.47809525,12.1295238 9.78285716,11.7485714 C9.93523809,11.5657143 10.0876191,11.3980952 10.24,11.2304762 L10.4380952,11.0476191 L10.6361905,11.2304762 C10.8038095,11.3828571 10.9561905,11.5657143 11.0933333,11.7485714 C11.2,11.8857143 11.2914286,12.0076191 11.3676191,12.1295238 C11.52,12.3580952 11.5961905,12.5714286 11.5961905,12.7695238 C11.5961905,13.4095238 11.0780952,13.9276191 10.4380952,13.9276191 C9.79809528,13.9276191 9.28,13.4247619 9.28,12.7695238 Z M16.3504762,24.5333333 C12.8609524,24.5333333 10.0571428,21.6533333 10.0571428,18.1028572 C10.0571428,16.9904762 10.6209524,15.5428572 11.6419048,13.8209524 C12.0380952,13.1352381 12.5104762,12.4190476 13.0285714,11.6723809 C13.6533333,10.7733333 14.3238095,9.90476188 15.0095238,9.03619047 C15.2838095,8.70095238 15.5580953,8.36571428 15.8476191,8.01523809 L15.9238095,7.93904763 L16.3352381,7.46666666 L16.7466667,7.93904763 L16.8228572,8.01523809 C16.8685714,8.07619047 16.9295238,8.15238094 17.0057143,8.22857144 C17.2038095,8.45714288 17.4171428,8.73142859 17.6609524,9.02095238 C18.3619048,9.87428572 19.0171428,10.7580952 19.6571428,11.6571428 C20.1752381,12.3885714 20.647619,13.12 21.0438095,13.8057143 C22.0647619,15.527619 22.6285714,16.9752381 22.6285714,18.0876191 C22.6285714,21.6533333 19.8095238,24.5333333 16.3504762,24.5333333 L16.3504762,24.5333333 Z M21.2114286,11.8552381 C20.3428571,11.8552381 19.6419048,11.1390476 19.6419048,10.2704762 C19.6419048,9.87428572 19.9161905,9.40190475 20.3580953,8.85333334 C20.5714286,8.59428572 20.7847619,8.35047619 21.0285714,8.12190475 L21.2266667,7.93904763 L21.4247619,8.12190475 L21.4857143,8.18285716 C21.6990476,8.3961905 21.8971428,8.62476191 22.0952381,8.85333334 C22.247619,9.02095241 22.3695238,9.21904763 22.4914286,9.40190475 C22.6895238,9.72190475 22.7961905,10.0114286 22.7961905,10.2704762 C22.7809524,11.1390476 22.08,11.8552381 21.2114286,11.8552381 L21.2114286,11.8552381 Z" id="形状" fill="#62FFCA"></path>
                        </g>
                    </g>
                </g>
            </g>
        </g>
    </g>
</svg>