<?xml version="1.0" encoding="UTF-8"?>
<svg width="235px" height="243px" viewBox="0 0 235 243" version="1.1" xmlns="http://www.w3.org/2000/svg"
     xmlns:xlink="http://www.w3.org/1999/xlink">
    <title>编组 36</title>
    <defs>
        <circle id="path-1" cx="128" cy="107" r="107"></circle>
        <mask id="mask-2" maskContentUnits="userSpaceOnUse" maskUnits="objectBoundingBox" x="0" y="0" width="214"
              height="214" fill="white">
            <use xlink:href="#path-1"></use>
        </mask>
    </defs>
    <g id="数据大屏" stroke="none" stroke-width="1" fill="none" fill-rule="evenodd">
        <g id="安监主屏" transform="translate(-650.000000, -498.000000)">
            <g id="编组-36" transform="translate(650.000000, 498.000000)">
                <use id="椭圆形" stroke="#FF2516" mask="url(#mask-2)" stroke-width="2" fill-opacity="0.5" fill="#0C0C0C"
                     stroke-linecap="round" stroke-linejoin="round" stroke-dasharray="1,4" xlink:href="#path-1"></use>
                <path d="M99.2154948,105.026367 C95.047526,98.3714193 95.047526,95.6783854 99.2154948,96.9472656 C105.467448,98.8505859 109.180339,89.5488281 109.180339,94.7080078 C109.180339,99.8671875 122.342448,99.9287109 122.342448,94.7080078 C122.342448,89.4873047 129.703776,85.4873047 133.342448,87.4873047 C136.98112,89.4873047 145.470378,90.2402344 145.470378,90.2402344 C145.470378,90.2402344 150.658854,87.4873047 153.897135,87.4873047 C157.135417,87.4873047 158.684245,78.9453125 155.85319,74 C159.091471,74 168.063151,77.4873047 168.063151,80.4873047 C168.063151,83.4873047 169.99528,88.1743164 169.99528,90.9907227 C166.052897,92.7836914 155.180484,94.4196045 155.85319,96.9472656 C159.966471,96.7519531 166.857119,98.9135476 168.063151,100.489258 C171.535807,105.026367 173.565104,109.198242 168.063151,109.198242 C162.561198,109.198242 163.848307,115.651367 155.85319,112.438477 C145.470378,106.809683 135.944239,109.416992 134.643344,112.438477 C133.342448,115.459961 130.479395,114.489258 134.643344,120.487305 C138.807292,126.485352 139.272135,131.120117 139.039714,134.479492 C138.807292,137.838867 126.342448,141.827148 128.342448,138.15332 C130.342448,134.479492 125.023112,130.269531 130.230143,127.053711 C126.308268,119.65918 124.570964,131.238281 120.860026,124.227539 C117.776042,124.227539 117.905924,125.861328 113.986003,128.634766 C110.066081,131.408203 107.242839,136.107422 103.994792,130.523437 C103.994792,125.808594 102.119792,127.967773 95.7330729,124.227539 C89.3463542,120.487305 87.9752604,115.678711 87.9752604,112.438477 C87.9752604,109.198242 79.0309245,102.133789 87.9752604,100.489258 C91.2565104,103.513997 95.0032552,105.026367 99.2154948,105.026367 Z"
                      id="路径-7" stroke-opacity="0.823399257" stroke="#FF0000" fill-opacity="0.5" fill="#FF2516"></path>
                <g id="编组-31" opacity="0.300000012" transform="translate(44.000000, 23.000000)" fill="#FF2516">
                    <path d="M84,0 C130.391919,0 168,37.608081 168,84 C168,130.391919 130.391919,168 84,168 C37.608081,168 0,130.391919 0,84 C0,37.608081 37.608081,0 84,0 Z M84,6.78787879 C41.356923,6.78787879 6.78787879,41.356923 6.78787879,84 C6.78787879,126.643077 41.356923,161.212121 84,161.212121 C126.643077,161.212121 161.212121,126.643077 161.212121,84 C161.212121,41.356923 126.643077,6.78787879 84,6.78787879 Z"
                          id="形状结合"></path>
                </g>
                <circle id="椭圆形" stroke="#FF2516" stroke-width="1.5" opacity="0.5" cx="128" cy="107" r="83.25"></circle>
                <circle id="椭圆形" stroke="#FF2516" stroke-width="0.5" opacity="0.600000024" cx="128" cy="107"
                        r="68.75"></circle>
                <path d="M3.75,87.2557347 L14.4180547,93.0007648 L3.75,98.7444089 L3.75,87.2557347 Z" id="路径"
                      stroke="#FACB1B" stroke-width="1.5" fill-rule="nonzero"
                      transform="translate(9.500000, 93.000000) rotate(-55.000000) translate(-9.500000, -93.000000) "></path>
                <path d="M168.75,209.255735 L179.418055,215.000765 L168.75,220.744409 L168.75,209.255735 Z" id="路径"
                      stroke="#FACB1B" stroke-width="1.5" fill-rule="nonzero"
                      transform="translate(174.500000, 215.000000) rotate(-51.000000) translate(-174.500000, -215.000000) "></path>
                <path d="M195.75,5.25573469 L206.418055,11.0007648 L195.75,16.7444089 L195.75,5.25573469 Z" id="路径"
                      stroke="#FACB1B" stroke-width="1.5" fill-rule="nonzero"
                      transform="translate(201.500000, 11.000000) rotate(-52.000000) translate(-201.500000, -11.000000) "></path>
                <path id="直线-5"
                      d="M215.671573,204.035534 L214.964466,203.328427 L217.793,200.5 L216.37868,199.085786 L217.085786,198.37868 L218.5,199.793 L221.328427,196.964466 L222.035534,197.671573 L219.207107,200.5 L218.5,201.207107 L215.671573,204.035534 Z M214.257359,195.550253 L216.37868,197.671573 L215.671573,198.37868 L213.550253,196.257359 L214.257359,195.550253 Z M211.428932,192.721825 L213.550253,194.843146 L212.843146,195.550253 L210.721825,193.428932 L211.428932,192.721825 Z M208.600505,189.893398 L208.954058,190.246952 L210.368272,191.661165 L210.721825,192.014719 L210.014719,192.721825 L209.661165,192.368272 L208.246952,190.954058 L207.893398,190.600505 L208.600505,189.893398 Z M205.772078,187.064971 L206.125631,187.418525 L207.893398,189.186292 L207.186292,189.893398 L205.418525,188.125631 L205.064971,187.772078 L205.772078,187.064971 Z M202.943651,184.236544 L205.064971,186.357864 L204.357864,187.064971 L202.236544,184.943651 L202.943651,184.236544 Z M200.115224,181.408117 L202.236544,183.529437 L201.529437,184.236544 L199.408117,182.115224 L200.115224,181.408117 Z M197.286797,178.57969 L199.408117,180.70101 L198.70101,181.408117 L196.57969,179.286797 L197.286797,178.57969 Z M194.458369,175.751263 L196.57969,177.872583 L195.872583,178.57969 L193.751263,176.458369 L194.458369,175.751263 Z M191.629942,172.922836 L193.751263,175.044156 L193.044156,175.751263 L190.922836,173.629942 L191.629942,172.922836 Z M188.801515,170.094408 L189.155069,170.447962 L190.569282,171.862175 L190.922836,172.215729 L190.215729,172.922836 L189.862175,172.569282 L188.447962,171.155069 L188.094408,170.801515 L188.801515,170.094408 Z M185.973088,167.265981 L186.326641,167.619535 L188.094408,169.387302 L187.387302,170.094408 L185.619535,168.326641 L185.265981,167.973088 L185.973088,167.265981 Z M183.144661,164.437554 L185.265981,166.558875 L184.558875,167.265981 L182.437554,165.144661 L183.144661,164.437554 Z M180.316234,161.609127 L180.669787,161.96268 L182.084001,163.376894 L182.437554,163.730447 L181.730447,164.437554 L181.376894,164.084001 L179.96268,162.669787 L179.609127,162.316234 L180.316234,161.609127 Z M177.487807,158.7807 L179.609127,160.90202 L178.90202,161.609127 L176.7807,159.487807 L177.487807,158.7807 Z M174.65938,155.952273 L176.7807,158.073593 L176.073593,158.7807 L173.952273,156.65938 L174.65938,155.952273 Z M171.681981,147.318019 C173.319742,148.955781 173.431201,151.541865 172.016357,153.308703 L173.952273,155.245166 L173.245166,155.952273 L171.308703,154.016357 C169.541865,155.431201 166.955781,155.319742 165.318019,153.681981 C163.56066,151.924621 163.56066,149.075379 165.318019,147.318019 C167.075379,145.56066 169.924621,145.56066 171.681981,147.318019 Z M166.025126,148.025126 C164.658291,149.391961 164.658291,151.608039 166.025126,152.974874 C167.391961,154.341709 169.608039,154.341709 170.974874,152.974874 C172.341709,151.608039 172.341709,149.391961 170.974874,148.025126 C169.608039,146.658291 167.391961,146.658291 166.025126,148.025126 Z"
                      fill="#FF2516" fill-rule="nonzero"></path>
                <g id="按钮" transform="translate(210.000000, 192.000000)">
                    <g id="编组-33" fill="#FF2516" opacity="0.340000004">
                        <path d="M10,0 C15.5228475,0 20,4.4771525 20,10 L20,10 L12,10 C10.8954305,10 10,10.8954305 10,12 L10,12 L10,20 C4.4771525,20 0,15.5228475 0,10 C0,4.4771525 4.4771525,0 10,0 Z"
                              id="形状结合"></path>
                    </g>
                    <path d="M13,11 L19,11 C20.1045695,11 21,11.8954305 21,13 L21,39 C21,40.1045695 20.1045695,41 19,41 L13,41 C11.8954305,41 11,40.1045695 11,39 L11,13 C11,11.8954305 11.8954305,11 13,11 Z"
                          id="矩形" fill="#64E1F2"></path>
                    <path d="M14.3990289,42 L19,42 C20.1045695,42 21,42.8954305 21,44 L21,49 C21,50.1045695 20.1045695,51 19,51 L18.3536134,51 C16.9009449,51 15.5624625,50.2124325 14.8569843,48.9425717 L12.6507144,44.9712859 C12.114288,44.0057184 12.4621756,42.7881118 13.4277431,42.2516854 C13.7248591,42.086621 14.0591404,42 14.3990289,42 Z"
                          id="矩形" fill="#FE0271"></path>
                    <text id="L02"
                          transform="translate(15.500000, 26.000000) rotate(90.000000) translate(-15.500000, -26.000000) "
                          font-family="PingFangSC-Regular, PingFang SC" font-size="6" font-weight="normal"
                          fill="#101010">
                        <tspan x="10" y="28">L02</tspan>
                    </text>
                    <circle id="椭圆形" fill="#101010" cx="14.5" cy="14.5" r="1.5"></circle>
                </g>
            </g>
        </g>
    </g>
</svg>
