<?xml version="1.0" encoding="UTF-8"?>
<svg width="88px" height="88px" viewBox="0 0 88 88" version="1.1" xmlns="http://www.w3.org/2000/svg"
     xmlns:xlink="http://www.w3.org/1999/xlink">
    <title>全屏按钮</title>
    <defs>
        <rect id="path-1" x="0" y="0" width="80" height="80" rx="8"></rect>
        <filter x="-7.5%" y="-7.5%" width="115.0%" height="115.0%" filterUnits="objectBoundingBox" id="filter-2">
            <feOffset dx="0" dy="0" in="SourceAlpha" result="shadowOffsetOuter1"></feOffset>
            <feGaussianBlur stdDeviation="2" in="shadowOffsetOuter1" result="shadowBlurOuter1"></feGaussianBlur>
            <feColorMatrix values="0 0 0 0 0   0 0 0 0 0   0 0 0 0 0  0 0 0 0.5 0" type="matrix"
                           in="shadowBlurOuter1"></feColorMatrix>
        </filter>
    </defs>
    <g id="功能界面" stroke="none" stroke-width="1" fill="none" fill-rule="evenodd">
        <g id="数据看板/大数据看板/镶嵌模式" transform="translate(-1335.000000, -72.000000)">
            <g id="全屏按钮" transform="translate(1339.000000, 76.000000)">
                <g id="矩形">
                    <use fill="black" fill-opacity="1" filter="url(#filter-2)" xlink:href="#path-1"></use>
                    <use fill="#FFFFFF" fill-rule="evenodd" xlink:href="#path-1"></use>
                </g>
                <rect id="矩形" fill="#333333" fill-rule="nonzero" opacity="0" x="10" y="10" width="60"
                      height="60"></rect>
                <path d="M62.9666666,16.5633197 C63.2205741,16.5614162 63.4294192,16.7628554 63.4366667,17.0166667 L63.4366667,62.97 C63.4366667,63.2226144 63.2358447,63.4294492 62.9833333,63.4366667 L17.03,63.4366667 C16.7773856,63.4366667 16.5705508,63.2358447 16.5633333,62.9833333 L16.5633333,17.03 C16.5633333,16.7773856 16.7641553,16.5705508 17.0166667,16.5633197 L62.97,16.5633197 L62.9666666,16.5633197 Z M59.22,20.78 L20.78,20.78 L20.78,59.22 L59.22,59.22 L59.22,20.78 L59.22,20.78 Z M36.5333334,41.4466667 L38.8466666,43.76 C38.9352181,43.8476502 38.9850423,43.9670716 38.9850423,44.0916667 C38.9850423,44.2162617 38.9352181,44.3356832 38.8466666,44.4233334 L31.3166666,51.9533334 L35.9,51.9533334 C36.0237677,51.9533334 36.1424662,52.0024999 36.2299832,52.0900169 C36.3175001,52.1775338 36.3666667,52.2962323 36.3666667,52.42 L36.3666667,55.7033334 C36.3666667,55.9610662 36.1577329,56.1700477 35.9,56.1700477 L24.3,56.1700477 C24.1750813,56.1717847 24.0546629,56.1234072 23.9656987,56.0356961 C23.8767345,55.9479849 23.8266547,55.8282648 23.8266547,55.7033334 L23.8266547,44.1033333 C23.8257711,43.9784092 23.8750012,43.8583418 23.9633382,43.7700048 C24.0516751,43.6816679 24.1717425,43.6324378 24.2966666,43.6333333 L27.5766667,43.6333333 C27.7010109,43.6324451 27.8205675,43.6812193 27.9088067,43.7688327 C27.997046,43.8564461 28.0466698,43.9756526 28.0466666,44.1 L28.0466666,49.2666667 L35.87,41.4433333 C35.9577749,41.3537485 36.0779146,41.3032653 36.2033333,41.3032653 C36.3287521,41.3032653 36.4488918,41.3537485 36.5366666,41.4433333 L36.5333334,41.4466667 Z M56.1733453,24.2966666 L56.1733453,35.8966667 C56.1742289,36.0215908 56.1249988,36.1416582 56.0366618,36.2299952 C55.9483249,36.3183321 55.8282575,36.3675622 55.7033334,36.3666667 L52.4233333,36.3666667 C52.2989891,36.3675549 52.1794325,36.3187807 52.0911933,36.2311673 C52.002954,36.1435539 51.9533302,36.0243474 51.9533334,35.9 L51.9533334,30.7133334 L44.1066667,38.5566667 C44.0191483,38.6441939 43.9004426,38.693367 43.7766667,38.693367 C43.6528907,38.693367 43.534185,38.6441939 43.4466667,38.5566667 L41.1266666,36.2366666 C41.0381152,36.1490164 40.988291,36.029595 40.988291,35.905 C40.988291,35.780405 41.0381152,35.6609836 41.1266666,35.5733334 L48.6533334,28.0466666 L44.1,28.0466666 C43.8422671,28.0466666 43.6333333,27.8377329 43.6333333,27.58 L43.6333333,24.2966666 C43.6333333,24.172899 43.6824999,24.0542005 43.7700168,23.9666835 C43.8575338,23.8791665 43.9762323,23.8299523 44.1,23.8299523 L55.7,23.8299523 C55.8249187,23.8282153 55.9453371,23.8765928 56.0343013,23.9643039 C56.1232655,24.0520151 56.1733453,24.1717352 56.1733453,24.2966666 L56.1733453,24.2966666 Z"
                      id="形状" fill="#1890FF" fill-rule="nonzero"></path>
            </g>
        </g>
    </g>
</svg>
