<?xml version="1.0" encoding="UTF-8"?>
<svg width="232px" height="189px" viewBox="0 0 232 189" version="1.1" xmlns="http://www.w3.org/2000/svg" xmlns:xlink="http://www.w3.org/1999/xlink">
    <title>瓦斯背</title>
    <defs>
        <path d="M161.706591,9.20370023 C181.37977,-4.56175225 208.486079,0.218946287 222.263175,19.883973 L222.263175,19.883973 L222.277925,19.9050397 C236.032847,39.5631685 231.247352,66.6497978 211.589223,80.4047195 L211.589223,80.4047195 L191.578,94.406 L211.589223,108.408742 C231.247352,122.163663 236.032847,149.250293 222.277925,168.908421 C222.273011,168.915445 222.268094,168.922467 222.263175,168.929488 C208.486079,188.594515 181.37977,193.375213 161.706591,179.609761 L130.669,157.892 L100.845,157.892 L69.8083016,179.609761 C50.3318543,193.237559 23.5701964,188.688274 9.6690082,169.51497 L9.25171732,168.929488 C9.24679863,168.922467 9.24188203,168.915445 9.2369675,168.908421 C-4.51795422,149.250293 0.267540641,122.163663 19.9256694,108.408742 L19.9256694,108.408742 L39.936,94.406 L19.9256694,80.4047195 C0.267540641,66.6497978 -4.51795422,39.5631685 9.2369675,19.9050397 C9.24188203,19.898016 9.24679863,19.8909938 9.25171732,19.883973 C23.0288135,0.218946287 50.1351225,-4.56175225 69.8083016,9.20370023 L100.805,30.892 L130.709,30.892 Z" id="path-1"></path>
        <mask id="mask-2" maskContentUnits="userSpaceOnUse" maskUnits="objectBoundingBox" x="0" y="0" width="231.514893" height="188.813461" fill="white">
            <use xlink:href="#path-1"></use>
        </mask>
    </defs>
    <g id="瓦斯" stroke="none" stroke-width="1" fill="none" fill-rule="evenodd">
        <use id="形状结合" stroke="#62FFCB" mask="url(#mask-2)" stroke-width="2" stroke-linejoin="round" stroke-dasharray="1,4" xlink:href="#path-1"></use>
        <path d="M212,113
            C220,119 225,128 226,137
            C228,147 226,158 220,168
            C213,176 204,182 194,184
            C184,185 175,184 166,179

            M67,178
            C57,184 47,185 38,184
            C28,182 18,176 11,167
            C5,158 3,147 5,137
            C6,128 11,119 18,113

            M19,76
            C11,70 6,61 5,52
            C3,41 5,31 12,22
            C18,12 28,7 38,5
            C47,3 57,5 65,10

            M166,10
            C174,5 184,3 194,5
            C204,7 213,12 220,22
            C226,31 228,42 226,52
            C225,61 220,70 212,76"
            id="形状结合" stroke="#62FFCB" stroke-width="6" />
        <g id="多边形-2" transform="translate(43.500000, 9.500000)" fill="#62FFCB">
            <path d="M75,21.7320508 L114.033321,44.2679492 C115.889727,45.339746 117.033321,47.3205081 117.033321,49.4641016 L117.033321,94.5358984 C117.033321,96.6794919 115.889727,98.660254 114.033321,99.7320508 L75,122.267949 C73.1435935,123.339746 70.8564065,123.339746 69,122.267949 L29.966679,99.7320508 C28.1102725,98.660254 26.966679,96.6794919 26.966679,94.5358984 L26.966679,49.4641016 C26.966679,47.3205081 28.1102725,45.339746 29.966679,44.2679492 L69,21.7320508 C70.8564065,20.660254 73.1435935,20.660254 75,21.7320508 Z" id="1" opacity="0.100000001" transform="translate(72.000000, 72.000000) rotate(30.000000) translate(-72.000000, -72.000000) "/>
            <path d="M75,31.7320508 L105.373067,49.2679492 C107.229473,50.339746 108.373067,52.3205081 108.373067,54.4641016 L108.373067,89.5358984 C108.373067,91.6794919 107.229473,93.660254 105.373067,94.7320508 L75,112.267949 C73.1435935,113.339746 70.8564065,113.339746 69,112.267949 L38.626933,94.7320508 C36.7705266,93.660254 35.626933,91.6794919 35.626933,89.5358984 L35.626933,54.4641016 C35.626933,52.3205081 36.7705266,50.339746 38.626933,49.2679492 L69,31.7320508 C70.8564065,30.660254 73.1435935,30.660254 75,31.7320508 Z" id="多边形" opacity="0.600000024" transform="translate(72.000000, 72.000000) rotate(30.000000) translate(-72.000000, -72.000000) "/>
        </g>
    </g>
</svg>
