<?xml version="1.0" encoding="UTF-8"?>
<svg width="54px" height="54px" viewBox="0 0 54 54" version="1.1" xmlns="http://www.w3.org/2000/svg" xmlns:xlink="http://www.w3.org/1999/xlink">
    <title>斜井</title>
    <g id="安监平台大屏" stroke="none" stroke-width="1" fill="none" fill-rule="evenodd">
        <g id="综合图表" transform="translate(-608.000000, -275.000000)">
            <g id="设备" transform="translate(431.000000, 168.000000)">
                <g id="编组-9" transform="translate(177.000000, 92.000000)">
                    <g id="斜井" transform="translate(0.000000, 15.000000)">
                        <path d="M14,8 L40,8 C43.3137085,8 46,10.6862915 46,14 L46,40 C46,43.3137085 43.3137085,46 40,46 L14,46 C10.6862915,46 8,43.3137085 8,40 L8,14 C8,10.6862915 10.6862915,8 14,8 Z" id="矩形" fill="#62FFCB" opacity="0.200000003" transform="translate(27.000000, 27.000000) rotate(45.000000) translate(-27.000000, -27.000000) "></path>
                        <g id="扶梯" transform="translate(20.000000, 18.000000)" fill-rule="nonzero">
                            <rect id="矩形" fill="#000000" opacity="0" x="0" y="0" width="17.982439" height="17.982439"></rect>
                            <path d="M16.0572603,6.4223752 L12.8463371,6.4223752 C12.3364821,6.4223752 11.8456673,6.62547098 11.483374,6.98617756 L4.34170124,14.1289081 L1.92835213,14.1289081 C0.864228961,14.1289081 0.00158668683,14.9915504 0.00158668683,16.0556736 C0.00158668683,17.1197967 0.864228961,17.982439 1.92835213,17.982439 L5.13927529,17.982439 C5.65031305,17.9823164 6.14045167,17.779566 6.50223839,17.4186367 L13.6439112,10.2759061 L16.0572603,10.2759061 C17.1213834,10.2759061 17.9840257,9.41326384 17.9840257,8.34914066 C17.9840257,7.28501748 17.1213834,6.4223752 16.0572603,6.4223752 Z M5.13927529,1.92676545 C5.13927529,2.61513245 5.50651469,3.25120981 6.102658,3.59539331 C6.69880132,3.93957682 7.43328017,3.93957682 8.02942348,3.59539331 C8.6255668,3.25120981 8.9928062,2.61513245 8.9928062,1.92676545 C8.9928062,0.86264227 8.13016392,-8.78048878e-09 7.06604074,-8.78048878e-09 C6.00191756,-8.78048878e-09 5.13927529,0.86264227 5.13927529,1.92676545 L5.13927529,1.92676545 Z M8.9928062,6.4223752 C8.99251432,5.71298332 8.41751148,5.13798048 7.70811959,5.13768862 L6.42396189,5.13768862 C5.71457001,5.13798048 5.13956716,5.71298332 5.13927529,6.4223752 L5.13927529,11.5156366 L8.9928062,7.66104793 L8.9928062,6.42184632 L8.9928062,6.4223752 Z" id="形状" fill="#62FFC9"></path>
                        </g>
                    </g>
                </g>
            </g>
        </g>
    </g>
</svg>