<?xml version="1.0" encoding="UTF-8"?>
<svg width="661px" height="192px" viewBox="0 0 661 192" version="1.1" xmlns="http://www.w3.org/2000/svg" xmlns:xlink="http://www.w3.org/1999/xlink">
    <title>1级报警</title>
    <g id="数据大屏" stroke="none" stroke-width="1" fill="none" fill-rule="evenodd">
        <g id="安监主屏2" transform="translate(-605.000000, -454.000000)">
            <g id="1级报警" transform="translate(611.000000, 460.000000)">
                <path d="M637,-3 C641.142136,-3 644.892136,-1.32106781 647.606602,1.39339828 C650.321068,4.10786438 652,7.85786438 652,12 L652,12 L652,116.128678 C652,120.097085 650.427434,123.903784 647.626664,126.71518 L647.626664,126.71518 L595.951381,178.586502 C593.13672,181.411841 589.312806,183 585.324717,183 L585.324717,183 L11,183 C5.4064213,183 0.527231068,179.938693 -2.05082025,175.398534 L-2.05082025,175.398534 L-2.16043198,144.293185 C-2.1779158,140.401134 -0.451060472,136.712934 2.53325838,134.234406 L2.53325838,134.234406 L6.2121552,131.342955 C7.84282354,130.064206 8.81951276,128.131984 8.88866679,126.069905 L8.88866679,126.069905 L8.57485679,55.0850019 C8.56629937,53.1800474 7.78203114,51.365038 6.41007825,50.0546814 L6.41007825,50.0546814 L1.74890456,45.9312837 C-0.936405997,43.5598919 -2.51983799,40.1896273 -2.63872334,36.6201177 L-2.63872334,36.6201177 L-2.78212518,6.07171964 C-1.56693404,3.2492131 0.489974601,0.874150529 3.07307333,-0.736268544 C5.37320554,-2.17027366 8.08961155,-3 11,-3 L11,-3 Z" id="形状结合" stroke="#FF2516" stroke-width="6" fill="#212121"></path>
                <g id="报警1" transform="translate(40.000000, 43.000000)" fill-rule="nonzero">
                    <rect id="矩形" fill="#000000" opacity="0" x="0" y="0" width="89" height="89"></rect>
                    <path d="M43.9994292,5 C46.5031939,5 49.0411895,6.02096135 51.5620664,8.22523464 C53.7773413,10.1622873 56.011059,13.0537168 58.227261,16.929451 C66.5518955,31.4666039 74.9592033,45.9685932 83.4491845,60.4354191 C85.7102794,64.2882977 87.106597,67.6626958 87.6829392,70.5432968 C88.3397227,73.8259492 87.9572438,76.5299178 86.7047187,78.6925511 C85.4531406,80.8535495 83.2973575,82.5341954 80.1204312,83.6062649 C77.3315815,84.547376 73.704457,85.0268908 69.2300158,84.9988153 C52.4166501,84.8933038 35.5997502,84.8933038 18.7768098,84.9988295 C14.3010783,85.0212962 10.672785,84.5377301 7.8828831,83.5939353 C4.70560806,82.5190962 2.54926528,80.8375861 1.29709345,78.6773837 C0.0432747606,76.5143401 -0.339821144,73.8114207 0.316545989,70.5313852 C0.89252116,67.6530891 2.28877964,64.2822739 4.55027501,60.4343221 C13.0398307,45.9892779 21.4467171,31.4880152 29.7709357,16.930532 C31.9877737,13.053713 34.221502,10.1622844 36.4367838,8.22523239 C38.9576678,6.02096051 41.4956661,5 43.9994292,5 Z" id="路径" stroke="#FF2516" stroke-width="4" fill="#FF2516"></path>
                    <path d="M43.9994292,9 C45.659757,9 47.2858504,9.79959208 48.9290588,11.2364256 C50.8778692,12.9404798 52.8082333,15.5107106 54.7561095,18.9171901 C63.0877876,33.4666434 71.5022091,47.9809034 79.9993739,62.4599701 C81.9850655,65.8435647 83.2537663,68.7944865 83.7606747,71.328052 C84.1871417,73.4595662 84.0711032,75.2586109 83.2433427,76.6878376 C82.4146354,78.1186993 80.9083652,79.11876 78.84147,79.816244 C76.3864983,80.6446863 73.1880334,81.0235717 69.2551172,80.998894 C52.4250243,80.8932775 35.5913936,80.8932775 18.7567313,80.9988799 C14.8215981,81.018633 11.6212332,80.6358989 9.16468325,79.8048736 C7.09550643,79.1048926 5.58760373,78.1030627 4.75773648,76.6714051 C3.92951609,75.2425887 3.81277931,73.4451282 4.23878588,71.3162637 C4.74518441,68.7856599 6.01350602,65.8390552 7.99879714,62.4610671 C16.4963874,48.002352 24.9112303,33.4873653 33.2433244,18.9161092 C35.1905932,15.5107144 37.1209683,12.9404827 39.0697862,11.2364279 C40.7130019,9.79959291 42.3390998,9 43.9994292,9 Z" id="路径" stroke="#070809" stroke-width="4"></path>
                    <g id="感叹号" transform="translate(35.000000, 29.000000)">
                        <rect id="矩形" fill="#FFFFFF" opacity="0" x="0" y="0" width="16" height="16"></rect>
                        <path d="M8.00336346,25.9444946 C8.2153126,27.1005811 9.22288527,27.940225 10.3982399,27.940225 C11.5735945,27.940225 12.5811672,27.1005811 12.7931163,25.9444946 L14.3897006,3.99146072 C14.3850783,1.78895528 12.6007453,0.00462226528 10.3982399,0 C9.27781574,0.0276300791 8.2174665,0.512412815 7.46355854,1.34171158 C6.70965057,2.17101035 6.3278186,3.27262695 6.40677919,4.39060678 L8.00336346,25.9444946 Z M10.3982399,31.9316856 C8.78384471,31.9316856 7.32841328,32.9041738 6.710611,34.3956805 C6.09280873,35.8871871 6.43430117,37.6039856 7.57585094,38.7455353 C8.71740072,39.8870851 10.4341991,40.2285775 11.9257058,39.6107752 C13.4172124,38.9929729 14.3897006,37.5375415 14.3897006,35.9231463 C14.4547945,34.8459052 14.0552149,33.7923991 13.292101,33.0292852 C12.5289871,32.2661713 11.475481,31.8665917 10.3982399,31.9316856 Z" id="形状" fill="#212121"></path>
                    </g>
                </g>
            </g>
        </g>
    </g>
</svg>