<svg viewBox="0 0 1024 1024" version="1.1" xmlns="http://www.w3.org/2000/svg"
     xmlns:xlink="http://www.w3.org/1999/xlink" width="200" height="200">
    <path d="M738.048 870.0928c-2.0992 0-4.2496-0.6656-6.0416-1.9456L512 708.3008l-220.0576 159.8464c-3.584 2.6112-8.448 2.6112-12.032 0-3.584-2.6112-5.0688-7.2192-3.7376-11.4688l84.0704-258.6624-220.0064-159.8464c-3.584-2.6112-5.0688-7.2192-3.7376-11.4688 1.3824-4.1984 5.3248-7.0656 9.728-7.0656h271.9744L502.272 160.9728c1.3824-4.1984 5.3248-7.0656 9.728-7.0656s8.3456 2.8672 9.728 7.0656l84.0704 258.6624h271.9744a10.24 10.24 0 0 1 5.9904 18.5344l-220.0576 159.8464 84.0704 258.6624c1.3824 4.1984-0.1536 8.8576-3.7376 11.4688-1.7408 1.3312-3.8912 1.9456-5.9904 1.9456zM177.7664 440.1152l200.5504 145.7152c3.584 2.6112 5.0688 7.2192 3.7376 11.4688l-76.5952 235.776 200.5504-145.7152c3.584-2.6112 8.448-2.6112 12.032 0l200.5504 145.7152-76.5952-235.776c-1.3824-4.1984 0.1536-8.8576 3.7376-11.4688l200.5504-145.7152h-247.9104a10.24 10.24 0 0 1-9.728-7.0656L512 197.2736 435.4048 433.0496c-1.3824 4.1984-5.3248 7.0656-9.728 7.0656H177.7664z"
          fill="#62FFCB"/>
</svg>
