<?xml version="1.0" encoding="UTF-8"?>
<svg width="312px" height="239px" viewBox="0 0 312 239" version="1.1" xmlns="http://www.w3.org/2000/svg" xmlns:xlink="http://www.w3.org/1999/xlink">
    <title>安全背</title>
    <defs>
        <path d="M257.252693,11.9038871 C260.112348,11.3568008 263.043445,12.4065147 264.90563,14.6446371 L264.90563,14.6446371 L292.7474,48.1069928 C294.751393,50.5155444 295.164875,53.8722722 293.805288,56.6951491 L293.805288,56.6951491 L280.911831,83.4655182 L279.901783,85.562656 C279.284301,86.8447181 277.987049,87.6597938 276.564035,87.6597938 L276.564035,87.6597938 L241.183997,87.6597938 C238.613252,87.6597938 236.199125,86.4243909 234.69539,84.3393214 L234.69539,84.3393214 L232.272869,80.9802662 C230.769134,78.8951967 228.355007,77.6597938 225.784262,77.6597938 L225.784262,77.6597938 L87.1963141,77.6597938 C84.6416294,77.6597938 82.2405713,78.8798951 80.7344575,80.9433958 L80.7344575,80.9433958 L78.2289187,84.3761918 C76.722805,86.4396926 74.3217469,87.6597938 71.7670622,87.6597938 L71.7670622,87.6597938 L35.4001051,87.6597938 C33.9933194,87.6597938 32.7109679,86.8536881 32.1010836,85.5859787 L32.1010836,85.5859787 L31.1033887,83.5121635 L18.4934648,57.3010925 C17.1348695,54.4771074 17.5502375,51.1199106 19.5561231,48.7121947 L19.5561231,48.7121947 L47.9361366,14.6469382 C49.8014074,12.4080059 52.7365763,11.3604357 55.5979334,11.912421 C89.1259168,18.3803122 122.6539,21.6142578 156.181883,21.6142578 C189.724609,21.6142578 223.414879,18.3774676 257.252693,11.9038871 Z" id="path-1"></path>
        <mask id="mask-2" maskContentUnits="userSpaceOnUse" maskUnits="objectBoundingBox" x="0" y="0" width="276.895308" height="76.6597938" fill="white">
            <use xlink:href="#path-1"></use>
        </mask>
        <path d="M257.252693,11.9038871 C260.112348,11.3568008 263.043445,12.4065147 264.90563,14.6446371 L264.90563,14.6446371 L292.7474,48.1069928 C294.751393,50.5155444 295.164875,53.8722722 293.805288,56.6951491 L293.805288,56.6951491 L280.911831,83.4655182 L279.901783,85.562656 C279.284301,86.8447181 277.987049,87.6597938 276.564035,87.6597938 L276.564035,87.6597938 L241.183997,87.6597938 C238.613252,87.6597938 236.199125,86.4243909 234.69539,84.3393214 L234.69539,84.3393214 L232.272869,80.9802662 C230.769134,78.8951967 228.355007,77.6597938 225.784262,77.6597938 L225.784262,77.6597938 L87.1963141,77.6597938 C84.6416294,77.6597938 82.2405713,78.8798951 80.7344575,80.9433958 L80.7344575,80.9433958 L78.2289187,84.3761918 C76.722805,86.4396926 74.3217469,87.6597938 71.7670622,87.6597938 L71.7670622,87.6597938 L35.4001051,87.6597938 C33.9933194,87.6597938 32.7109679,86.8536881 32.1010836,85.5859787 L32.1010836,85.5859787 L31.1033887,83.5121635 L18.4934648,57.3010925 C17.1348695,54.4771074 17.5502375,51.1199106 19.5561231,48.7121947 L19.5561231,48.7121947 L47.9361366,14.6469382 C49.8014074,12.4080059 52.7365763,11.3604357 55.5979334,11.912421 C89.1259168,18.3803122 122.6539,21.6142578 156.181883,21.6142578 C189.724609,21.6142578 223.414879,18.3774676 257.252693,11.9038871 Z" id="path-3"></path>
        <mask id="mask-4" maskContentUnits="userSpaceOnUse" maskUnits="objectBoundingBox" x="0" y="0" width="276.895308" height="76.6597938" fill="white">
            <use xlink:href="#path-3"></use>
        </mask>
    </defs>
    <g id="安监平台大屏" stroke="none" stroke-width="1" fill="none" fill-rule="evenodd">
        <g id="综合图表" transform="translate(-28.000000, -186.000000)">
            <g id="安全" transform="translate(28.014406, 186.000000)">
                <g id="安全背" transform="translate(0.000000, -0.000000)">
                    <g id="编组-10" transform="translate(155.500000, 190.500000) scale(1, -1) translate(-155.500000, -190.500000) translate(0.000000, 142.000000)">
                        <path d="M47.6798869,-2.84217094e-13 L264.253072,-2.84217094e-13 C268.508194,-2.84998748e-13 272.532367,1.93520235 275.189065,5.2590587 L308.359303,46.7591079 C310.05945,48.8862016 310.985594,51.5282882 310.985594,54.2513433 L310.985594,91 C310.985594,94.3137085 308.299303,97 304.985594,97 L292.886148,97 C291.737486,97 290.644258,96.5061878 289.884897,95.6443317 L284.901247,89.9880119 C283.839429,88.7828746 283.601447,87.0594872 284.29692,85.6116854 L299.871959,53.1883676 C300.55032,51.7761896 300.34182,50.0979868 299.338518,48.8947386 L265.904703,8.79795728 C264.954728,7.65866361 263.54792,7 262.064531,7 L50.4742141,7 C48.9918467,7 47.5858977,7.65776075 46.6359123,8.79571546 L12.6340884,49.5253259 C11.6299484,50.7281505 11.4205591,52.406504 12.0983937,53.8191697 L27.3702872,85.6471105 C28.056384,87.0769952 27.8328877,88.7771887 26.8005588,89.9811804 L21.9797271,95.6036539 C21.219802,96.4899447 20.1105942,97 18.9431194,97 L6.98559438,97 C3.67188588,97 0.985594381,94.3137085 0.985594381,91 L0.985594381,53.8281577 C0.985594381,51.0868231 1.92419482,48.4281248 3.64524679,46.2943733 L36.7828147,5.21058491 C39.4405639,1.915521 43.4465576,-2.81663087e-13 47.6798869,-2.84217094e-13 Z" id="矩形" fill="#62FFCB" opacity="0.100000001"></path>
                        <use id="形状结合" stroke="#62FFCB" mask="url(#mask-2)" stroke-width="2" stroke-linecap="round" stroke-linejoin="round" stroke-dasharray="1,4" xlink:href="#path-1"></use>
                        <path d="M274.686719,26.4002929 C278.700204,31.224004 284.720431,38.4595706 292.7474,48.1069928 C294.686748,50.4378492 295.136543,53.6566958 293.931332,56.4203507 L293.805288,56.6951491 L279.901783,85.562656 C279.315175,86.780615 278.115074,87.5771188 276.776475,87.6537243 L276.564035,87.6597938 C267.429346,87.6597938 260.57833,87.6597938 256.010985,87.6597938 M55.1906725,87.6597938 C50.7927686,87.6597938 44.1959128,87.6597938 35.4001051,87.6597938 C34.0636587,87.6597938 32.8395141,86.9322834 32.1975412,85.77263 L32.1010836,85.5859787 L18.4934648,57.3010925 C17.1786952,54.5682037 17.5252855,51.3359491 19.3669765,48.9481138 L19.5561231,48.7121947 C27.8530032,38.7532373 34.0756632,31.2840192 38.2241032,26.3045404" id="形状" stroke="#62FFCB" stroke-width="4" stroke-linecap="round" stroke-linejoin="round"></path>
                    </g>
                    <g id="编组-10" transform="translate(0.000000, 0.000000)">
                        <path d="M47.6798869,-2.84217094e-13 L264.253072,-2.84217094e-13 C268.508194,-2.84998748e-13 272.532367,1.93520235 275.189065,5.2590587 L308.359303,46.7591079 C310.05945,48.8862016 310.985594,51.5282882 310.985594,54.2513433 L310.985594,91 C310.985594,94.3137085 308.299303,97 304.985594,97 L292.886148,97 C291.737486,97 290.644258,96.5061878 289.884897,95.6443317 L284.901247,89.9880119 C283.839429,88.7828746 283.601447,87.0594872 284.29692,85.6116854 L299.871959,53.1883676 C300.55032,51.7761896 300.34182,50.0979868 299.338518,48.8947386 L265.904703,8.79795728 C264.954728,7.65866361 263.54792,7 262.064531,7 L50.4742141,7 C48.9918467,7 47.5858977,7.65776075 46.6359123,8.79571546 L12.6340884,49.5253259 C11.6299484,50.7281505 11.4205591,52.406504 12.0983937,53.8191697 L27.3702872,85.6471105 C28.056384,87.0769952 27.8328877,88.7771887 26.8005588,89.9811804 L21.9797271,95.6036539 C21.219802,96.4899447 20.1105942,97 18.9431194,97 L6.98559438,97 C3.67188588,97 0.985594381,94.3137085 0.985594381,91 L0.985594381,53.8281577 C0.985594381,51.0868231 1.92419482,48.4281248 3.64524679,46.2943733 L36.7828147,5.21058491 C39.4405639,1.915521 43.4465576,-2.81663087e-13 47.6798869,-2.84217094e-13 Z" id="矩形" fill="#62FFCB" opacity="0.100000001"></path>
                        <use id="形状结合" stroke="#62FFCB" mask="url(#mask-4)" stroke-width="2" stroke-linecap="round" stroke-linejoin="round" stroke-dasharray="1,4" xlink:href="#path-3"></use>
                        <path d="M274.686719,26.4002929 C278.700204,31.224004 284.720431,38.4595706 292.7474,48.1069928 C294.686748,50.4378492 295.136543,53.6566958 293.931332,56.4203507 L293.805288,56.6951491 L279.901783,85.562656 C279.315175,86.780615 278.115074,87.5771188 276.776475,87.6537243 L276.564035,87.6597938 C267.429346,87.6597938 260.57833,87.6597938 256.010985,87.6597938 M55.1906725,87.6597938 C50.7927686,87.6597938 44.1959128,87.6597938 35.4001051,87.6597938 C34.0636587,87.6597938 32.8395141,86.9322834 32.1975412,85.77263 L32.1010836,85.5859787 L18.4934648,57.3010925 C17.1786952,54.5682037 17.5252855,51.3359491 19.3669765,48.9481138 L19.5561231,48.7121947 C27.8530032,38.7532373 34.0756632,31.2840192 38.2241032,26.3045404" id="形状" stroke="#62FFCB" stroke-width="4" stroke-linecap="round" stroke-linejoin="round"></path>
                    </g>
                </g>
            </g>
        </g>
    </g>
</svg>