<?xml version="1.0" encoding="UTF-8"?>
<svg width="307px" height="54px" viewBox="0 0 307 54" version="1.1" xmlns="http://www.w3.org/2000/svg" xmlns:xlink="http://www.w3.org/1999/xlink">
    <title>搜索</title>
    <g id="安监平台大屏" stroke="none" stroke-width="1" fill="none" fill-rule="evenodd">
        <g id="实时视频2" transform="translate(-30.000000, -30.000000)">
            <g id="搜索" transform="translate(30.000000, 30.000000)">
                <path d="M280,1 C287.179702,1 293.679702,3.91014913 298.384776,8.61522369 C303.089851,13.3202983 306,19.8202983 306,27 C306,34.1797017 303.089851,40.6797017 298.384776,45.3847763 C293.679702,50.0898509 287.179702,53 280,53 L280,53 L41.0168863,53 C40.0716347,53 39.166797,52.7334348 38.3921961,52.2557022 C37.6175952,51.7779697 36.973231,51.0890698 36.5489263,50.2444006 L36.5489263,50.2444006 L32.4042733,41.9935813 C31.8102468,40.8110444 30.9081369,39.8465846 29.8236956,39.1777591 C28.7392543,38.5089335 27.4724816,38.1357422 26.1491294,38.1357422 L26.1491294,38.1357422 L6,38.1357422 C4.61928813,38.1357422 3.36928813,37.5760981 2.46446609,36.6712761 C1.55964406,35.7664541 1,34.5164541 1,33.1357422 L1,33.1357422 L1,6 C1,4.61928813 1.55964406,3.36928813 2.46446609,2.46446609 C3.36928813,1.55964406 4.61928813,1 6,1 L6,1 Z" id="矩形" stroke="#62FFCB" stroke-width="2" opacity="0.600000024"></path>
                <g transform="translate(10.000000, 12.000000)" fill-rule="nonzero">
                    <rect id="矩形" fill="#000000" opacity="0" x="0" y="0" width="18" height="18"></rect>
                    <path d="M8.31269531,14.5072266 C7.47773437,14.5072266 6.66738281,14.34375 5.90449219,14.0203125 C5.16796875,13.7091797 4.50527344,13.2626953 3.9375,12.6949219 C3.36972656,12.1271484 2.92324219,11.4644531 2.61210937,10.7279297 C2.28867187,9.96503906 2.12519531,9.1546875 2.12519531,8.31972656 C2.12519531,7.48476562 2.28867187,6.67441406 2.61210937,5.91152344 C2.92324219,5.175 3.36972656,4.51230469 3.9375,3.94453125 C4.50527344,3.37675781 5.16796875,2.93027344 5.90449219,2.61914062 C6.66738281,2.29570312 7.47773437,2.13222656 8.31269531,2.13222656 C9.14765625,2.13222656 9.95800781,2.29570312 10.7208984,2.61914062 C11.4574219,2.93027344 12.1201172,3.37675781 12.6878906,3.94453125 C13.2556641,4.51230469 13.7021484,5.175 14.0132812,5.91152344 C14.3367187,6.67441406 14.5001953,7.48476562 14.5001953,8.31972656 C14.5001953,9.1546875 14.3367187,9.96503906 14.0132812,10.7279297 C13.7021484,11.4644531 13.2556641,12.1271484 12.6878906,12.6949219 C12.1201172,13.2626953 11.4574219,13.7091797 10.7208984,14.0203125 C9.95976563,14.34375 9.14941406,14.5072266 8.31269531,14.5072266 Z M8.31269531,3.25722656 C5.52128906,3.25722656 3.25019531,5.52832031 3.25019531,8.31972656 C3.25019531,11.1111328 5.52128906,13.3822266 8.31269531,13.3822266 C11.1041016,13.3822266 13.3751953,11.1111328 13.3751953,8.31972656 C13.3751953,5.52832031 11.1041016,3.25722656 8.31269531,3.25722656 Z M14.9132813,15.7042969 L13.3224609,14.1134766 C13.1027344,13.89375 13.1027344,13.5369141 13.3224609,13.3171875 C13.5421875,13.0974609 13.8990234,13.0974609 14.11875,13.3171875 L15.7095703,14.9080078 C15.9292969,15.1277344 15.9292969,15.4845703 15.7095703,15.7042969 C15.4898437,15.9240234 15.1330078,15.9240234 14.9132813,15.7042969 Z" id="形状" fill="#62FFCB"></path>
                </g>
            </g>
        </g>
    </g>
</svg>