<?xml version="1.0" encoding="UTF-8"?>
<svg width="18px" height="20px" viewBox="0 0 18 20" version="1.1" xmlns="http://www.w3.org/2000/svg" xmlns:xlink="http://www.w3.org/1999/xlink">
    <title>搜索</title>
    <g id="功能界面" stroke="none" stroke-width="1" fill="none" fill-rule="evenodd" opacity="0.649999976">
        <g id="数据看板/实时视频/镶嵌模式" transform="translate(-1147.000000, -19.000000)" fill="#FFFFFF" fill-rule="nonzero">
            <g id="搜索" transform="translate(1147.000000, 19.807018)">
                <path d="M16.2445,15.9770526 C15.682,16.5296842 14.7705,16.5296842 14.208,15.9770526 L11.6665,13.4801404 C10.6215,14.138386 9.386,14.5308772 8.053,14.5308772 C4.3415,14.5308772 1.333,11.5756491 1.333,7.92926316 C1.333,4.28287719 4.3415,1.32764912 8.053,1.32764912 C11.7645,1.32764912 14.7725,4.28336842 14.7725,7.92926316 C14.7725,9.23936842 14.373,10.4527018 13.703,11.4798596 L16.2445,13.9767719 C16.807,14.5294035 16.807,15.4254035 16.2445,15.9775439 L16.2445,15.9775439 L16.2445,15.9770526 Z M8.0535,3.21396491 C5.4025,3.21396491 3.2535,5.32526316 3.2535,7.92926316 C3.2535,10.5332632 5.4025,12.6445614 8.0535,12.6445614 C10.704,12.6445614 12.8530003,10.5332632 12.8530003,7.92926316 C12.854,5.32526316 10.704,3.21396491 8.0535,3.21396491 L8.0535,3.21396491 Z" id="形状"></path>
                <rect id="矩形" opacity="0" x="0" y="0.192982456" width="18" height="18"></rect>
            </g>
        </g>
    </g>
</svg>