<?xml version="1.0" encoding="UTF-8"?>
<svg width="234px" height="54px" viewBox="0 0 234 54" version="1.1" xmlns="http://www.w3.org/2000/svg" xmlns:xlink="http://www.w3.org/1999/xlink">
    <title>选择器正常</title>
    <g id="安监平台大屏" stroke="none" stroke-width="1" fill="none" fill-rule="evenodd">
        <g id="综合图表" transform="translate(-843.000000, -30.000000)">
            <g id="选择器正常" transform="translate(843.000000, 30.000000)">
                <path d="M6,0 L228,0 C231.313708,-6.08718376e-16 234,2.6862915 234,6 L234,48 C234,51.3137085 231.313708,54 228,54 L41.0168863,54 C38.7482824,54 36.6736655,52.7204869 35.6553343,50.6932807 L31.5106813,42.4424615 C30.4923501,40.4152553 28.4177332,39.1357422 26.1491294,39.1357422 L6,39.1357422 C2.6862915,39.1357422 4.82055882e-15,36.4494507 0,33.1357422 L0,6 C-1.29399067e-15,2.6862915 2.6862915,-2.79460044e-16 6,0 Z" id="矩形" fill="#62FFCB" opacity="0.600000024"></path>
                <path d="M28.5415123,18.3941406 L20.8721764,26.7806641 C20.6436608,27.0408203 20.313192,27.1902344 19.9651451,27.1902344 C19.6188561,27.1902344 19.2883873,27.0408203 19.0581139,26.7806641 L11.3887779,18.3941406 C11.0143639,17.9986328 10.8983483,17.4220703 11.0934654,16.9123047 C11.2885826,16.4025391 11.7544029,16.0474609 12.297567,16 L27.6292076,16 C28.1741295,16.0457031 28.6434654,16.3990234 28.8368248,16.9105469 C29.031942,17.4220703 28.9159264,17.9951172 28.5415123,18.3941406 Z" id="路径" fill="#000000" fill-rule="nonzero"></path>
            </g>
        </g>
    </g>
</svg>