<?xml version="1.0" encoding="UTF-8"?>
<svg width="238px" height="58px" viewBox="0 0 238 58" version="1.1" xmlns="http://www.w3.org/2000/svg" xmlns:xlink="http://www.w3.org/1999/xlink">
    <title>编组 18</title>
    <g id="安监平台大屏" stroke="none" stroke-width="1" fill="none" fill-rule="evenodd">
        <g id="实时视频2" transform="translate(-775.000000, -28.000000)">
            <g id="编组-18" transform="translate(777.000000, 30.000000)">
                <path d="M6,0 L228,0 C231.313708,-6.08718376e-16 234,2.6862915 234,6 L234,48 C234,51.3137085 231.313708,54 228,54 L41.0168863,54 C38.7482824,54 36.6736655,52.7204869 35.6553343,50.6932807 L31.5106813,42.4424615 C30.4923501,40.4152553 28.4177332,39.1357422 26.1491294,39.1357422 L6,39.1357422 C2.6862915,39.1357422 4.82055882e-15,36.4494507 0,33.1357422 L0,6 C-1.29399067e-15,2.6862915 2.6862915,-2.79460044e-16 6,0 Z" id="矩形" fill="#62FFCB" opacity="0.600000024"></path>
                <path d="M28.5415123,18.3941406 L20.8721764,26.7806641 C20.6436608,27.0408203 20.313192,27.1902344 19.9651451,27.1902344 C19.6188561,27.1902344 19.2883873,27.0408203 19.0581139,26.7806641 L11.3887779,18.3941406 C11.0143639,17.9986328 10.8983483,17.4220703 11.0934654,16.9123047 C11.2885826,16.4025391 11.7544029,16.0474609 12.297567,16 L27.6292076,16 C28.1741295,16.0457031 28.6434654,16.3990234 28.8368248,16.9105469 C29.031942,17.4220703 28.9159264,17.9951172 28.5415123,18.3941406 Z" id="路径" fill="#98FFD7" fill-rule="nonzero" transform="translate(19.965145, 21.595117) scale(1, -1) translate(-19.965145, -21.595117) "></path>
                <path d="M228,-1 C229.932997,-1 231.682997,-0.216498312 232.949747,1.05025253 C234.216498,2.31700338 235,4.06700338 235,6 L235,6 L235,48 C235,49.9329966 234.216498,51.6829966 232.949747,52.9497475 C231.682997,54.2164983 229.932997,55 228,55 L228,55 L41.0168863,55 C39.693534,55 38.4267613,54.6268087 37.34232,53.9579831 C36.2578787,53.2891576 35.3557689,52.3246978 34.7617424,51.1421608 L34.7617424,51.1421608 L30.6170893,42.8913416 C30.1927847,42.0466723 29.5484205,41.3577725 28.7738195,40.88004 C27.9992186,40.4023074 27.094381,40.1357422 26.1491294,40.1357422 L26.1491294,40.1357422 L6,40.1357422 C4.06700338,40.1357422 2.31700338,39.3522405 1.05025253,38.0854897 C-0.216498312,36.8187388 -1,35.0687388 -1,33.1357422 L-1,33.1357422 L-1,6 C-1,4.06700338 -0.216498312,2.31700338 1.05025253,1.05025253 C2.31700338,-0.216498312 4.06700338,-1 6,-1 L6,-1 Z" id="矩形" stroke="#98FFD7" stroke-width="2"></path>
            </g>
        </g>
    </g>
</svg>