<?xml version="1.0" encoding="UTF-8"?>
<svg width="10px" height="40px" viewBox="0 0 10 40" version="1.1" xmlns="http://www.w3.org/2000/svg" xmlns:xlink="http://www.w3.org/1999/xlink">
    <title>小标</title>
    <g id="数据大屏" stroke="none" stroke-width="1" fill="none" fill-rule="evenodd">
        <g id="安监主屏2" transform="translate(-1531.000000, -895.000000)">
            <g id="校验平台" transform="translate(1531.000000, 833.000000)">
                <g id="23" transform="translate(0.000000, 58.000000)">
                    <g id="小标" transform="translate(0.000000, 4.000000)">
                        <path d="M2,0 L8,0 C9.1045695,-2.02906125e-16 10,0.8954305 10,2 L10,28 C10,29.1045695 9.1045695,30 8,30 L2,30 C0.8954305,30 1.3527075e-16,29.1045695 0,28 L0,2 C-1.3527075e-16,0.8954305 0.8954305,2.02906125e-16 2,0 Z" id="矩形" fill="#64E1F2"></path>
                        <text id="L02" transform="translate(4.500000, 15.000000) rotate(90.000000) translate(-4.500000, -15.000000) " font-family="PingFangSC-Regular, PingFang SC" font-size="6" font-weight="normal" fill="#101010">
                            <tspan x="-1" y="17">L02</tspan>
                        </text>
                        <circle id="椭圆形" fill="#101010" cx="3.5" cy="3.5" r="1.5"></circle>
                        <path d="M3.39902892,31 L8,31 C9.1045695,31 10,31.8954305 10,33 L10,38 C10,39.1045695 9.1045695,40 8,40 L7.3536134,40 C5.90094489,40 4.56246248,39.2124325 3.85698429,37.9425717 L1.65071437,33.9712859 C1.114288,33.0057184 1.46217559,31.7881118 2.42774306,31.2516854 C2.72485906,31.086621 3.05914042,31 3.39902892,31 Z" id="矩形" fill="#FE0271"></path>
                    </g>
                </g>
            </g>
        </g>
    </g>
</svg>