<?xml version="1.0" encoding="UTF-8"?>
<svg width="88px" height="88px" viewBox="0 0 88 88" version="1.1" xmlns="http://www.w3.org/2000/svg"
     xmlns:xlink="http://www.w3.org/1999/xlink">
    <title>关闭全屏按钮</title>
    <defs>
        <rect id="path-1" x="0" y="0" width="80" height="80" rx="8"></rect>
        <filter x="-7.5%" y="-7.5%" width="115.0%" height="115.0%" filterUnits="objectBoundingBox" id="filter-2">
            <feOffset dx="0" dy="0" in="SourceAlpha" result="shadowOffsetOuter1"></feOffset>
            <feGaussianBlur stdDeviation="2" in="shadowOffsetOuter1" result="shadowBlurOuter1"></feGaussianBlur>
            <feColorMatrix values="0 0 0 0 0   0 0 0 0 0   0 0 0 0 0  0 0 0 0.5 0" type="matrix"
                           in="shadowBlurOuter1"></feColorMatrix>
        </filter>
    </defs>
    <g id="功能界面" stroke="none" stroke-width="1" fill="none" fill-rule="evenodd">
        <g id="数据看板/实时视频/镶嵌模式" transform="translate(-1335.000000, -72.000000)">
            <g id="关闭全屏按钮" transform="translate(1339.000000, 76.000000)">
                <g id="矩形">
                    <use fill="black" fill-opacity="1" filter="url(#filter-2)" xlink:href="#path-1"></use>
                    <use fill="#FFFFFF" fill-rule="evenodd" xlink:href="#path-1"></use>
                </g>
                <rect id="矩形" fill="#333333" fill-rule="nonzero" opacity="0" x="10" y="10" width="60"
                      height="60"></rect>
                <path d="M62.9666666,16.5633197 C63.2205741,16.5614162 63.4294192,16.7628554 63.4366667,17.0166667 L63.4366667,62.97 C63.4366667,63.2226144 63.2358447,63.4294492 62.9833333,63.4366667 L17.03,63.4366667 C16.7773856,63.4366667 16.5705508,63.2358447 16.5633333,62.9833333 L16.5633333,17.03 C16.5633333,16.7773856 16.7641553,16.5705508 17.0166667,16.5633197 L62.97,16.5633197 L62.9666666,16.5633197 Z M59.22,20.78 L20.78,20.78 L20.78,59.22 L59.22,59.22 L59.22,20.78 L59.22,20.78 Z M26.2783636,56.0266463 L23.9650303,53.713313 C23.8764788,53.6256628 23.8266547,53.5062414 23.8266547,53.3816463 C23.8266547,53.2570513 23.8764788,53.1376299 23.9650303,53.0499796 L31.4950303,45.5199796 L26.9116969,45.5199796 C26.7879292,45.5199796 26.6692308,45.4708131 26.5817138,45.3832961 C26.4941968,45.2957792 26.4450303,45.1770807 26.4450303,45.053313 L26.4450303,41.7699796 C26.4450303,41.5122468 26.6539641,41.3032653 26.9116969,41.3032653 L38.511697,41.3032653 C38.6366157,41.3015283 38.7570341,41.3499058 38.8459982,41.4376169 C38.9349624,41.5253281 38.9850423,41.6450482 38.9850423,41.7699796 L38.9850423,53.3699797 C38.9859258,53.4949038 38.9366958,53.6149712 38.8483588,53.7033082 C38.7600218,53.7916451 38.6399544,53.8408752 38.5150303,53.8399797 L35.2350303,53.8399797 C35.1106861,53.8408679 34.9911294,53.7920937 34.9028902,53.7044803 C34.814651,53.6168669 34.7650271,53.4976604 34.7650303,53.373313 L34.7650303,48.2066463 L26.9416969,56.0299797 C26.8539221,56.1195645 26.7337824,56.1700477 26.6083636,56.1700477 C26.4829449,56.1700477 26.3628051,56.1195645 26.2750303,56.0299797 L26.2783636,56.0266463 Z M40.988291,38.2266527 L40.988291,26.6266526 C40.9874075,26.5017285 41.0366376,26.3816611 41.1249745,26.2933242 C41.2133115,26.2049872 41.3333789,26.1557571 41.458303,26.1566527 L44.738303,26.1566527 C44.8626473,26.1557645 44.9822039,26.2045386 45.0704431,26.292152 C45.1586823,26.3797655 45.2083062,26.4989719 45.208303,26.6233193 L45.208303,31.809986 L53.0549697,23.9666527 C53.142488,23.8791254 53.2611938,23.8299523 53.3849697,23.8299523 C53.5087457,23.8299523 53.6274514,23.8791254 53.7149697,23.9666527 L56.0349697,26.2866527 C56.1235212,26.3743029 56.1733453,26.4937243 56.1733453,26.6183193 C56.1733453,26.7429143 56.1235212,26.8623358 56.0349697,26.949986 L48.508303,34.4766527 L53.0616364,34.4766527 C53.3193693,34.4766527 53.528303,34.6855865 53.528303,34.9433193 L53.528303,38.2266527 C53.528303,38.3504204 53.4791365,38.4691189 53.3916195,38.5566358 C53.3041026,38.6441528 53.1854041,38.693367 53.0616364,38.693367 L41.4616363,38.693367 C41.3367176,38.6951041 41.2162992,38.6467266 41.1273351,38.5590154 C41.0383709,38.4713042 40.988291,38.3515842 40.988291,38.2266527 L40.988291,38.2266527 Z"
                      id="形状" fill="#1890FF" fill-rule="nonzero"></path>
            </g>
        </g>
    </g>
</svg>
