<?xml version="1.0" encoding="UTF-8"?>
<svg width="14px" height="14px" viewBox="0 0 14 14" version="1.1" xmlns="http://www.w3.org/2000/svg"
     xmlns:xlink="http://www.w3.org/1999/xlink">
    <title>系统管理icon-灰</title>
    <g id="功能界面" stroke="none" stroke-width="1" fill="none" fill-rule="evenodd" opacity="0.649999976">
        <g id="通用控件-切图" transform="translate(-16.000000, -434.000000)" fill="#FFFFFF" fill-rule="nonzero">
            <g id="B-管控-关" transform="translate(0.000000, 144.000000)">
                <g id="6系统管理" transform="translate(0.000000, 277.000000)">
                    <g id="系统管理icon-灰" transform="translate(16.000000, 13.000000)">
                        <path d="M12.6043634,8.4139038 L11.675938,7.87244735 C11.7269339,7.58897014 11.7614312,7.29874348 11.7614312,6.99951754 C11.7614312,6.70029161 11.7269339,6.41006495 11.675938,6.1258378 L12.6043634,5.58513128 C12.9838329,5.36464901 13.1135724,4.87493839 12.89459,4.49246915 L12.1011538,3.10733054 C11.997001,2.9240271 11.8238752,2.78998166 11.6203315,2.73504598 C11.4167877,2.68011031 11.1997279,2.70884614 11.017491,2.81485406 L10.0793164,3.36081015 C9.64033195,2.97832753 9.13504595,2.67942596 8.58843633,2.47888107 L8.58843633,1.80018565 C8.58968339,1.36037179 8.23480878,1.0024784 7.79500013,1 L6.2073778,1 C5.76941302,1 5.4139416,1.35847117 5.4139416,1.80018565 L5.4139416,2.47888107 C4.86736612,2.67915357 4.36207588,2.97780349 3.9230615,3.36006021 L2.98488694,2.81410412 C2.80255864,2.70815743 2.58542967,2.67953547 2.38187488,2.734615 C2.17832009,2.78969453 2.00525023,2.92389971 1.90122408,3.10733054 L1.10778789,4.49246915 C0.88841445,4.87463697 1.01791597,5.36219179 1.39801455,5.58513128 L2.32718983,6.1258378 C2.27176982,6.41381204 2.24290102,6.70626558 2.24094676,6.99951754 C2.24094676,7.29874348 2.27469405,7.58897014 2.32718983,7.87244735 L1.39801455,8.4139038 C1.01791597,8.6368433 0.88841445,9.12439812 1.10778789,9.50656594 L1.90122408,10.8917046 C2.12020647,11.2749237 2.60541745,11.4054132 2.98488694,11.184181 L3.9230615,10.6382249 C4.36177622,11.0139447 4.86048611,11.3221699 5.4139416,11.520154 L5.4139416,12.1988494 C5.4139416,12.6405639 5.76941302,12.9990351 6.2073778,12.9990351 L7.79500013,12.9990351 C8.23296491,12.9990351 8.58843633,12.6405639 8.58843633,12.1995994 L8.58843633,11.520904 C9.13504595,11.3203591 9.64033195,11.0214575 10.0793164,10.6389749 L11.017491,11.184931 C11.1996801,11.2911454 11.4168098,11.3199967 11.6204139,11.2650447 C11.8240181,11.2100927 11.9971462,11.0759123 12.1011538,10.8924545 L12.89459,9.50656594 C13.1135272,9.12434085 12.9841116,8.63710951 12.6043634,8.4139038 L12.6043634,8.4139038 Z M12.0096612,9.45257028 L11.6129431,10.1455146 C11.5609392,10.2373461 11.4743068,10.3045104 11.3724137,10.331992 C11.2705206,10.3594735 11.1618644,10.3449804 11.0707367,10.2917528 L9.96832536,9.65055436 C9.40124911,10.2985858 8.63817547,10.7438437 7.79500013,10.9187024 L7.79500013,11.7991316 C7.79541532,12.0191836 7.617583,12.1980226 7.39753209,12.1988494 L6.6040959,12.1988494 C6.49841988,12.1986517 6.39717293,12.1563791 6.32273055,12.0813739 C6.24828816,12.0063686 6.20677945,11.9048061 6.2073778,11.7991316 L6.2073778,10.9187024 C5.36426208,10.7436884 4.60123475,10.2984574 4.03405257,9.65055436 L2.93164122,10.2917528 C2.84057996,10.3447398 2.73210635,10.359098 2.63039525,10.3316276 C2.52868414,10.3041571 2.44218839,10.237141 2.39018476,10.1455146 L1.99346667,9.45257028 C1.8836814,9.26147111 1.94824361,9.01760661 2.13820503,8.90586424 L3.24511601,8.26166605 C3.11312663,7.86494795 3.03438296,7.44198196 3.03438296,6.99951754 C3.03438296,6.55705313 3.11312663,6.13483708 3.24511601,5.7366191 L2.13820503,5.09317084 C1.94789196,4.98169546 1.88324372,4.73750596 1.99346667,4.54646481 L2.39018476,3.85352053 C2.44218839,3.76189413 2.52868414,3.69487796 2.63039525,3.66740751 C2.73210635,3.63993706 2.84057996,3.6542953 2.93164122,3.70728229 L4.03405257,4.34923067 C4.60077126,3.70062191 5.36396558,3.2550302 6.2073778,3.08033271 L6.2073778,2.19990351 C6.20677945,2.094229 6.24828816,1.99266649 6.32273055,1.91766121 C6.39717293,1.84265594 6.49841988,1.80038335 6.6040959,1.80018565 L7.39753209,1.80018565 C7.61651448,1.80018565 7.79500013,1.9786713 7.79500013,2.19990351 L7.79500013,3.08033271 C8.63823515,3.25503578 9.40135519,3.7003208 9.96832536,4.34848073 L11.0707367,3.70653235 C11.1619598,3.65371676 11.2704766,3.63945379 11.3722493,3.66690285 C11.474022,3.69435192 11.5606496,3.76124722 11.6129431,3.85277059 L12.0096612,4.54571487 C12.1193184,4.73700921 12.0544059,4.98093273 11.8641729,5.0924209 L10.7572619,5.73586916 C10.8892513,6.13483708 10.967995,6.55705313 10.967995,6.99951754 C10.967995,7.44198196 10.8892513,7.86494795 10.7572619,8.26241599 L11.8641729,8.90661418 C12.053612,9.01834183 12.1183799,9.26138849 12.0096612,9.45257028 L12.0096612,9.45257028 Z M7.000814,4.99942838 C5.90590204,4.99942838 5.01720902,5.89485638 5.01720902,6.99951754 C5.01307336,8.0992918 5.90104131,8.99430978 7.000814,8.99885677 C7.52908392,8.99687154 8.03492824,8.78511128 8.40706507,8.41016163 C8.7792019,8.03521198 8.98714714,7.52778744 8.98516891,6.99951754 C8.98930457,5.89932911 8.10100086,5.00397538 7.000814,4.99942838 Z M7.000814,8.19942105 C6.34090205,8.19652774 5.80816935,7.65943113 5.81065101,6.99951754 C5.81065101,6.3373208 6.34386682,5.79961404 7.000814,5.79961404 C7.65851111,5.79961404 8.19171823,6.3373208 8.19171823,6.99951754 C8.19171823,7.66246423 7.65776117,8.19942105 7.000814,8.19942105 L7.000814,8.19942105 Z"
                              id="形状"></path>
                        <rect id="矩形" opacity="0" x="0" y="0" width="14" height="14"></rect>
                    </g>
                </g>
            </g>
        </g>
    </g>
</svg>
