<?xml version="1.0" encoding="UTF-8"?>
<svg width="358px" height="27px" viewBox="0 0 358 27" version="1.1" xmlns="http://www.w3.org/2000/svg" xmlns:xlink="http://www.w3.org/1999/xlink">
    <title>时间轴</title>
    <g id="数据大屏" stroke="none" stroke-width="1" fill="none" fill-rule="evenodd">
        <g id="安监主屏2" transform="translate(-22.000000, -299.000000)">
            <g id="下井人员统计" transform="translate(13.000000, 135.000000)">
                <g id="3" transform="translate(9.000000, 144.000000)">
                    <g id="时间轴" transform="translate(0.000000, 20.000000)">
                        <rect id="矩形" fill="#D8D8D8" x="2" y="0" width="4" height="4" rx="1"></rect>
                        <rect id="矩形" fill="#D8D8D8" x="2" y="23" width="4" height="4" rx="1"></rect>
                        <rect id="矩形" fill="#D8D8D8" x="352" y="0" width="4" height="4" rx="1"></rect>
                        <rect id="矩形" fill="#D8D8D8" x="352" y="23" width="4" height="4" rx="1"></rect>
                        <rect id="矩形" fill="#222222" x="0" y="12" width="358" height="2"></rect>
                        <g id="编组-5" transform="translate(16.500000, 9.500000)" stroke="#3A3A3A" stroke-linecap="square" stroke-width="1.8">
                            <line x1="5.5" y1="0.5" x2="0.5" y2="6.5" id="直线"></line>
                            <line x1="9.5" y1="0.5" x2="4.5" y2="6.5" id="直线"></line>
                            <line x1="13.5" y1="0.5" x2="8.5" y2="6.5" id="直线"></line>
                            <line x1="17.5" y1="0.5" x2="12.5" y2="6.5" id="直线"></line>
                            <line x1="21.5" y1="0.5" x2="16.5" y2="6.5" id="直线"></line>
                            <line x1="25.5" y1="0.5" x2="20.5" y2="6.5" id="直线"></line>
                            <line x1="29.5" y1="0.5" x2="24.5" y2="6.5" id="直线"></line>
                            <line x1="33.5" y1="0.5" x2="28.5" y2="6.5" id="直线"></line>
                            <line x1="37.5" y1="0.5" x2="32.5" y2="6.5" id="直线"></line>
                            <line x1="41.5" y1="0.5" x2="36.5" y2="6.5" id="直线"></line>
                            <line x1="45.5" y1="0.5" x2="40.5" y2="6.5" id="直线"></line>
                            <line x1="49.5" y1="0.5" x2="44.5" y2="6.5" id="直线"></line>
                            <line x1="53.5" y1="0.5" x2="48.5" y2="6.5" id="直线"></line>
                            <line x1="57.5" y1="0.5" x2="52.5" y2="6.5" id="直线"></line>
                            <line x1="61.5" y1="0.5" x2="56.5" y2="6.5" id="直线"></line>
                            <line x1="65.5" y1="0.5" x2="60.5" y2="6.5" id="直线"></line>
                            <line x1="69.5" y1="0.5" x2="64.5" y2="6.5" id="直线"></line>
                            <line x1="73.5" y1="0.5" x2="68.5" y2="6.5" id="直线"></line>
                            <line x1="77.5" y1="0.5" x2="72.5" y2="6.5" id="直线"></line>
                            <line x1="81.5" y1="0.5" x2="76.5" y2="6.5" id="直线"></line>
                            <line x1="85.5" y1="0.5" x2="80.5" y2="6.5" id="直线"></line>
                            <line x1="89.5" y1="0.5" x2="84.5" y2="6.5" id="直线"></line>
                            <line x1="93.5" y1="0.5" x2="88.5" y2="6.5" id="直线"></line>
                            <line x1="97.5" y1="0.5" x2="92.5" y2="6.5" id="直线"></line>
                            <line x1="101.5" y1="0.5" x2="96.5" y2="6.5" id="直线"></line>
                            <line x1="105.5" y1="0.5" x2="100.5" y2="6.5" id="直线"></line>
                            <line x1="109.5" y1="0.5" x2="104.5" y2="6.5" id="直线"></line>
                            <line x1="113.5" y1="0.5" x2="108.5" y2="6.5" id="直线"></line>
                            <line x1="117.5" y1="0.5" x2="112.5" y2="6.5" id="直线"></line>
                            <line x1="121.5" y1="0.5" x2="116.5" y2="6.5" id="直线"></line>
                            <line x1="125.5" y1="0.5" x2="120.5" y2="6.5" id="直线"></line>
                            <line x1="129.5" y1="0.5" x2="124.5" y2="6.5" id="直线"></line>
                            <line x1="133.5" y1="0.5" x2="128.5" y2="6.5" id="直线"></line>
                            <line x1="137.5" y1="0.5" x2="132.5" y2="6.5" id="直线"></line>
                            <line x1="141.5" y1="0.5" x2="136.5" y2="6.5" id="直线"></line>
                            <line x1="145.5" y1="0.5" x2="140.5" y2="6.5" id="直线"></line>
                            <line x1="149.5" y1="0.5" x2="144.5" y2="6.5" id="直线"></line>
                            <line x1="153.5" y1="0.5" x2="148.5" y2="6.5" id="直线"></line>
                            <line x1="157.5" y1="0.5" x2="152.5" y2="6.5" id="直线"></line>
                            <line x1="161.5" y1="0.5" x2="156.5" y2="6.5" id="直线"></line>
                            <line x1="165.5" y1="0.5" x2="160.5" y2="6.5" id="直线"></line>
                            <line x1="169.5" y1="0.5" x2="164.5" y2="6.5" id="直线"></line>
                            <line x1="173.5" y1="0.5" x2="168.5" y2="6.5" id="直线"></line>
                            <line x1="177.5" y1="0.5" x2="172.5" y2="6.5" id="直线"></line>
                            <line x1="181.5" y1="0.5" x2="176.5" y2="6.5" id="直线"></line>
                            <line x1="185.5" y1="0.5" x2="180.5" y2="6.5" id="直线"></line>
                            <line x1="189.5" y1="0.5" x2="184.5" y2="6.5" id="直线"></line>
                            <line x1="193.5" y1="0.5" x2="188.5" y2="6.5" id="直线"></line>
                            <line x1="197.5" y1="0.5" x2="192.5" y2="6.5" id="直线"></line>
                            <line x1="201.5" y1="0.5" x2="196.5" y2="6.5" id="直线"></line>
                            <line x1="205.5" y1="0.5" x2="200.5" y2="6.5" id="直线"></line>
                            <line x1="209.5" y1="0.5" x2="204.5" y2="6.5" id="直线"></line>
                            <line x1="213.5" y1="0.5" x2="208.5" y2="6.5" id="直线"></line>
                            <line x1="217.5" y1="0.5" x2="212.5" y2="6.5" id="直线"></line>
                            <line x1="221.5" y1="0.5" x2="216.5" y2="6.5" id="直线"></line>
                            <line x1="225.5" y1="0.5" x2="220.5" y2="6.5" id="直线"></line>
                            <line x1="229.5" y1="0.5" x2="224.5" y2="6.5" id="直线"></line>
                            <line x1="233.5" y1="0.5" x2="228.5" y2="6.5" id="直线"></line>
                            <line x1="237.5" y1="0.5" x2="232.5" y2="6.5" id="直线"></line>
                            <line x1="241.5" y1="0.5" x2="236.5" y2="6.5" id="直线"></line>
                            <line x1="245.5" y1="0.5" x2="240.5" y2="6.5" id="直线"></line>
                            <line x1="249.5" y1="0.5" x2="244.5" y2="6.5" id="直线"></line>
                            <line x1="253.5" y1="0.5" x2="248.5" y2="6.5" id="直线"></line>
                            <line x1="257.5" y1="0.5" x2="252.5" y2="6.5" id="直线"></line>
                            <line x1="261.5" y1="0.5" x2="256.5" y2="6.5" id="直线"></line>
                            <line x1="265.5" y1="0.5" x2="260.5" y2="6.5" id="直线"></line>
                            <line x1="269.5" y1="0.5" x2="264.5" y2="6.5" id="直线"></line>
                            <line x1="273.5" y1="0.5" x2="268.5" y2="6.5" id="直线"></line>
                            <line x1="277.5" y1="0.5" x2="272.5" y2="6.5" id="直线"></line>
                            <line x1="281.5" y1="0.5" x2="276.5" y2="6.5" id="直线"></line>
                            <line x1="285.5" y1="0.5" x2="280.5" y2="6.5" id="直线"></line>
                            <line x1="289.5" y1="0.5" x2="284.5" y2="6.5" id="直线"></line>
                            <line x1="293.5" y1="0.5" x2="288.5" y2="6.5" id="直线"></line>
                            <line x1="297.5" y1="0.5" x2="292.5" y2="6.5" id="直线"></line>
                            <line x1="301.5" y1="0.5" x2="296.5" y2="6.5" id="直线"></line>
                            <line x1="305.5" y1="0.5" x2="300.5" y2="6.5" id="直线"></line>
                            <line x1="309.5" y1="0.5" x2="304.5" y2="6.5" id="直线"></line>
                            <line x1="313.5" y1="0.5" x2="308.5" y2="6.5" id="直线"></line>
                            <line x1="317.5" y1="0.5" x2="312.5" y2="6.5" id="直线"></line>
                            <line x1="321.5" y1="0.5" x2="316.5" y2="6.5" id="直线"></line>
                            <line x1="323.925049" y1="2.5" x2="320.5" y2="6.5" id="直线"></line>
                        </g>
                    </g>
                </g>
            </g>
        </g>
    </g>
</svg>