<?xml version="1.0" encoding="UTF-8"?>
<svg width="408px" height="241px" viewBox="0 0 408 241" version="1.1" xmlns="http://www.w3.org/2000/svg" xmlns:xlink="http://www.w3.org/1999/xlink">
    <title>运输背</title>
    <defs>
        <radialGradient cx="0%" cy="86.7650463%" fx="0%" fy="86.7650463%" r="71.021345%" gradientTransform="translate(0.000000,0.867650),scale(1.000000,0.811646),rotate(-9.794497),translate(-0.000000,-0.867650)" id="radialGradient-1">
            <stop stop-color="#62FFCB" offset="0%"></stop>
            <stop stop-color="#62FFCB" stop-opacity="0" offset="100%"></stop>
        </radialGradient>
    </defs>
    <g id="安监平台大屏" stroke="none" stroke-width="1" fill="none" fill-rule="evenodd">
        <g id="综合图表" transform="translate(-1132.000000, -770.000000)">
            <g id="运输背" transform="translate(1132.000000, 770.000000)">
                <g id="编组-13" opacity="0.600000024" fill="url(#radialGradient-1)">
                    <path d="M248,182 C231.32784,150.558139 252.492453,89.8914727 311.493841,0 L408,0.674074074 L408,182 C316.829893,211.224806 263.496559,211.224806 248,182 Z" id="路径-2" opacity="0.400000006"></path>
                    <path d="M5.50973764,182 C-11.1624227,150.558139 10.0021911,89.8914727 69.003579,0 L165.509738,0.674074074 L165.509738,182 C74.3396301,211.224806 21.0062968,211.224806 5.50973764,182 Z" id="路径-2" opacity="0.400000006" transform="translate(82.754869, 101.959302) scale(-1, 1) translate(-82.754869, -101.959302) "></path>
                </g>
                <g id="编组-39" transform="translate(133.000000, 18.000000)">
                    <line x1="27.5" y1="15.5" x2="48.5" y2="145.5" id="直线-7" stroke="#62FFCB" stroke-width="3" stroke-linecap="round" stroke-linejoin="round"></line>
                    <line x1="92" y1="15.5" x2="113" y2="145.5" id="直线-7" stroke="#62FFCB" stroke-width="3" stroke-linecap="round" stroke-linejoin="round" transform="translate(102.500000, 80.500000) scale(-1, 1) translate(-102.500000, -80.500000) "></line>
                    <line x1="106.5" y1="54.5" x2="119.5" y2="54.5" id="直线-8" stroke="#62FFCB" stroke-width="2" stroke-linecap="round" stroke-linejoin="round"></line>
                    <line x1="21" y1="54.5" x2="34" y2="54.5" id="直线-8" stroke="#62FFCB" stroke-width="2" stroke-linecap="round" stroke-linejoin="round"></line>
                    <line x1="101" y1="90.5" x2="111" y2="90.5" id="直线-8" stroke="#62FFCB" stroke-width="2" stroke-linecap="round" stroke-linejoin="round"></line>
                    <line x1="29" y1="90.5" x2="39" y2="90.5" id="直线-8" stroke="#62FFCB" stroke-width="2" stroke-linecap="round" stroke-linejoin="round"></line>
                    <line x1="95" y1="126.5" x2="102" y2="126.5" id="直线-8" stroke="#62FFCB" stroke-width="2" stroke-linecap="round" stroke-linejoin="round"></line>
                    <line x1="38" y1="126.5" x2="45" y2="126.5" id="直线-8" stroke="#62FFCB" stroke-width="2" stroke-linecap="round" stroke-linejoin="round"></line>
                    <line x1="71" y1="-2.5313085e-14" x2="70.5" y2="156.5" id="直线-9" stroke="#FF2516" stroke-width="2" stroke-linecap="round" stroke-linejoin="round"></line>
                    <rect id="矩形" fill="#FF2516" x="49" y="174" width="8" height="8"></rect>
                    <rect id="矩形" fill="#FF2516" x="84" y="174" width="8" height="8"></rect>
                    <rect id="矩形" fill="#62FFCB" x="51" y="104" width="4" height="4"></rect>
                    <rect id="矩形" fill="#62FFCB" x="86" y="104" width="4" height="4"></rect>
                    <rect id="矩形" fill="#FF2516" x="64" y="90" width="13" height="2"></rect>
                    <g id="编组-38" opacity="0.600000024" transform="translate(0.500000, 46.000000)"></g>
                </g>
                <g id="编组-11" transform="translate(188.000000, 209.000000)">
                    <rect id="矩形" stroke="#FF2516" transform="translate(16.000000, 16.000000) rotate(45.000000) translate(-16.000000, -16.000000) " x="5.5" y="5.5" width="21" height="21" rx="4"></rect>
                    <path d="M13.4815041,11.316731 C13.4815041,10.2331556 13.4815041,8.87892135 13.4815041,7.25402813 C13.4815041,6.70174338 13.9292193,6.25402813 14.4815041,6.25402813 C16.063805,6.25402813 17.3887782,6.25402813 18.4564239,6.25402813" id="路径" stroke="#62FFCB" stroke-width="2" stroke-linecap="round" stroke-linejoin="round" transform="translate(15.968964, 8.785380) rotate(45.000000) translate(-15.968964, -8.785380) "></path>
                    <path d="M13.5,24.8555961 C13.5,23.7720207 13.5,22.4177864 13.5,20.7928932 C13.5,20.2406085 13.9477153,19.7928932 14.5,19.7928932 C16.0823009,19.7928932 17.4072742,19.7928932 18.4749198,19.7928932" id="路径" stroke="#62FFCB" stroke-width="2" stroke-linecap="round" stroke-linejoin="round" transform="translate(15.987460, 22.324245) scale(1, -1) rotate(45.000000) translate(-15.987460, -22.324245) "></path>
                    <line x1="16" y1="10.2928932" x2="16" y2="20.2928932" id="直线-10" stroke="#FF2516" stroke-width="2" stroke-linecap="round" stroke-linejoin="round"></line>
                </g>
                <path id="路径" d="M336.201148,166.996206 L336.232,167.489 L340.247706,167.371154 L336.014726,176.499783 L331.25161,167.636221 L335.232,167.519 L335.203359,167.062659 L336.201148,166.996206 Z M65.7522937,167.371154 L74.7483895,167.636221 L69.985274,176.499783 L65.7522937,167.371154 Z M69.8539807,166.203709 L70.8513608,166.276049 L70.8162578,166.772863 L70.8162578,166.772863 L70.7829959,167.269972 L69.7851042,167.20507 C69.8068263,166.871086 69.8297855,166.537298 69.8539807,166.203709 Z M335.87474,162.99636 L335.922245,163.497599 L335.922245,163.497599 L335.967882,163.999168 L334.971828,164.087913 L334.92653,163.590083 L334.92653,163.590083 L334.87938,163.092581 L335.87474,162.99636 Z M70.2049239,162.197278 L71.1996895,162.299462 L71.1497303,162.794945 L71.1497303,162.794945 L71.1016118,163.290763 L70.106109,163.196031 C70.1378106,162.862891 70.1707494,162.529972 70.2049239,162.197278 Z M335.427786,159.000271 L335.490271,159.499425 L335.490271,159.499425 L335.550894,159.998947 L334.557953,160.117556 L334.497784,159.621771 L334.497784,159.621771 L334.435766,159.126353 L335.427786,159.000271 Z M70.6746586,158.212947 L71.6659114,158.344925 L71.6011011,158.838795 L71.6011011,158.838795 L71.5381303,159.333037 L70.5459136,159.208515 C70.5875926,158.87641 70.6305082,158.544552 70.6746586,158.212947 Z M334.862303,155.029132 L334.939647,155.525407 L334.939647,155.525407 L335.015138,156.022089 L334.026211,156.17049 L333.951286,155.677535 L333.951286,155.677535 L333.874522,155.184986 L334.862303,155.029132 Z M71.2666091,154.227968 L72.2534212,154.389838 L72.1737186,154.881531 L72.1737186,154.881531 L72.0958515,155.373638 L71.1078472,155.219212 C71.1595345,154.888521 71.2124558,154.558105 71.2666091,154.227968 Z M334.176749,151.072803 L334.268819,151.565365 L334.268819,151.565365 L334.35905,152.058374 L333.375051,152.236551 L333.285499,151.747251 L333.285499,151.747251 L333.194122,151.258394 L334.176749,151.072803 Z M71.9606745,150.356005 L72.9422673,150.546991 L72.8481135,151.035826 L72.8481135,151.035826 L72.7557867,151.525114 L71.7727799,151.341545 C71.8341837,151.012729 71.8968159,150.684214 71.9606745,150.356005 Z M333.370858,147.133837 L333.477466,147.621858 L333.477466,147.621858 L333.582255,148.110365 L332.604104,148.318263 L332.500105,147.833437 L332.500105,147.833437 L332.3943,147.349093 L333.370858,147.133837 Z M72.7789269,146.462588 L73.7543555,146.682904 L73.6455874,147.168737 L73.6455874,147.168737 L73.5386384,147.655065 L72.5615715,147.442132 C72.632801,147.115287 72.7052535,146.78877 72.7789269,146.462588 Z M332.447784,143.22819 L332.569984,143.716275 L332.569984,143.716275 L332.690348,144.204896 L331.718922,144.442238 L331.599466,143.957303 L331.599466,143.957303 L331.478188,143.4729 L332.447784,143.22819 Z M73.7217968,142.563525 L74.6901136,142.81325 L74.566737,143.295417 L74.566737,143.295417 L74.4451677,143.77812 L73.4749887,143.535731 C73.5560436,143.211303 73.6383138,142.887233 73.7217968,142.563525 Z M331.404475,139.343808 L331.540769,139.825595 L331.540769,139.825595 L331.675257,140.307955 L330.711491,140.574704 L330.578018,140.095985 L330.578018,140.095985 L330.442754,139.617836 L331.404475,139.343808 Z M74.7813003,138.698033 L75.7416197,138.976936 L75.6036888,139.45524 L75.6036888,139.45524 L75.4675531,139.934122 L74.505149,139.662501 C74.595993,139.340624 74.6880443,139.019133 74.7813003,138.698033 Z M330.24535,135.498017 L330.396919,135.977774 L330.396919,135.977774 L330.546681,136.458155 L329.591436,136.753969 L329.442805,136.277215 L329.442805,136.277215 L329.292379,135.80108 L330.24535,135.498017 Z M75.9642016,134.844951 L76.9155898,135.152946 L76.7631318,135.626947 L76.7631318,135.626947 L76.6124551,136.101571 L75.6587607,135.800794 C75.7593773,135.481762 75.8611919,135.163146 75.9642016,134.844951 Z M328.970383,131.689826 L329.135338,132.161632 L329.135338,132.161632 L329.298525,132.634098 L328.352703,132.958783 L328.190747,132.489884 L328.190747,132.489884 L328.027038,132.02164 L328.970383,131.689826 Z M77.259252,131.042342 L78.2008637,131.379043 L78.0341095,131.848184 L78.0341095,131.848184 L77.8691196,132.317993 L76.9249848,131.988433 C77.0352217,131.672622 77.146645,131.357257 77.259252,131.042342 Z M327.573066,127.902578 L327.752745,128.370265 L327.752745,128.370265 L327.930666,128.838659 L326.995168,129.19199 L326.818589,128.727129 L326.818589,128.727129 L326.640266,128.262971 L327.573066,127.902578 Z M78.6734697,127.269306 L79.6044106,127.634476 L79.4233848,128.098553 L79.4233848,128.098553 L79.244106,128.563343 L78.3104265,128.205233 C78.430267,127.89278 78.5512824,127.580802 78.6734697,127.269306 Z M326.0661,124.171534 L326.260116,124.634106 L326.260116,124.634106 L326.452391,125.097431 L325.528042,125.478979 L325.337216,125.019146 L325.337216,125.019146 L325.144663,124.560062 L326.0661,124.171534 Z M80.20209,123.540057 L81.1215059,123.933344 L80.9265307,124.391545 L80.9265307,124.391545 L80.7332803,124.850504 L79.8109162,124.464182 C79.9401484,124.155633 80.0705408,123.847589 80.20209,123.540057 Z M324.461681,120.520677 L324.669537,120.977282 L324.669537,120.977282 L324.875675,121.434686 L323.963207,121.843834 L323.758622,121.389874 L323.758622,121.389874 L323.552331,120.936708 L324.461681,120.520677 Z M81.8389776,119.868175 L82.7460646,120.289118 L82.5371699,120.7415 L82.5371699,120.7415 L82.3299795,121.194685 L81.4197362,120.780611 C81.5583381,120.475927 81.6980864,120.17178 81.8389776,119.868175 Z M322.736985,116.896586 L322.958245,117.346112 L322.958245,117.346112 L323.177815,117.79648 L322.278127,118.233013 L322.060208,117.786032 L322.060208,117.786032 L321.840612,117.339887 L322.736985,116.896586 Z M83.5875978,116.244765 L84.4815298,116.692967 L84.2590783,117.13874 L84.2590783,117.13874 L84.0383059,117.58536 L83.1410159,117.143918 C83.2887482,116.843632 83.4376101,116.543912 83.5875978,116.244765 Z M320.902616,113.324152 L321.136726,113.765631 L321.136726,113.765631 L321.369182,114.207992 L320.48309,114.671502 L320.252381,114.232464 L320.252381,114.232464 L320.020029,113.794302 L320.902616,113.324152 Z M85.4469024,112.672389 L86.3268647,113.147432 L86.0914003,113.585572 L86.0914003,113.585572 L85.8575832,114.024602 L84.9740701,113.556196 C85.1305738,113.260997 85.2881859,112.966392 85.4469024,112.672389 Z M318.955518,109.798471 L319.203996,110.234664 L319.203996,110.234664 L319.450832,110.671793 L318.579143,111.161852 L318.334159,110.728002 L318.334159,110.728002 L318.087544,110.295082 L318.955518,109.798471 Z M87.4097248,109.164147 L88.2749596,109.665514 L88.0257311,110.097494 L88.0257311,110.097494 L87.7781305,110.530414 L86.9091417,110.035582 C87.0749087,109.744473 87.2417711,109.453993 87.4097248,109.164147 Z M316.907264,106.34046 L317.169501,106.770177 L317.169501,106.770177 L317.430118,107.200881 L316.573579,107.716963 L316.314915,107.289486 L316.314915,107.289486 L316.054641,106.862988 L316.907264,106.34046 Z M89.4804248,105.711769 L90.3301436,106.239005 L90.0684745,106.662496 L90.0684745,106.662496 L89.8083976,107.086969 L88.9547418,106.566131 C89.1288994,106.280686 89.3041284,105.995896 89.4804248,105.711769 Z M314.757853,102.948721 L315.030964,103.367402 L315.030964,103.367402 L315.302508,103.787101 L314.461899,104.328744 L314.192387,103.912185 L314.192387,103.912185 L313.921319,103.496637 L314.757853,102.948721 Z M91.6511813,102.327997 L92.4846558,102.880555 L92.2096606,103.297054 L92.2096606,103.297054 L91.9362345,103.714584 L91.0986271,103.168311 C91.2817573,102.887515 91.4659435,102.607408 91.6511813,102.327997 Z M312.495397,99.6056818 L312.78305,100.018862 L312.78305,100.018862 L313.069147,100.43312 L312.245239,100.999844 L311.96128,100.588682 L311.96128,100.588682 L311.675776,100.178589 L312.495397,99.6056818 Z M93.9269276,99.0050052 L94.7433932,99.5823992 L94.4571041,99.9888379 L94.4571041,99.9888379 L94.1723392,100.396343 L93.3515753,99.8250756 C93.542335,99.5510032 93.7341206,99.2776445 93.9269276,99.0050052 Z M310.141587,96.3437063 L310.440729,96.7469883 L310.440729,96.7469883 L310.738356,97.1513866 L309.931857,97.7426222 L309.636452,97.3412425 L309.636452,97.3412425 L309.339542,96.9409706 L310.141587,96.3437063 Z M96.2992111,95.7551526 L97.0979661,96.3568089 L96.7985905,96.7558127 L96.7985905,96.7558127 L96.5007151,97.1559343 L95.6974694,96.5602865 C95.8970416,96.2911586 96.0976237,96.0227787 96.2992111,95.7551526 Z M307.689711,93.1523314 L308.001699,93.5475638 L308.001699,93.5475638 L308.312199,93.9439627 L307.523803,94.5591303 L307.215618,94.1656874 L307.215618,94.1656874 L306.905956,93.7734022 L307.689711,93.1523314 Z M98.7659676,92.5805013 L99.5463246,93.2058356 L99.2356857,93.5949721 L99.2356857,93.5949721 L98.9265062,93.9852657 L98.1414931,93.3657865 C98.3486703,93.1032485 98.5568301,92.8414849 98.7659676,92.5805013 Z M305.143282,90.0360814 L305.464875,90.4192561 L305.464875,90.4192561 L305.785036,90.8036251 L305.01548,91.4422035 L304.697704,91.0606987 L304.697704,91.0606987 L304.378507,90.6803791 L305.143282,90.0360814 Z M101.325134,89.4831134 L102.086419,90.131531 L101.764876,90.5104722 L101.764876,90.5104722 L101.444752,90.8906085 L100.67865,90.247889 C100.893192,89.992162 101.108688,89.7372349 101.325134,89.4831134 Z M302.498138,86.9903978 L302.83282,87.3656738 L302.83282,87.3656738 L303.166092,87.7421991 L302.416046,88.4035845 L302.085256,88.0298634 L302.085256,88.0298634 L301.753066,87.6573822 L302.498138,86.9903978 Z M103.982737,86.4561089 L104.724227,87.1270719 L104.390039,87.4977808 L104.390039,87.4977808 L104.057243,87.8697373 L103.310748,87.2043462 C103.533808,86.9540967 103.757807,86.7046824 103.982737,86.4561089 Z M299.803005,84.0679494 L300.147388,84.4318199 L300.147388,84.4318199 L300.49041,84.7969716 L299.760288,85.4802881 L299.419819,85.1178549 L299.419819,85.1178549 L299.078,84.7566934 L299.803005,84.0679494 Z M106.720795,83.5196806 L107.4419,84.2125062 L107.096646,84.5732022 L107.096646,84.5732022 L106.752746,84.9351879 L106.026472,84.2477827 C106.257003,84.0042166 106.488445,83.761514 106.720795,83.5196806 Z M297.020229,81.2242206 L297.375361,81.5778563 L297.375361,81.5778563 L297.729172,81.9328145 L297.019605,82.6374531 L296.668429,82.2851372 L296.668429,82.2851372 L296.31594,81.934134 L297.020229,81.2242206 Z M109.545068,80.6667076 L110.245149,81.3807712 L109.890458,81.7298174 L109.890458,81.7298174 L109.537071,82.080185 L108.83168,81.371367 C109.068599,81.1355939 109.306396,80.9007056 109.545068,80.6667076 Z M294.125949,78.4375085 L294.492692,78.7814884 L294.492692,78.7814884 L294.858145,79.1268394 L294.169951,79.8523663 L293.807219,79.5095864 L293.807219,79.5095864 L293.443206,79.1681674 L294.125949,78.4375085 Z M112.462352,77.8910721 L113.140715,78.6257994 L112.776036,78.9637636 L112.776036,78.9637636 L112.41262,79.3030863 L111.728796,78.5734394 C111.972466,78.345072 112.216987,78.1176145 112.462352,77.8910721 Z M291.142659,75.7324931 L291.519508,76.0652854 L291.519508,76.0652854 L291.895111,76.3994875 L291.228979,77.1453216 L290.856174,76.8136084 L290.856174,76.8136084 L290.482131,76.4832946 L291.142659,75.7324931 Z M115.453113,75.2114621 L116.109203,75.9661444 L115.733793,76.2937451 L115.733793,76.2937451 L115.359609,76.6227486 L114.697893,75.8729935 C114.948809,75.6515418 115.20055,75.4310296 115.453113,75.2114621 Z M288.090314,73.1270465 L288.475695,73.4473831 L288.475695,73.4473831 L288.859879,73.769158 L288.216356,74.5345852 L287.835035,74.2152079 L287.835035,74.2152079 L287.452526,73.8972585 L288.090314,73.1270465 Z M118.49588,72.6444273 L119.129299,73.4182361 L118.74472,73.7342445 L118.74472,73.7342445 L118.361322,74.0516897 L117.722137,73.2826372 C117.979256,73.0689364 118.237172,72.8561981 118.49588,72.6444273 Z M284.954074,70.6083201 L285.350501,70.918225 L285.350501,70.918225 L285.745764,71.229617 L285.125453,72.013973 L284.733137,71.7049031 L284.733137,71.7049031 L284.339667,71.3973093 L284.954074,70.6083201 Z M121.615227,70.1674409 L122.225388,70.9597184 L121.830371,71.2651174 L121.830371,71.2651174 L121.4365,71.571998 L120.820411,70.7843215 C121.084579,70.5777002 121.34952,70.3720717 121.615227,70.1674409 Z M281.744962,68.185735 L282.150454,68.4835702 L282.150454,68.4835702 L282.554827,68.7829276 L281.95832,69.5855355 L281.556966,69.2884125 L281.556966,69.2884125 L281.1545,68.9928006 L281.744962,68.185735 Z M124.838521,67.761258 L125.424626,68.5714927 L125.022999,68.8631648 L125.022999,68.8631648 L124.622461,69.156336 L124.030321,68.3505005 C124.298988,68.1530803 124.56839,67.9566646 124.838521,67.761258 Z M278.465288,65.8610425 L278.877742,66.1453265 L278.877742,66.1453265 L279.289131,66.4311534 L278.71701,67.2513228 L278.308695,66.9676316 L278.308695,66.9676316 L277.899324,66.685472 L278.465288,65.8610425 Z M128.145698,65.444085 L128.707096,66.2716311 L128.294338,66.5527764 L128.294338,66.5527764 L127.882639,66.8354732 L127.315032,66.0121731 C127.591209,65.8217692 127.868099,65.632405 128.145698,65.444085 Z M275.119677,63.6374796 L275.540785,63.9094422 L275.540785,63.9094422 L275.960869,64.1829826 L275.41363,65.019959 L274.996688,64.7484651 L274.996688,64.7484651 L274.578732,64.4785373 L275.119677,63.6374796 Z M131.504667,63.2383614 L132.04094,64.082406 L131.621363,64.3500952 L131.621363,64.3500952 L131.202793,64.6193573 L130.660201,63.7793613 C130.941012,63.5979724 131.222502,63.4176376 131.504667,63.2383614 Z M271.705278,61.5133937 L272.134323,61.7725204 L272.134323,61.7725204 L272.56239,62.0332555 L272.04059,62.8863232 L271.61573,62.6275413 L271.61573,62.6275413 L271.189899,62.3703559 L271.705278,61.5133937 Z M134.932966,61.1319691 L135.443562,61.9917896 L135.01519,62.2472666 L135.01519,62.2472666 L134.587785,62.5043539 L134.070728,61.6484032 C134.35749,61.4751776 134.644905,61.3030315 134.932966,61.1319691 Z M268.221247,59.4891004 L268.658961,59.7357367 L268.658961,59.7357367 L269.095738,59.9840186 L268.599922,60.8524458 L268.166421,60.6060263 L268.166421,60.6060263 L267.731991,60.3612403 L268.221247,59.4891004 Z M138.428551,59.1269547 L138.912931,60.0018121 L138.476858,60.2443278 L138.476858,60.2443278 L138.041707,60.4884845 L137.55074,59.6173064 C137.842723,59.4527544 138.135328,59.2893025 138.428551,59.1269547 Z M264.684874,57.5748389 L265.129731,57.8080962 L265.129731,57.8080962 L265.573697,58.0430263 L265.104315,58.9260215 L264.663684,58.692856 L264.663684,58.692856 L264.222169,58.461351 L264.684874,57.5748389 Z M141.967735,57.2365069 L142.425536,58.1255613 L141.983027,58.3544797 L141.983027,58.3544797 L141.541393,58.5850615 L141.076898,57.6994858 C141.373255,57.544043 141.670202,57.3897155 141.967735,57.2365069 Z M261.085476,55.7649812 L261.537137,55.9846328 L261.537137,55.9846328 L261.987952,56.2059831 L261.545519,57.1027846 L261.098094,56.8830991 L261.098094,56.8830991 L260.649831,56.6650997 L261.085476,55.7649812 Z M145.580373,55.4449999 L146.011009,56.3475259 L145.563182,56.5622398 L145.563182,56.5622398 L145.11618,56.778632 L144.678761,55.879374 C144.978744,55.733456 145.279283,55.5886634 145.580373,55.4449999 Z M257.43739,54.0670452 L257.894915,54.2726564 L257.894915,54.2726564 L258.351643,54.4799864 L257.936573,55.389776 L257.483285,55.1840073 L257.483285,55.1840073 L257.029205,54.9799446 L257.43739,54.0670452 Z M149.231436,53.7702022 L149.634583,54.6853375 L149.178733,54.8871847 L149.178733,54.8871847 L148.723669,55.090747 L148.313609,54.1786885 C148.619022,54.0413749 148.924967,53.9052117 149.231436,53.7702022 Z M253.741634,52.4813023 L254.204856,52.6728219 L254.204856,52.6728219 L254.667327,52.8660804 L254.280014,53.7880287 L253.821029,53.596227 L253.821029,53.596227 L253.361299,53.4061512 L253.741634,52.4813023 Z M152.929212,52.2075638 L153.304488,53.1344766 L152.841577,53.3229182 L152.841577,53.3229182 L152.379409,53.5131056 L151.997104,52.5890692 C152.307306,52.4607285 152.61801,52.333559 152.929212,52.2075638 Z M250.000003,51.0085176 L250.469119,51.1860162 L250.469119,51.1860162 L250.937527,51.3652764 L250.578341,52.2985421 L250.113466,52.1206343 L250.113466,52.1206343 L249.647889,51.944475 L250.000003,51.0085176 Z M156.682734,50.753808 L157.029695,51.6916874 L156.560652,51.8662219 L156.560652,51.8662219 L156.092309,52.0425272 L155.738221,51.1073153 C156.052586,50.9882906 156.367426,50.8704538 156.682734,50.753808 Z M246.203743,49.645926 L246.678758,49.8093107 L246.678758,49.8093107 L247.153109,49.9744812 L246.822481,50.9182423 L246.35171,50.7543187 L246.35171,50.7543187 L245.880281,50.5921673 L246.203743,49.645926 Z M160.443278,49.4266114 L160.761855,50.3745085 L160.287864,50.5348158 L160.287864,50.5348158 L159.814528,50.6969114 L159.488746,49.7514668 C159.806481,49.6419809 160.124661,49.5336949 160.443278,49.4266114 Z M242.38139,48.4037416 L242.860804,48.552533 L242.860804,48.552533 L243.3396,48.7031242 L243.037763,49.6564836 L242.562582,49.5070294 L242.562582,49.5070294 L242.086787,49.3593614 L242.38139,48.4037416 Z M164.27806,48.2023217 L164.567684,49.1594624 L164.08961,49.3051166 L164.08961,49.3051166 L163.612146,49.4525709 L163.315253,48.4976602 C163.635778,48.3980052 163.956716,48.2995582 164.27806,48.2023217 Z M238.509663,47.2744035 L238.993135,47.40846 L238.993135,47.40846 L239.476032,47.5443288 L239.203365,48.5064372 L238.724113,48.371594 L238.724113,48.371594 L238.244291,48.2385495 L238.509663,47.2744035 Z M168.138111,47.0978743 L168.398593,48.0633528 L167.917548,48.1941161 L167.917548,48.1941161 L167.437066,48.3266843 L167.16927,47.3632087 C167.491837,47.2735518 167.814786,47.1851062 168.138111,47.0978743 Z M234.614001,46.2655391 L235.101511,46.3849003 L235.101511,46.3849003 L235.58849,46.5060877 L235.345163,47.476032 L234.861858,47.3557589 L234.861858,47.3557589 L234.378026,47.2372981 L234.614001,46.2655391 Z M172.044893,46.1073198 L172.275899,47.0802723 L171.792901,47.1959124 L171.792901,47.1959124 L171.31042,47.313356 L171.072077,46.342175 C171.396001,46.2626789 171.720275,46.1843931 172.044893,46.1073198 Z M230.686288,45.3746918 L231.177156,45.479188 L231.177156,45.479188 L231.667536,45.5855202 L231.453777,46.5624066 L230.967092,46.4568757 L230.967092,46.4568757 L230.479923,46.3531668 L230.686288,45.3746918 Z M175.971972,45.2376019 L176.173379,46.2171096 L175.684286,46.3186437 L175.684286,46.3186437 L175.195673,46.4220119 L174.986845,45.4440595 C175.314898,45.3740086 175.643275,45.3051887 175.971972,45.2376019 Z M226.753092,44.6069518 L227.246846,44.6965855 L227.246846,44.6965855 L227.740154,44.7880629 L227.55597,45.7709547 L227.066373,45.6801655 L227.066373,45.6801655 L226.576333,45.5912059 L226.753092,44.6069518 Z M179.916664,44.4884396 L180.088387,45.4735848 L179.599454,45.5597597 L179.599454,45.5597597 L179.110954,45.6477538 L178.931825,44.6639281 C179.259813,44.6042102 179.588094,44.5457134 179.916664,44.4884396 Z M222.804826,43.9590047 L223.301063,44.0337605 L223.301063,44.0337605 L223.796895,44.1103657 L223.642348,45.0983511 L223.150237,45.0223208 L223.150237,45.0223208 L222.657723,44.948126 L222.804826,43.9590047 Z M183.876358,43.8594955 L184.018352,44.8493631 L183.525099,44.921067 L183.525099,44.921067 L183.032243,44.9946099 L182.882797,44.00584 C183.213717,43.9558235 183.544906,43.9070415 183.876358,43.8594955 Z M218.869556,43.4334643 L219.367696,43.4934159 L219.367696,43.4934159 L219.865471,43.5552197 L219.740394,44.5473668 L219.246344,44.4860254 L219.246344,44.4860254 L218.75193,44.4265223 L218.869556,43.4334643 Z M187.861146,43.3489512 L187.973309,44.342641 L187.4765,44.399666 L187.4765,44.399666 L186.98005,44.4585451 L186.860405,43.4657284 C187.193744,43.4255574 187.527326,43.3866311 187.861146,43.3489512 Z M214.937149,43.0264594 L215.436905,43.0716882 L215.436905,43.0716882 L215.936334,43.1187711 L215.840615,44.1141794 L215.344909,44.0674475 L215.344909,44.0674475 L214.848877,44.0225559 L214.937149,43.0264594 Z M191.868887,42.9574777 L191.951156,43.9540879 L191.457541,43.9957584 L191.457541,43.9957584 L190.964241,44.0392494 L190.874567,43.0432783 C191.205796,43.0134555 191.537237,42.9848548 191.868887,42.9574777 Z M210.933721,42.7318604 L211.434711,42.7621605 L211.434711,42.7621605 L211.935412,42.7943148 L211.869467,43.7921381 L211.372482,43.7602224 L211.372482,43.7602224 L210.875209,43.7301471 L210.933721,42.7318604 Z M195.871796,42.6870638 L195.924338,43.6856825 L195.428977,43.7126654 L195.428977,43.7126654 L194.933894,43.7414729 L194.873956,42.7432708 C195.206383,42.7233098 195.538998,42.7045737 195.871796,42.6870638 Z M206.911986,42.556222 L207.413656,42.571589 L207.413656,42.571589 L207.915075,42.5888074 L207.878904,43.588153 L207.381187,43.5710617 L207.381187,43.5710617 L206.883219,43.5558081 L206.911986,42.556222 Z M199.880157,42.5357408 L199.903085,43.5354779 L199.406798,43.5477746 L199.406798,43.5477746 L198.910753,43.5618953 L198.880455,42.5623544 C199.213527,42.5522584 199.546762,42.5433868 199.880157,42.5357408 Z M203.453419,42.5007537 L203.903326,42.5029924 L203.896699,43.5029704 L203.450095,43.5007482 L203.450095,43.5007482 L202.903166,43.5000346 L202.902451,42.5000349 L203.453419,42.5007537 Z" fill="#62FFCB" fill-rule="nonzero"></path>
            </g>
        </g>
    </g>
</svg>