<?xml version="1.0" encoding="UTF-8"?>
<svg width="54px" height="54px" viewBox="0 0 54 54" version="1.1" xmlns="http://www.w3.org/2000/svg" xmlns:xlink="http://www.w3.org/1999/xlink">
    <title>通风</title>
    <g id="安监平台大屏" stroke="none" stroke-width="1" fill="none" fill-rule="evenodd">
        <g id="综合图表" transform="translate(-431.000000, -183.000000)">
            <g id="设备" transform="translate(431.000000, 168.000000)">
                <g id="通风" transform="translate(0.000000, 15.000000)">
                    <path d="M14,8 L40,8 C43.3137085,8 46,10.6862915 46,14 L46,40 C46,43.3137085 43.3137085,46 40,46 L14,46 C10.6862915,46 8,43.3137085 8,40 L8,14 C8,10.6862915 10.6862915,8 14,8 Z" id="矩形" fill="#62FFCB" opacity="0.200000003" transform="translate(27.000000, 27.000000) rotate(45.000000) translate(-27.000000, -27.000000) "></path>
                    <g id="风扇" transform="translate(10.000000, 9.000000)" fill-rule="nonzero">
                        <rect id="矩形" fill="#000000" opacity="0.200000003" x="0" y="0" width="36" height="36"></rect>
                        <path d="M18.7826087,16.7321739 C18.6735198,16.6648759 18.5547447,16.6147264 18.4304348,16.5834783 C17.2878261,14.2356522 22.8208695,12.6313044 21.8347826,10.886087 C19.8547826,7.37217394 15.8243478,8.71043481 14.7913044,9.75130436 C12.1695652,12.6626087 15.5739131,16.1686956 16.7713044,17.2486956 C16.7058795,17.3587408 16.6558486,17.4772352 16.6226087,17.6008696 C14.2747826,18.7434783 12.6704348,13.2104348 10.9252174,14.1965217 C7.41130436,16.1765217 8.74956523,20.2069565 9.79043477,21.24 C12.7017391,23.8617391 16.2078261,20.4573913 17.2878261,19.26 C17.3978713,19.3254249 17.5163656,19.3754558 17.64,19.4086956 C18.7826087,21.7565217 13.2495652,23.3608695 14.2356522,25.106087 C16.2156522,28.62 20.2460869,27.2817391 21.2791304,26.2408696 C23.8930434,23.3295652 20.4965217,19.8234783 19.2913044,18.7434783 C19.3572763,18.6337104 19.4073404,18.5151374 19.44,18.3913044 C21.7878261,17.2486956 23.3921739,22.7817391 25.1373913,21.7956522 C28.6513043,19.8156522 27.3130434,15.7852174 26.2721739,14.7521739 C23.3373913,12.1304348 19.8313043,15.5269565 18.7826087,16.7321739 L18.7826087,16.7321739 Z" id="形状" fill="#62FFCB"></path>
                    </g>
                </g>
            </g>
        </g>
    </g>
</svg>