<?xml version="1.0" encoding="UTF-8"?>
<svg width="54px" height="54px" viewBox="0 0 54 54" version="1.1" xmlns="http://www.w3.org/2000/svg" xmlns:xlink="http://www.w3.org/1999/xlink">
    <title>立井</title>
    <g id="安监平台大屏" stroke="none" stroke-width="1" fill="none" fill-rule="evenodd">
        <g id="综合图表" transform="translate(-431.000000, -275.000000)">
            <g id="设备" transform="translate(431.000000, 168.000000)">
                <g id="编组-9" transform="translate(0.000000, 92.000000)">
                    <g id="立井" transform="translate(0.000000, 15.000000)">
                        <path d="M14,8 L40,8 C43.3137085,8 46,10.6862915 46,14 L46,40 C46,43.3137085 43.3137085,46 40,46 L14,46 C10.6862915,46 8,43.3137085 8,40 L8,14 C8,10.6862915 10.6862915,8 14,8 Z" id="矩形" fill="#62FFCB" opacity="0.200000003" transform="translate(27.000000, 27.000000) rotate(45.000000) translate(-27.000000, -27.000000) "></path>
                        <g id="电梯" transform="translate(15.000000, 13.000000)" fill-rule="nonzero">
                            <rect id="矩形" fill="#000000" opacity="0" x="0" y="0" width="28" height="28"></rect>
                            <path d="M8.603875,3.821125 C9.741375,3.821125 10.675,4.753875 10.675,5.891375 C10.675,7.028875 9.741375,7.9625 8.603875,7.9625 C7.46215926,7.95770291 6.53793964,7.03309266 6.533625,5.891375 C6.533625,4.753875 7.466375,3.821125 8.603875,3.821125 L8.603875,3.821125 Z M11.783625,15.633625 L10.703875,16.041375 C10.558625,16.1 10.471125,16.216375 10.471125,16.3625 L9.916375,23.478875 C9.8875,23.858625 9.566375,24.178875 9.158625,24.178875 L7.9625,24.178875 C7.583625,24.178875 7.2625,23.8875 7.203875,23.478875 L6.708625,16.3625 C6.708625,16.216375 6.591375,16.1 6.475,16.041375 L5.425,15.633625 C5.11497161,15.5164024 4.92326073,15.2045575 4.958625,14.875 L5.396125,10.646125 C5.51310673,9.50799387 6.46839387,8.64057957 7.6125,8.633625 L9.566375,8.633625 C10.703875,8.633625 11.666375,9.508625 11.783625,10.646125 L12.25,14.846125 C12.278875,15.196125 12.075,15.4875 11.783625,15.633625 Z M21.041375,16.041375 L17.658625,21.583625 C17.396125,22.021125 16.753875,22.021125 16.4625,21.583625 L13.108625,16.041375 C12.816375,15.575 13.166375,14.991375 13.691375,14.991375 L20.458625,14.991375 C20.983625,14.991375 21.333625,15.575 21.041375,16.041375 L21.041375,16.041375 Z M20.458625,13.008625 L13.721125,13.008625 C13.166375,13.008625 12.846125,12.425 13.1375,11.958625 L16.521125,6.416375 C16.783625,5.978875 17.425,5.978875 17.716375,6.416375 L21.041375,11.958625 C21.333625,12.425 20.983625,13.008625 20.458625,13.008625 Z" id="形状" fill="#62FFCA"></path>
                        </g>
                    </g>
                </g>
            </g>
        </g>
    </g>
</svg>