<?xml version="1.0" encoding="UTF-8"?>
<svg width="320px" height="244px" viewBox="0 0 320 244" version="1.1" xmlns="http://www.w3.org/2000/svg" xmlns:xlink="http://www.w3.org/1999/xlink">
    <title>视频监控</title>
    <defs>
        <circle id="path-1" cx="161" cy="46" r="27"></circle>
        <mask id="mask-2" maskContentUnits="userSpaceOnUse" maskUnits="objectBoundingBox" x="0" y="0" width="54" height="54" fill="white">
            <use xlink:href="#path-1"></use>
        </mask>
    </defs>
    <g id="安监平台大屏" stroke="none" stroke-width="1" fill="none" fill-rule="evenodd">
        <g id="综合图表" transform="translate(-1580.000000, -184.000000)">
            <g id="视频监控" transform="translate(1580.000000, 185.000000)">
                <g id="编组-7">
                    <path d="M90,177.405273 L90,198 C90,205.179702 84.1797017,211 77,211 L33,211 C25.8202983,211 20,205.179702 20,198 L20,13 C20,5.82029825 25.8202983,0 33,0 L77,0 C84.1797017,0 90,5.82029825 90,13 L90,35.2695312" id="路径" stroke="#62FFCB" stroke-width="2" stroke-linecap="round" stroke-linejoin="round"></path>
                    <text id="断电" opacity="0.800000012" font-family="PingFangSC-Regular, PingFang SC" font-size="18" font-weight="normal" fill="#30FFCE">
                        <tspan x="37" y="237">断电</tspan>
                    </text>
                    <circle id="椭圆形" fill="#62FFCB" cx="90" cy="36" r="3"></circle>
                    <circle id="椭圆形" fill="#62FFCB" cx="90" cy="177" r="3"></circle>
                    <rect id="矩形" fill="#62FFCB" x="81" y="60" width="18" height="4"></rect>
                    <rect id="矩形" fill="#62FFCB" x="81" y="156" width="18" height="4"></rect>
                    <rect id="矩形" fill="#62FFCB" transform="translate(90.000000, 62.000000) rotate(90.000000) translate(-90.000000, -62.000000) " x="81" y="60" width="18" height="4"></rect>
                    <circle id="椭圆形" stroke="#06F398" stroke-width="2" fill="#050607" cx="20" cy="106" r="19"></circle>
                    <polyline id="路径" fill="#06F398" fill-rule="nonzero" points="23.9486 97 13 106.709744 18.8688859 108.633599 14.2857185 116 26 107.082559 19.8463416 105.220407"></polyline>
                </g>
                <g id="编组-7" transform="translate(217.000000, 0.000000)">
                    <path d="M83,177.405273 L83,198 C83,205.179702 77.1797017,211 70,211 L26,211 C18.8202983,211 13,205.179702 13,198 L13,13 C13,5.82029825 18.8202983,0 26,0 L70,0 C77.1797017,0 83,5.82029825 83,13 L83,35.2695312" id="路径" stroke="#62FFCB" stroke-width="2" stroke-linecap="round" stroke-linejoin="round" transform="translate(48.000000, 105.500000) scale(-1, 1) translate(-48.000000, -105.500000) "></path>
                    <text id="故障" opacity="0.800000012" font-family="PingFangSC-Regular, PingFang SC" font-size="18" font-weight="normal" fill="#62FFCB">
                        <tspan x="30" y="237">故障</tspan>
                    </text>
                    <circle id="椭圆形" fill="#62FFCB" cx="13" cy="36" r="3"></circle>
                    <circle id="椭圆形" fill="#62FFCB" cx="13" cy="177" r="3"></circle>
                    <g id="编组-8" transform="translate(13.000000, 158.000000) rotate(45.000000) translate(-13.000000, -158.000000) translate(4.000000, 149.000000)" fill="#62FFCB">
                        <rect id="矩形" x="0" y="7" width="18" height="4"></rect>
                        <rect id="矩形" transform="translate(9.000000, 9.000000) rotate(90.000000) translate(-9.000000, -9.000000) " x="0" y="7" width="18" height="4"></rect>
                    </g>
                    <rect id="矩形" fill="#62FFCB" x="11" y="54" width="4" height="10"></rect>
                    <rect id="矩形" fill="#62FFCB" x="11" y="66" width="4" height="4"></rect>
                    <circle id="椭圆形" stroke="#FACB1B" stroke-width="2" fill="#050607" cx="83" cy="106" r="19"></circle>
                    <g id="扳手" transform="translate(74.000000, 97.000000)" fill-rule="nonzero">
                        <rect id="矩形" fill="#000000" opacity="0" x="0" y="0" width="18" height="18"></rect>
                        <path d="M16.6951308,3.51849254 C17.2956832,4.99901149 17.0096209,6.76626859 15.8312476,7.96995007 C14.5336302,9.29558855 12.5724714,9.5021565 11.0487959,8.62403339 L9.94737079,9.85343122 L10.7331229,10.6593921 L11.2027105,10.1794446 C11.4430369,9.93407463 11.8322366,9.93407463 12.0725449,10.1794446 L15.8827345,14.1110789 C16.1228244,14.3564489 16.1228244,14.7539329 15.8827345,14.9993029 L14.1433021,16.7762059 C13.9032122,17.0215759 13.5140125,17.0215759 13.273686,16.7762059 L9.46351466,12.8445716 C9.22342477,12.5994383 9.22342477,12.2017358 9.46351466,11.9563294 L9.89246242,11.5182234 L9.14325527,10.750828 L3.87358051,16.6319177 C3.39329152,17.1226941 2.61456453,17.1226941 2.13427553,16.6319177 L1.6994675,16.1875873 C1.21906931,15.6968474 1.21906931,14.9014607 1.6994675,14.4106661 L7.7022427,9.27471336 L3.71517069,5.1910924 L2.4565005,5.1906192 L1,2.79708808 L2.1732228,1.59686456 L4.56940805,3.09461874 L4.58571494,4.35435567 L8.61850449,8.49057413 L9.79203668,7.48656287 C8.64513059,5.88907367 8.76461135,3.63957594 10.17847,2.19534744 C11.3511104,0.997435296 13.0710146,0.70012304 14.5161403,1.30233688 L11.9319526,3.90562093 L14.1058472,6.12663592 L16.6951308,3.51849254 Z M3.14311901,15.0369765 C2.90277431,14.7916248 2.51346541,14.7916248 2.27326632,15.0369765 C2.03332202,15.2823647 2.03332202,15.6803038 2.27326632,15.9256737 C2.51346541,16.1710255 2.90277431,16.1710255 3.14311901,15.9256737 C3.38320892,15.6803038 3.38320892,15.2823647 3.14311901,15.0369765 Z" id="形状" fill="#FACB1B"></path>
                    </g>
                </g>
                <use id="椭圆形" stroke="#06F398" mask="url(#mask-2)" stroke-width="2" fill="#050607" stroke-dasharray="2,4" xlink:href="#path-1"></use>
                <g id="卡口摄像头" transform="translate(151.000000, 29.000000)" fill-rule="nonzero">
                    <rect id="矩形" fill="#000000" opacity="0" x="0" y="0" width="28" height="28"></rect>
                    <path d="M6.78222222,21.0017778 L4.16888889,21.0017778 L4.16888889,17.7351111 L1.55555556,17.2528889 L1.55555556,27.7777778 L4.16888889,26.9315556 L4.16888889,23.3008889 L8.4,23.3008889 L10.64,20.2768889 L7.65333333,18.7026667 L6.78222222,21.0017778 Z M20.3466667,21.6053333 L26.4444444,17.8533333 L7.52888889,6 L5.28888889,6 L2.30222222,10.4768889 L2.30222222,12.0511111 L18.9777778,21.7297778 L20.3466667,21.6053333 Z M18.1066667,22.4515556 L3.79555556,13.5008889 L2.30222222,15.0751111 L18.9777778,24.7537778 L20.4711111,24.7537778 L21.2177778,24.0257778 L21.9644444,21.848 L19.7244444,23.4222222 C18.7257778,22.6942222 18.1066667,22.4515556 18.1066667,22.4515556 L18.1066667,22.4515556 Z" id="形状" fill="#62FFCB"></path>
                </g>
            </g>
        </g>
    </g>
</svg>