<?xml version="1.0" encoding="UTF-8"?>
<svg width="28px" height="28px" viewBox="0 0 28 28" version="1.1" xmlns="http://www.w3.org/2000/svg" xmlns:xlink="http://www.w3.org/1999/xlink">
    <title>天气</title>
    <g id="数据大屏" stroke="none" stroke-width="1" fill="none" fill-rule="evenodd">
        <g id="安监主屏2" transform="translate(-1776.000000, -43.000000)" fill-rule="nonzero">
            <g id="头部信息" transform="translate(20.000000, 20.000000)">
                <g id="时间状态" transform="translate(1400.000000, 4.000000)">
                    <g id="天气" transform="translate(356.000000, 19.000000)">
                        <rect id="矩形" fill="#FFFFFF" opacity="0" x="0" y="0" width="28" height="28"></rect>
                        <path d="M15.2602417,0.152010469 C15.7397855,0.346671363 15.964247,0.877067598 15.7616575,1.33692658 L14.906462,3.27834084 C14.7590993,3.61325598 14.4168023,3.83088248 14.0375964,3.83060935 C13.9112855,3.83060935 13.7879821,3.80682329 13.6709668,3.75897826 C13.4402171,3.66629561 13.2578592,3.48885895 13.1643564,3.26658464 C13.0694865,3.04458375 13.0714003,2.79551623 13.1692776,2.57488235 L14.0244732,0.63346809 C14.1215302,0.412287395 14.3063487,0.23731132 14.538192,0.146815867 C14.7700353,0.0563204141 15.0300388,0.0582342305 15.2602417,0.152010469 Z M10.7122307,6.16708654 C8.21772801,6.16708654 6.18854735,8.22633626 6.18854735,10.7574746 C6.18636509,12.258988 6.90978181,13.6661784 8.12477195,14.5232878 C8.72242462,14.5260218 9.30121268,14.6777589 9.81848572,14.9642822 C10.9306774,12.8878083 12.9267717,11.4505439 15.2255199,11.0710645 C15.2329017,10.9655321 15.2364559,10.8608198 15.2364559,10.7574746 C15.2364559,8.22633626 13.2067334,6.16708654 10.7122307,6.16708654 Z M16.4525396,12.8254731 C14.0069756,12.8254731 11.8315308,14.4013514 11.03703,16.748218 C10.9101724,17.123323 10.5629542,17.3753979 10.1722655,17.3762181 C9.89695156,17.3767649 9.63612784,17.2510008 9.46279215,17.0339211 C9.1363524,16.6254613 8.64751297,16.3859629 8.12914635,16.3804949 C8.0255277,16.4078349 7.91808145,16.4165837 7.81172881,16.4061945 C6.98277965,16.5508231 6.36298157,17.2936513 6.36298157,18.1513074 C6.36298157,18.2923819 6.37993237,18.4334563 6.41274039,18.5715234 C6.47398202,18.8268791 6.4255902,19.096725 6.27959454,19.3138048 C6.13359887,19.5308845 5.90394276,19.6752397 5.64749347,19.7110551 C4.08555859,19.9284082 2.90720404,21.2377214 2.90720404,22.8409397 C2.90720404,24.6194075 4.33489949,26.0019919 6.08985486,26.0019919 L23.0040267,26.0019919 C23.8359833,26.0019919 24.6252895,25.7318726 25.2275899,25.1249243 C25.8331712,24.513875 26.1667193,23.7396059 26.1667193,22.8844103 C26.1667193,22.0404242 25.8454742,21.2590466 25.2625851,20.6551057 C24.6802429,20.0514383 23.9013259,19.7146093 23.0699162,19.6924639 C22.5679535,19.6793407 22.1704298,19.2580311 22.179452,18.7486867 L22.1772648,18.6311246 C22.1769914,15.4290624 19.6089441,12.8254731 16.4525396,12.8254731 Z M10.7122307,4.31069972 C14.2161267,4.31069972 17.0665963,7.20272621 17.0665963,10.757748 C17.0665963,10.835667 17.0649559,10.914953 17.0619485,10.9953327 C20.7323451,11.2802156 23.6593668,14.2209073 23.9770578,17.9424297 C24.964579,18.1420118 25.8564102,18.6330385 26.5697111,19.3714922 C27.4864217,20.3169098 27.9993203,21.590681 27.9968686,22.9169449 C27.9968686,24.2700021 27.4713847,25.5508817 26.5174917,26.5129767 C25.5696135,27.4679634 24.3220887,28 23.0040267,28 L6.08958145,28 C3.32577963,28 1.07679023,25.7141016 1.07679023,22.9117503 C1.07679023,20.709239 2.48644126,18.7533345 4.53338796,18.0766692 C4.55799397,16.9136251 5.13076722,15.8328744 6.07345085,15.1709727 C4.96481336,13.9797684 4.35841189,12.4276759 4.35841189,10.759115 C4.35841189,7.20299959 7.20860815,4.31069972 10.7122307,4.31069972 Z M18.6156814,8.19763323 C18.2312808,8.19872285 17.8851563,7.97508154 17.7416212,7.63333137 C17.6470397,7.41217828 17.6489222,7.16160951 17.7468158,6.94190246 C17.843326,6.72044836 18.0284179,6.54547228 18.2605346,6.45552365 L20.2372175,5.6859023 C20.4687874,5.59486006 20.7290643,5.59595367 20.959814,5.68945653 C21.1905637,5.78268597 21.3729216,5.96039604 21.4664245,6.18321714 C21.6616322,6.64581014 21.4295155,7.17265218 20.9472376,7.36102486 L18.9705548,8.131193 C18.8576405,8.17575721 18.7378912,8.19763323 18.6156814,8.19763323 L18.6156814,8.19763323 Z M0.94337097,15.0782941 C0.5589704,15.0793837 0.212845857,14.8557424 0.0693107752,14.5142656 C-0.126170322,14.0516726 0.105946396,13.5248306 0.58822422,13.3367313 L2.62505513,12.5435976 C2.73769598,12.4995801 2.85826543,12.4768879 2.97992847,12.4768879 C3.36569603,12.4768879 3.7088132,12.698342 3.85398866,13.0409124 C3.94885851,13.2648271 3.9469447,13.5106138 3.84906747,13.7328881 C3.75255724,13.9543422 3.56719194,14.1290449 3.33507524,14.2187201 L1.29851772,15.0118539 C1.18530239,15.0559109 1.06485641,15.0784424 0.94337097,15.0782941 Z M3.02394589,8.11834344 C2.89763504,8.11834344 2.77433158,8.09455738 2.65731632,8.04698576 L0.632515025,7.22705881 C0.153244603,7.03239791 -0.0712168772,6.5025485 0.130825818,6.04268949 C0.227882869,5.82150879 0.412701353,5.64625931 0.644544635,5.55603727 C0.876387943,5.46581522 1.13639146,5.46772904 1.36659436,5.56123187 L3.39194245,6.38115882 C3.62378576,6.47520847 3.80395644,6.65018454 3.89855288,6.87382585 C3.99342273,7.09774054 3.99123553,7.34352724 3.89363169,7.56580155 C3.74599562,7.9009901 3.40342527,8.1186166 3.02394589,8.11834344 Z M7.66491294,3.76445027 C7.28078578,3.76553989 6.93466121,3.54217196 6.79085277,3.20069523 L5.96354399,1.24834495 C5.7683363,0.785478531 6.00045299,0.25863652 6.48245744,0.0699904297 C6.59509829,0.0259730078 6.71566774,0.00355019271 6.83733078,0.00355019271 C7.22145794,0.00246058203 7.56758251,0.225555094 7.71139097,0.567031855 L8.53869975,2.51992891 C8.6335696,2.7419298 8.63165579,2.99099732 8.53350515,3.21163123 C8.43672151,3.43308533 8.25162962,3.60806141 8.0195129,3.69773663 C7.90648285,3.74180669 7.78623054,3.76445027 7.66491294,3.76445027 L7.66491294,3.76445027 Z" id="形状" fill="#28DAF6"></path>
                    </g>
                </g>
            </g>
        </g>
    </g>
</svg>