<?xml version="1.0" encoding="UTF-8"?>
<svg width="54px" height="54px" viewBox="0 0 54 54" version="1.1" xmlns="http://www.w3.org/2000/svg" xmlns:xlink="http://www.w3.org/1999/xlink">
    <title>绞车</title>
    <g id="安监平台大屏" stroke="none" stroke-width="1" fill="none" fill-rule="evenodd">
        <g id="综合图表" transform="translate(-608.000000, -367.000000)">
            <g id="设备" transform="translate(431.000000, 168.000000)">
                <g id="编组-9" transform="translate(177.000000, 184.000000)">
                    <g id="绞车" transform="translate(0.000000, 15.000000)">
                        <path d="M14,8 L40,8 C43.3137085,8 46,10.6862915 46,14 L46,40 C46,43.3137085 43.3137085,46 40,46 L14,46 C10.6862915,46 8,43.3137085 8,40 L8,14 C8,10.6862915 10.6862915,8 14,8 Z" id="矩形" fill="#62FFCB" opacity="0.200000003" transform="translate(27.000000, 27.000000) rotate(45.000000) translate(-27.000000, -27.000000) "></path>
                        <g id="icon-轮胎" transform="translate(18.000000, 18.000000)" fill-rule="nonzero">
                            <rect id="矩形" fill="#000000" opacity="0" x="0" y="0" width="18" height="18"></rect>
                            <path d="M9.73035,12.0645 C9.25013831,12.1786322 8.74986169,12.1786322 8.26965,12.0645 L6.20685,15.63795 C7.0909873,16.0100664 8.04074615,16.201181 9,16.2000054 C9.95925385,16.201181 10.9090127,16.0100664 11.79315,15.63795 L9.73035,12.06495 L9.73035,12.0645 Z M11.2887,11.1645 L13.3515,14.7366 C14.8957817,13.5663008 15.9026605,11.8225153 16.1442,9.9 L12.0195,9.9 C11.8784358,10.3729784 11.6280941,10.8061436 11.2887,11.1645 L11.2887,11.1645 Z M12.0195,8.1 L16.1442,8.1 C15.9026605,6.17748473 14.8957817,4.43369922 13.3515,3.2634 L11.2887,6.83595 C11.6280335,7.19417743 11.8783715,7.627182 12.0195,8.1 Z M9.73035,5.9355 L11.79315,2.36205 C10.9090127,1.98993365 9.95925385,1.79881897 9,1.79999456 C8.04074615,1.79881897 7.0909873,1.98993365 6.20685,2.36205 L8.26965,5.93505 C8.74986169,5.82091781 9.25013831,5.82091781 9.73035,5.93505 L9.73035,5.9355 Z M6.71085,6.8355 L4.6485,3.26385 C3.10432244,4.43404378 2.09745519,6.17764712 1.8558,8.1 L5.9805,8.1 C6.12156418,7.62702155 6.37190587,7.19385644 6.7113,6.8355 L6.71085,6.8355 Z M5.9805,9.9 L1.8558,9.9 C2.09733952,11.8225153 3.10421827,13.5663008 4.6485,14.7366 L6.7113,11.16405 C6.3719665,10.8058226 6.1216285,10.372818 5.9805,9.9 L5.9805,9.9 Z M9,18 C4.0293,18 0,13.9707 0,9 C0,4.0293 4.0293,0 9,0 C13.9707,0 18,4.0293 18,9 C18,13.9707 13.9707,18 9,18 Z" id="形状" fill="#62FFC9"></path>
                        </g>
                    </g>
                </g>
            </g>
        </g>
    </g>
</svg>