<?xml version="1.0" encoding="UTF-8"?>
<svg width="14px" height="14px" viewBox="0 0 14 14" version="1.1" xmlns="http://www.w3.org/2000/svg"
     xmlns:xlink="http://www.w3.org/1999/xlink">
    <title>从业人员管理icon-灰</title>
    <g id="功能界面" stroke="none" stroke-width="1" fill="none" fill-rule="evenodd" opacity="0.649999976">
        <g id="通用控件-切图" transform="translate(-16.000000, -241.000000)" fill="#FFFFFF" fill-rule="nonzero">
            <g id="B-管控-关" transform="translate(0.000000, 144.000000)">
                <g id="2从业人员管理" transform="translate(0.000000, 84.000000)">
                    <g id="从业人员管理icon-灰" transform="translate(16.000000, 13.000000)">
                        <path d="M3.5,1 C2.11928813,1 1,2.11928813 1,3.5 C1,4.88071187 2.11928813,6 3.5,6 L5.625,6 C5.83210678,6 6,5.83210678 6,5.625 L6,3.5 C6,2.83695878 5.7366079,2.201074 5.26776696,1.73223305 C4.79892601,1.2633921 4.16304123,1 3.5,1 Z M3.58228572,2.00214286 C4.3775872,2.04583662 5.0000615,2.70349916 5,3.5 L5,5 L3.5,5 C2.67157288,5 2,4.32842712 2,3.5 C2,2.67157288 2.67157288,2 3.5,2 L3.58228572,2.00214286 Z M3.5,13 C2.11928813,13 1,11.8807119 1,10.5 C1,9.11928813 2.11928813,8 3.5,8 L5.625,8 C5.83210678,8 6,8.16789322 6,8.375 L6,10.5 C6,11.1630412 5.7366079,11.798926 5.26776696,12.267767 C4.79892601,12.7366079 4.16304123,13 3.5,13 Z M3.58228572,11.9978571 C4.3775872,11.9541634 5.0000615,11.2965008 5,10.5 L5,9 L3.5,9 C2.67157288,9 2,9.67157288 2,10.5 C2,11.3284271 2.67157288,12 3.5,12 L3.58228572,11.9978571 Z M10.5,1 C11.8807119,1 13,2.11928813 13,3.5 C13,4.88071187 11.8807119,6 10.5,6 L8.375,6 C8.16789322,6 8,5.83210678 8,5.625 L8,3.5 C8,2.83695878 8.2633921,2.201074 8.73223304,1.73223305 C9.20107399,1.2633921 9.83695877,1 10.5,1 Z M10.4177143,2.00214286 C9.6224128,2.04583662 8.9999385,2.70349916 9,3.5 L9,5 L10.5,5 C11.3284271,5 12,4.32842712 12,3.5 C12,2.67157288 11.3284271,2 10.5,2 L10.4177143,2.00214286 Z M10.5,13 C11.8807119,13 13,11.8807119 13,10.5 C13,9.11928813 11.8807119,8 10.5,8 L8.375,8 C8.16789322,8 8,8.16789322 8,8.375 L8,10.5 C8,11.1630412 8.2633921,11.798926 8.73223304,12.267767 C9.20107399,12.7366079 9.83695877,13 10.5,13 Z M9,10.5 L9,9 L10.5,9 C11.3284271,9 12,9.67157288 12,10.5 C12,11.3284271 11.3284271,12 10.5,12 L10.4177143,11.9978571 C9.6224128,11.9541634 8.9999385,11.2965008 9,10.5 Z"
                              id="形状"></path>
                        <rect id="矩形" opacity="0" x="0" y="0" width="14" height="14"></rect>
                    </g>
                </g>
            </g>
        </g>
    </g>
</svg>
