<?xml version="1.0" encoding="UTF-8"?>
<svg width="15px" height="16px" viewBox="0 0 15 16" version="1.1" xmlns="http://www.w3.org/2000/svg"
     xmlns:xlink="http://www.w3.org/1999/xlink">
    <title>历史信息icon-灰</title>
    <g id="功能界面" stroke="none" stroke-width="1" fill="none" fill-rule="evenodd" opacity="0.649999976">
        <g id="通用控件-切图" transform="translate(-16.000000, -567.000000)" fill="#FFFFFF" fill-rule="nonzero">
            <g id="C-分析-关" transform="translate(0.000000, 471.000000)">
                <g id="2历史信息" transform="translate(0.000000, 84.000000)">
                    <g id="历史信息icon-灰" transform="translate(16.000000, 12.423077)">
                        <path d="M7.0893971,2.89812823 L7.0893971,7.98752598 L12.1787942,7.98752598 L12.1775967,8.08093139 L12.1775967,8.08422453 L12.1760998,8.15098544 C12.1734054,8.2399002 12.168316,8.32791683 12.161131,8.41533472 L12.1581372,8.45036175 C12.1449504,8.59623188 12.1254728,8.74146478 12.0997588,8.88565488 C11.6755426,11.2680915 9.59367984,13.0769231 7.0893971,13.0769231 C4.27855302,13.0769231 2,10.7983701 2,7.98752598 C2,5.51827027 3.75823701,3.4600582 6.09097713,2.99602495 L6.1912682,2.97716424 L6.20234512,2.9750686 C6.29365489,2.95920165 6.38616217,2.94543034 6.47926819,2.93435343 L6.49004574,2.93315593 C6.53285655,2.92806652 6.57596674,2.92357588 6.61877755,2.91968399 L6.66128898,2.91579209 C6.80368367,2.90394881 6.94651076,2.89812823 7.0893971,2.89812823 Z M6.1912682,3.89265696 C4.30819127,4.30370062 2.8981289,5.98110602 2.8981289,7.98752598 C2.8981289,10.3023035 4.77461954,12.1787942 7.0893971,12.1787942 C9.09581706,12.1787942 10.7729231,10.7687318 11.1842661,8.88565488 L6.79002079,8.88565488 C6.45933887,8.88565487 6.19126821,8.61758421 6.1912682,8.28690229 L6.1912682,3.89265696 Z M7.98752599,7.08939708 L7.98752599,2 C8.03273181,2 8.07763826,2.00059876 8.1225447,2.00179626 L7.98752599,2 C8.28862969,2.00020744 8.58914263,2.02665258 8.88565489,2.07903534 C10.9767983,2.45145946 12.625763,4.10042412 12.9978877,6.19156757 L12.9999834,6.20234512 C13.0426722,6.44500109 13.067686,6.69043636 13.0748274,6.93671517 L13.0748274,6.94330146 L13.0760249,6.99269855 L13.0769231,7.08939708 L7.98752599,7.08939708 Z M8.88565489,2.99452806 L8.88565489,6.19126818 L12.082395,6.19126818 C11.7308056,4.5937869 10.4831362,3.34611747 8.88565489,2.99452806 Z"
                              id="形状"></path>
                        <rect id="矩形" opacity="0" x="0.307692308" y="0.576923073" width="14" height="14"></rect>
                    </g>
                </g>
            </g>
        </g>
    </g>
</svg>
