<?xml version="1.0" encoding="UTF-8"?>
<svg width="14px" height="14px" viewBox="0 0 14 14" version="1.1" xmlns="http://www.w3.org/2000/svg"
     xmlns:xlink="http://www.w3.org/1999/xlink">
    <title>安全隐患icon-灰</title>
    <g id="功能界面" stroke="none" stroke-width="1" fill="none" fill-rule="evenodd" opacity="0.649999976">
        <g id="通用控件-切图" transform="translate(-16.000000, -337.000000)" fill="#FFFFFF" fill-rule="nonzero">
            <g id="B-管控-关" transform="translate(0.000000, 144.000000)">
                <g id="4安全隐患" transform="translate(0.000000, 180.000000)">
                    <g id="安全隐患icon-灰" transform="translate(16.000000, 13.000000)">
                        <path d="M7,13.1113281 C3.62481055,13.1113281 0.888671875,10.3751895 0.888671875,7 L0.888671875,1.57226562 C0.888671875,1.19472722 1.19472722,0.888671875 1.57226563,0.888671875 L12.4277344,0.888671875 C12.8052728,0.888671875 13.1113281,1.19472722 13.1113281,1.57226562 L13.1113281,7 C13.1113281,10.3751895 10.3751895,13.1113281 7,13.1113281 Z M12.2910156,1.98242188 C12.2910156,1.83140651 12.1685935,1.70898438 12.0175781,1.70898438 L1.98242188,1.70898438 C1.83140651,1.70898438 1.70898438,1.83140651 1.70898438,1.98242188 L1.70898438,7 C1.70898438,9.92214453 4.07785547,12.2910156 7,12.2910156 C9.92214453,12.2910156 12.2910156,9.92214453 12.2910156,7 L12.2910156,1.98242188 Z M10.2660469,9.48691406 C10.1958924,9.70229245 9.96442639,9.82002395 9.74904492,9.74987891 L7.00609766,8.85651758 L4.25504297,9.75538867 C4.03959463,9.82423473 3.80901855,9.70600818 3.73917592,9.49088085 C3.66933329,9.27575351 3.78649124,9.04463262 4.00129297,8.97379492 L5.68106055,8.42496484 L4.60113281,8.07324219 C4.42854165,8.01326783 4.31121179,7.85257931 4.30664062,7.66992188 L4.30664062,6.60351562 L4.12890625,6.60351562 C4.02012605,6.60351563 3.9158012,6.56030286 3.83888198,6.48338364 C3.76196277,6.40646442 3.71875,6.30213958 3.71875,6.19335938 C3.71875,5.96683633 3.90238321,5.78320312 4.12890625,5.78320312 L4.30664062,5.78320312 C4.30664062,5.55668008 4.49027383,5.37304688 4.71679687,5.37304688 C4.94331992,5.37304688 5.12695312,5.55668008 5.12695312,5.78320312 L8.87304688,5.78320312 C8.87304688,5.55668008 9.05668008,5.37304688 9.28320312,5.37304688 C9.50972617,5.37304688 9.69335938,5.55668008 9.69335938,5.78320312 L9.87109375,5.78320312 C10.0976168,5.78320312 10.28125,5.96683633 10.28125,6.19335938 C10.28125,6.30213958 10.2380372,6.40646442 10.161118,6.48338364 C10.0841988,6.56030286 9.97987395,6.60351563 9.87109375,6.60351563 L9.69335938,6.60351563 L9.69335938,7.66992188 C9.68766991,7.85323635 9.56998647,8.01423998 9.39704883,8.07530664 L8.32842773,8.42445898 L10.003082,8.96988477 C10.106517,9.00357394 10.192332,9.07697367 10.2416478,9.17393607 C10.2909635,9.27089846 10.2997402,9.38348045 10.2660469,9.48691406 Z M8.87304688,7.38201953 L8.87304688,6.60351562 L5.12695312,6.60351562 L5.12695312,7.38177344 L7.00339063,7.99290625 L8.87304688,7.38201953 Z M9.87109375,5.20898438 C9.64457071,5.20898438 9.4609375,5.02535117 9.4609375,4.79882812 L9.4609375,4.71679688 C9.4609375,4.56578151 9.33851536,4.44335938 9.1875,4.44335938 L4.8125,4.44335938 C4.66148464,4.44335938 4.5390625,4.56578151 4.5390625,4.71679688 L4.5390625,4.79882812 C4.5390625,5.02535117 4.35542929,5.20898438 4.12890625,5.20898438 C3.90238321,5.20898438 3.71875,5.02535117 3.71875,4.79882812 L3.71875,4.30664062 C3.71875,3.92910222 4.02480535,3.62304688 4.40234375,3.62304688 L6.58984375,3.62304688 C6.58984375,3.39652383 6.77347696,3.21289062 7,3.21289062 C7.22652304,3.21289062 7.41015625,3.39652383 7.41015625,3.62304688 L9.59765625,3.62304688 C9.97519465,3.62304688 10.28125,3.92910222 10.28125,4.30664062 L10.28125,4.79882812 C10.28125,5.02535117 10.0976168,5.20898438 9.87109375,5.20898438 Z"
                              id="形状"></path>
                        <rect id="矩形" opacity="0" x="0" y="0" width="14" height="14"></rect>
                    </g>
                </g>
            </g>
        </g>
    </g>
</svg>
