<?xml version="1.0" encoding="UTF-8"?>
<svg width="14px" height="14px" viewBox="0 0 14 14" version="1.1" xmlns="http://www.w3.org/2000/svg"
     xmlns:xlink="http://www.w3.org/1999/xlink">
    <title>实时监控icon-灰</title>
    <g id="功能界面" stroke="none" stroke-width="1" fill="none" fill-rule="evenodd" opacity="0.649999976">
        <g id="通用控件-切图" transform="translate(-16.000000, -106.000000)" fill="#FFFFFF" fill-rule="nonzero">
            <g id="A-监测-关" transform="translate(0.000000, 10.000000)">
                <g id="2实时监控" transform="translate(0.000000, 84.000000)">
                    <g id="实时监控icon-灰" transform="translate(16.000000, 12.000000)">
                        <path d="M7,11.5 C4.10050506,11.5 1.75,9.14949494 1.75,6.25 C1.75,3.35050506 4.10050506,1 7,1 C9.89949494,1 12.25,3.35050506 12.25,6.25 C12.25,9.14949494 9.89949494,11.5 7,11.5 L7,11.5 Z M7,1.875 C4.58375422,1.875 2.625,3.83375422 2.625,6.25 C2.625,8.66624578 4.58375422,10.625 7,10.625 C9.41624578,10.625 11.375,8.66624578 11.375,6.25 C11.375,5.08967786 10.9140638,3.97687949 10.0935922,3.15640783 C9.27312051,2.33593618 8.16032214,1.875 7,1.875 Z"
                              id="形状"></path>
                        <path d="M7,8.875 C5.55025253,8.875 4.375,7.69974747 4.375,6.25 C4.375,4.80025253 5.55025253,3.625 7,3.625 C8.44974747,3.625 9.625,4.80025253 9.625,6.25 C9.625,6.94619329 9.34843829,7.61387231 8.8561553,8.1061553 C8.36387231,8.59843829 7.69619329,8.875 7,8.875 Z M7,4.5 C6.03350169,4.5 5.25,5.28350169 5.25,6.25 C5.25,7.21649831 6.03350169,8 7,8 C7.96649831,8 8.75,7.21649831 8.75,6.25 C8.75,5.28350169 7.96649831,4.5 7,4.5 L7,4.5 Z"
                              id="形状"></path>
                        <path d="M7,6.25 L6.125,6.25 C6.125,5.76675084 6.51675084,5.375 7,5.375 L7,6.25 Z M12.0225,13 L1.9775,13 L3.093125,10.213125 L3.906875,10.536875 L3.2725,12.125 L10.7275,12.125 L10.093125,10.536875 L10.906875,10.213125 L12.0225,13 Z"
                              id="形状"></path>
                        <rect id="矩形" opacity="0" x="0" y="0" width="14" height="14"></rect>
                    </g>
                </g>
            </g>
        </g>
    </g>
</svg>
