<?xml version="1.0" encoding="UTF-8"?>
<svg width="14px" height="14px" viewBox="0 0 14 14" version="1.1" xmlns="http://www.w3.org/2000/svg"
     xmlns:xlink="http://www.w3.org/1999/xlink">
    <title>设备管理icon-灰</title>
    <g id="功能界面" stroke="none" stroke-width="1" fill="none" fill-rule="evenodd" opacity="0.649999976">
        <g id="通用控件-切图" transform="translate(-16.000000, -289.000000)" fill="#FFFFFF" fill-rule="nonzero">
            <g id="B-管控-关" transform="translate(0.000000, 144.000000)">
                <g id="3设备管理" transform="translate(0.000000, 132.000000)">
                    <g id="设备管理icon-灰" transform="translate(16.000000, 13.000000)">
                        <path d="M7.89283531,1.18805923 C7.51625117,1.14263006 7.21752479,1.12218958 6.99665615,1.12673781 C6.79099927,1.13097279 6.50492165,1.15141326 6.13842328,1.18805923 C3.19626049,1.64268993 1.00445268,4.6095324 1,7.71811896 L1,8.06762116 L3.10440276,8.06762116 C3.27241239,10.1840065 4.96484744,11.8122523 6.99665615,11.8122523 C9.02846485,11.8122523 10.7208999,10.1840065 10.8889095,8.06762116 L13,8.06762116 L13,7.71811896 C12.9905364,4.61479167 10.8285332,1.65239554 7.89283531,1.18805923 Z M3.77986253,8.07461121 L10.224596,8.07461121 C10.0491445,9.79629536 8.65988153,11.102652 7.00334387,11.1036303 C5.3467386,11.1017052 3.95735505,9.79613867 3.77986253,8.07461121 Z M1.74987793,7.23016357 C2.22149161,4.80303955 4.33940184,1.98150635 6.99665615,1.98150635 C9.65391046,1.98150635 11.6290173,4.52532959 12.1818237,7.23016357 L1.74987793,7.23016357 Z M4.82981549,11.7201622 C4.74391954,11.7442493 4.67085266,11.8033331 4.62697382,11.8841853 L4.23016905,12.6018298 C4.18516596,12.6820041 4.17280308,12.7776926 4.19584833,12.8674715 C4.21889359,12.9572505 4.27542196,13.0336204 4.35277727,13.0794828 C4.40333177,13.1108308 4.46119457,13.1269584 4.51997028,13.1260831 C4.63938895,13.1256861 4.74966704,13.059188 4.80977151,12.951332 L5.20657626,12.2336875 C5.25096887,12.153365 5.26299056,12.0578918 5.23999314,11.9682992 C5.21699572,11.8787066 5.16086584,11.8023446 5.08396805,11.7560345 C5.00726134,11.708997 4.91571144,11.6960752 4.82981549,11.7201622 Z M2.37767045,10.6585975 C2.24637546,10.7375925 2.18229462,10.8989778 2.22149161,11.0519285 C2.2606886,11.2048791 2.39336944,11.311178 2.54486346,11.3110021 C2.60342194,11.3101435 2.66086457,11.294133 2.71205648,11.2644014 L3.39866246,10.8496587 C3.50219847,10.7872262 3.56600288,10.6718033 3.56604122,10.5468689 C3.56607949,10.4219344 3.50234587,10.3064689 3.39884817,10.243967 C3.29535047,10.1814651 3.16781244,10.1814224 3.06427643,10.2438549 L2.37767045,10.6585975 Z M9.37971391,11.8748652 C9.31998161,11.7666488 9.20955087,11.69996 9.0900199,11.69992 C8.97048893,11.69988 8.86001733,11.7664947 8.80021867,11.8746711 C8.74042002,11.9828475 8.74037915,12.116151 8.80011147,12.2243674 L9.19691623,12.942012 C9.25702069,13.049868 9.36729878,13.116366 9.48671745,13.1167631 C9.54549316,13.1176383 9.60335597,13.1015107 9.65391046,13.0701628 C9.73126578,13.0243003 9.78779414,12.9479304 9.8108394,12.8581515 C9.83388466,12.7683725 9.82152177,12.6726841 9.77651868,12.5925098 L9.37971391,11.8748652 Z M11.6290173,10.6679176 L10.9424113,10.2438549 C10.7823585,10.1473426 10.5777552,10.2047176 10.4854171,10.3720057 C10.3930789,10.5392938 10.4479725,10.7531464 10.6080253,10.8496587 L11.2946313,11.2644014 C11.3457157,11.29441 11.403227,11.3104396 11.4618243,11.3110019 C11.6133183,11.311178 11.7459991,11.2048791 11.7851961,11.0519285 C11.8243931,10.8989778 11.7603123,10.7375925 11.6290173,10.6585975 L11.6290173,10.6679176 Z"
                              id="形状"></path>
                        <rect id="矩形" opacity="0" x="0" y="0" width="14" height="14"></rect>
                    </g>
                </g>
            </g>
        </g>
    </g>
</svg>
